<?xml version="1.0" encoding="UTF-8"?>
<svg width="1920px" height="1080px" viewBox="0 0 1920 1080" version="1.1" xmlns="http://www.w3.org/2000/svg" xmlns:xlink="http://www.w3.org/1999/xlink">
    <!-- Generator: Sketch 52.6 (67491) - http://www.bohemiancoding.com/sketch -->
    <title>Artboard</title>
    <desc>Created with Sketch.</desc>
    <style type="text/css">
    <![CDATA[
        #Artboard {
            transform: translate(0, 0);
            animation: 2s hello linear infinite;
        }
        @keyframes hello {
            to {
                transform: translate(-512px, 0);
            }
        }
        #Welcome {
            transform: rotate(0deg);
            transform-origin: 960px 540px;
            animation: 11s welcome linear infinite;
        }
        @keyframes welcome {
            to {
                transform: rotate(360deg);
            }
        }
    ]]>
    </style>
    <g id="Artboard" stroke="none" stroke-width="1" fill="none" fill-rule="evenodd">
        <g id="boxes" transform="translate(-408.000000, -210.000000)">
            <g id="row" transform="translate(256.000000, 0.000000)">
                <g transform="translate(0.422712, 0.000000)">
                    <g id="box">
                        <g>
                            <path d="M127.956808,-5.68434189e-14 L255.862098,73.8461538 C236.985999,102.956592 220.099365,121.812253 205.202197,130.413137 C190.305028,139.014021 164.556565,144.773745 127.956808,147.692308 C89.3345628,144.806493 62.5464956,139.046769 47.5926065,130.413137 C32.6387174,121.779505 16.7916877,102.923844 0.0515175777,73.8461538 L127.956808,-5.68434189e-14 Z" id="Polygon-Copy" fill="#FFFFFF"></path>
                            <path d="M127.956808,147.692308 C155.228587,176.244367 168.864476,199.294902 168.864476,216.843914 C168.864476,234.392925 155.228587,260.573159 127.956808,295.384615 L0.0515175777,221.538462 L0.0515175777,73.8461538 L127.956808,147.692308 Z" id="Polygon-Copy-3" fill="#D7FC70"></path>
                            <polygon id="Polygon-Copy-2" fill="#8B8685" points="255.862098 73.8461538 255.862098 221.538462 127.956808 295.384615 127.956808 147.692308"></polygon>
                        </g>
                    </g>
                    <g id="box" transform="translate(362.000000, 220.000000)">
                        <g>
                            <path d="M127.956808,-5.68434189e-14 L255.862098,73.8461538 C236.985999,102.956592 220.099365,121.812253 205.202197,130.413137 C190.305028,139.014021 164.556565,144.773745 127.956808,147.692308 C89.3345628,144.806493 62.5464956,139.046769 47.5926065,130.413137 C32.6387174,121.779505 16.7916877,102.923844 0.0515175777,73.8461538 L127.956808,-5.68434189e-14 Z" id="Polygon-Copy" fill="#FFFFFF"></path>
                            <path d="M127.956808,147.692308 C155.228587,176.244367 168.864476,199.294902 168.864476,216.843914 C168.864476,234.392925 155.228587,260.573159 127.956808,295.384615 L0.0515175777,221.538462 L0.0515175777,73.8461538 L127.956808,147.692308 Z" id="Polygon-Copy-3" fill="#D7FC70"></path>
                            <polygon id="Polygon-Copy-2" fill="#8B8685" points="255.862098 73.8461538 255.862098 221.538462 127.956808 295.384615 127.956808 147.692308"></polygon>
                        </g>
                    </g>
                    <g id="box" transform="translate(512.000000, 0.000000)">
                        <g>
                            <path d="M127.956808,-5.68434189e-14 L255.862098,73.8461538 C236.985999,102.956592 220.099365,121.812253 205.202197,130.413137 C190.305028,139.014021 164.556565,144.773745 127.956808,147.692308 C89.3345628,144.806493 62.5464956,139.046769 47.5926065,130.413137 C32.6387174,121.779505 16.7916877,102.923844 0.0515175777,73.8461538 L127.956808,-5.68434189e-14 Z" id="Polygon-Copy" fill="#FFFFFF"></path>
                            <path d="M127.956808,147.692308 C155.228587,176.244367 168.864476,199.294902 168.864476,216.843914 C168.864476,234.392925 155.228587,260.573159 127.956808,295.384615 L0.0515175777,221.538462 L0.0515175777,73.8461538 L127.956808,147.692308 Z" id="Polygon-Copy-3" fill="#D7FC70"></path>
                            <polygon id="Polygon-Copy-2" fill="#8B8685" points="255.862098 73.8461538 255.862098 221.538462 127.956808 295.384615 127.956808 147.692308"></polygon>
                        </g>
                    </g>
                    <g id="box" transform="translate(384.000000, 220.000000)">
                        <g>
                            <path d="M127.956808,-5.68434189e-14 L255.862098,73.8461538 C236.985999,102.956592 220.099365,121.812253 205.202197,130.413137 C190.305028,139.014021 164.556565,144.773745 127.956808,147.692308 C89.3345628,144.806493 62.5464956,139.046769 47.5926065,130.413137 C32.6387174,121.779505 16.7916877,102.923844 0.0515175777,73.8461538 L127.956808,-5.68434189e-14 Z" id="Polygon-Copy" fill="#FFFFFF"></path>
                            <path d="M127.956808,147.692308 C155.228587,176.244367 168.864476,199.294902 168.864476,216.843914 C168.864476,234.392925 155.228587,260.573159 127.956808,295.384615 L0.0515175777,221.538462 L0.0515175777,73.8461538 L127.956808,147.692308 Z" id="Polygon-Copy-3" fill="#D7FC70"></path>
                            <polygon id="Polygon-Copy-2" fill="#8B8685" points="255.862098 73.8461538 255.862098 221.538462 127.956808 295.384615 127.956808 147.692308"></polygon>
                        </g>
                    </g>
                    <g id="box" transform="translate(1024.000000, 0.000000)">
                        <g>
                            <path d="M127.956808,-5.68434189e-14 L255.862098,73.8461538 C236.985999,102.956592 220.099365,121.812253 205.202197,130.413137 C190.305028,139.014021 164.556565,144.773745 127.956808,147.692308 C89.3345628,144.806493 62.5464956,139.046769 47.5926065,130.413137 C32.6387174,121.779505 16.7916877,102.923844 0.0515175777,73.8461538 L127.956808,-5.68434189e-14 Z" id="Polygon-Copy" fill="#FFFFFF"></path>
                            <path d="M127.956808,147.692308 C155.228587,176.244367 168.864476,199.294902 168.864476,216.843914 C168.864476,234.392925 155.228587,260.573159 127.956808,295.384615 L0.0515175777,221.538462 L0.0515175777,73.8461538 L127.956808,147.692308 Z" id="Polygon-Copy-3" fill="#D7FC70"></path>
                            <polygon id="Polygon-Copy-2" fill="#8B8685" points="255.862098 73.8461538 255.862098 221.538462 127.956808 295.384615 127.956808 147.692308"></polygon>
                        </g>
                    </g>
                    <g id="box" transform="translate(896.000000, 220.000000)">
                        <g>
                            <path d="M127.956808,-5.68434189e-14 L255.862098,73.8461538 C236.985999,102.956592 220.099365,121.812253 205.202197,130.413137 C190.305028,139.014021 164.556565,144.773745 127.956808,147.692308 C89.3345628,144.806493 62.5464956,139.046769 47.5926065,130.413137 C32.6387174,121.779505 16.7916877,102.923844 0.0515175777,73.8461538 L127.956808,-5.68434189e-14 Z" id="Polygon-Copy" fill="#FFFFFF"></path>
                            <path d="M127.956808,147.692308 C155.228587,176.244367 168.864476,199.294902 168.864476,216.843914 C168.864476,234.392925 155.228587,260.573159 127.956808,295.384615 L0.0515175777,221.538462 L0.0515175777,73.8461538 L127.956808,147.692308 Z" id="Polygon-Copy-3" fill="#D7FC70"></path>
                            <polygon id="Polygon-Copy-2" fill="#8B8685" points="255.862098 73.8461538 255.862098 221.538462 127.956808 295.384615 127.956808 147.692308"></polygon>
                        </g>
                    </g>
                    <g id="box" transform="translate(1536.000000, 0.000000)">
                        <g>
                            <path d="M127.956808,-5.68434189e-14 L255.862098,73.8461538 C236.985999,102.956592 220.099365,121.812253 205.202197,130.413137 C190.305028,139.014021 164.556565,144.773745 127.956808,147.692308 C89.3345628,144.806493 62.5464956,139.046769 47.5926065,130.413137 C32.6387174,121.779505 16.7916877,102.923844 0.0515175777,73.8461538 L127.956808,-5.68434189e-14 Z" id="Polygon-Copy" fill="#FFFFFF"></path>
                            <path d="M127.956808,147.692308 C155.228587,176.244367 168.864476,199.294902 168.864476,216.843914 C168.864476,234.392925 155.228587,260.573159 127.956808,295.384615 L0.0515175777,221.538462 L0.0515175777,73.8461538 L127.956808,147.692308 Z" id="Polygon-Copy-3" fill="#D7FC70"></path>
                            <polygon id="Polygon-Copy-2" fill="#8B8685" points="255.862098 73.8461538 255.862098 221.538462 127.956808 295.384615 127.956808 147.692308"></polygon>
                        </g>
                    </g>
                    <g id="box" transform="translate(2048.000000, 0.000000)">
                        <g>
                            <path d="M127.956808,-5.68434189e-14 L255.862098,73.8461538 C236.985999,102.956592 220.099365,121.812253 205.202197,130.413137 C190.305028,139.014021 164.556565,144.773745 127.956808,147.692308 C89.3345628,144.806493 62.5464956,139.046769 47.5926065,130.413137 C32.6387174,121.779505 16.7916877,102.923844 0.0515175777,73.8461538 L127.956808,-5.68434189e-14 Z" id="Polygon-Copy" fill="#FFFFFF"></path>
                            <path d="M127.956808,147.692308 C155.228587,176.244367 168.864476,199.294902 168.864476,216.843914 C168.864476,234.392925 155.228587,260.573159 127.956808,295.384615 L0.0515175777,221.538462 L0.0515175777,73.8461538 L127.956808,147.692308 Z" id="Polygon-Copy-3" fill="#D7FC70"></path>
                            <polygon id="Polygon-Copy-2" fill="#8B8685" points="255.862098 73.8461538 255.862098 221.538462 127.956808 295.384615 127.956808 147.692308"></polygon>
                        </g>
                    </g>
                    <g id="box" transform="translate(2560.000000, 0.000000)">
                        <g>
                            <path d="M127.956808,-5.68434189e-14 L255.862098,73.8461538 C236.985999,102.956592 220.099365,121.812253 205.202197,130.413137 C190.305028,139.014021 164.556565,144.773745 127.956808,147.692308 C89.3345628,144.806493 62.5464956,139.046769 47.5926065,130.413137 C32.6387174,121.779505 16.7916877,102.923844 0.0515175777,73.8461538 L127.956808,-5.68434189e-14 Z" id="Polygon-Copy" fill="#FFFFFF"></path>
                            <path d="M127.956808,147.692308 C155.228587,176.244367 168.864476,199.294902 168.864476,216.843914 C168.864476,234.392925 155.228587,260.573159 127.956808,295.384615 L0.0515175777,221.538462 L0.0515175777,73.8461538 L127.956808,147.692308 Z" id="Polygon-Copy-3" fill="#D7FC70"></path>
                            <polygon id="Polygon-Copy-2" fill="#8B8685" points="255.862098 73.8461538 255.862098 221.538462 127.956808 295.384615 127.956808 147.692308"></polygon>
                        </g>
                    </g>
                    <g id="box" transform="translate(1408.000000, 220.000000)">
                        <g>
                            <path d="M127.956808,-5.68434189e-14 L255.862098,73.8461538 C236.985999,102.956592 220.099365,121.812253 205.202197,130.413137 C190.305028,139.014021 164.556565,144.773745 127.956808,147.692308 C89.3345628,144.806493 62.5464956,139.046769 47.5926065,130.413137 C32.6387174,121.779505 16.7916877,102.923844 0.0515175777,73.8461538 L127.956808,-5.68434189e-14 Z" id="Polygon-Copy" fill="#FFFFFF"></path>
                            <path d="M127.956808,147.692308 C155.228587,176.244367 168.864476,199.294902 168.864476,216.843914 C168.864476,234.392925 155.228587,260.573159 127.956808,295.384615 L0.0515175777,221.538462 L0.0515175777,73.8461538 L127.956808,147.692308 Z" id="Polygon-Copy-3" fill="#D7FC70"></path>
                            <polygon id="Polygon-Copy-2" fill="#8B8685" points="255.862098 73.8461538 255.862098 221.538462 127.956808 295.384615 127.956808 147.692308"></polygon>
                        </g>
                    </g>
                    <g id="box" transform="translate(1920.000000, 220.000000)">
                        <g>
                            <path d="M127.956808,-5.68434189e-14 L255.862098,73.8461538 C236.985999,102.956592 220.099365,121.812253 205.202197,130.413137 C190.305028,139.014021 164.556565,144.773745 127.956808,147.692308 C89.3345628,144.806493 62.5464956,139.046769 47.5926065,130.413137 C32.6387174,121.779505 16.7916877,102.923844 0.0515175777,73.8461538 L127.956808,-5.68434189e-14 Z" id="Polygon-Copy" fill="#FFFFFF"></path>
                            <path d="M127.956808,147.692308 C155.228587,176.244367 168.864476,199.294902 168.864476,216.843914 C168.864476,234.392925 155.228587,260.573159 127.956808,295.384615 L0.0515175777,221.538462 L0.0515175777,73.8461538 L127.956808,147.692308 Z" id="Polygon-Copy-3" fill="#D7FC70"></path>
                            <polygon id="Polygon-Copy-2" fill="#8B8685" points="255.862098 73.8461538 255.862098 221.538462 127.956808 295.384615 127.956808 147.692308"></polygon>
                        </g>
                    </g>
                    <g id="box" transform="translate(2432.000000, 220.000000)">
                        <g>
                            <path d="M127.956808,-5.68434189e-14 L255.862098,73.8461538 C236.985999,102.956592 220.099365,121.812253 205.202197,130.413137 C190.305028,139.014021 164.556565,144.773745 127.956808,147.692308 C89.3345628,144.806493 62.5464956,139.046769 47.5926065,130.413137 C32.6387174,121.779505 16.7916877,102.923844 0.0515175777,73.8461538 L127.956808,-5.68434189e-14 Z" id="Polygon-Copy" fill="#FFFFFF"></path>
                            <path d="M127.956808,147.692308 C155.228587,176.244367 168.864476,199.294902 168.864476,216.843914 C168.864476,234.392925 155.228587,260.573159 127.956808,295.384615 L0.0515175777,221.538462 L0.0515175777,73.8461538 L127.956808,147.692308 Z" id="Polygon-Copy-3" fill="#D7FC70"></path>
                            <polygon id="Polygon-Copy-2" fill="#8B8685" points="255.862098 73.8461538 255.862098 221.538462 127.956808 295.384615 127.956808 147.692308"></polygon>
                        </g>
                    </g>
                    <g id="box2" transform="translate(256.000000, 0.000000)">
                        <g id="box-copy">
                            <path d="M127.956808,-5.68434189e-14 L255.862098,73.8461538 C236.985999,102.956592 220.099365,121.812253 205.202197,130.413137 C190.305028,139.014021 164.556565,144.773745 127.956808,147.692308 C89.3345628,144.806493 62.5464956,139.046769 47.5926065,130.413137 C32.6387174,121.779505 16.7916877,102.923844 0.0515175777,73.8461538 L127.956808,-5.68434189e-14 Z" id="Polygon-Copy" fill="#D7FC70"></path>
                            <path d="M127.956808,147.692308 C155.228587,176.244367 168.864476,199.294902 168.864476,216.843914 C168.864476,234.392925 155.228587,260.573159 127.956808,295.384615 L0.0515175777,221.538462 L0.0515175777,73.8461538 L127.956808,147.692308 Z" id="Polygon-Copy-3" fill="#FFFFFF"></path>
                            <polygon id="Polygon-Copy-2" fill="#8B8685" points="255.862098 73.8461538 255.862098 221.538462 127.956808 295.384615 127.956808 147.692308"></polygon>
                        </g>
                    </g>
                    <g id="box2" transform="translate(128.000000, 220.000000)">
                        <g id="box-copy">
                            <path d="M127.956808,-5.68434189e-14 L255.862098,73.8461538 C236.985999,102.956592 220.099365,121.812253 205.202197,130.413137 C190.305028,139.014021 164.556565,144.773745 127.956808,147.692308 C89.3345628,144.806493 62.5464956,139.046769 47.5926065,130.413137 C32.6387174,121.779505 16.7916877,102.923844 0.0515175777,73.8461538 L127.956808,-5.68434189e-14 Z" id="Polygon-Copy" fill="#D7FC70"></path>
                            <path d="M127.956808,147.692308 C155.228587,176.244367 168.864476,199.294902 168.864476,216.843914 C168.864476,234.392925 155.228587,260.573159 127.956808,295.384615 L0.0515175777,221.538462 L0.0515175777,73.8461538 L127.956808,147.692308 Z" id="Polygon-Copy-3" fill="#FFFFFF"></path>
                            <polygon id="Polygon-Copy-2" fill="#8B8685" points="255.862098 73.8461538 255.862098 221.538462 127.956808 295.384615 127.956808 147.692308"></polygon>
                        </g>
                    </g>
                    <g id="box2" transform="translate(768.000000, 0.000000)">
                        <g id="box-copy">
                            <path d="M127.956808,-5.68434189e-14 L255.862098,73.8461538 C236.985999,102.956592 220.099365,121.812253 205.202197,130.413137 C190.305028,139.014021 164.556565,144.773745 127.956808,147.692308 C89.3345628,144.806493 62.5464956,139.046769 47.5926065,130.413137 C32.6387174,121.779505 16.7916877,102.923844 0.0515175777,73.8461538 L127.956808,-5.68434189e-14 Z" id="Polygon-Copy" fill="#D7FC70"></path>
                            <path d="M127.956808,147.692308 C155.228587,176.244367 168.864476,199.294902 168.864476,216.843914 C168.864476,234.392925 155.228587,260.573159 127.956808,295.384615 L0.0515175777,221.538462 L0.0515175777,73.8461538 L127.956808,147.692308 Z" id="Polygon-Copy-3" fill="#FFFFFF"></path>
                            <polygon id="Polygon-Copy-2" fill="#8B8685" points="255.862098 73.8461538 255.862098 221.538462 127.956808 295.384615 127.956808 147.692308"></polygon>
                        </g>
                    </g>
                    <g id="box2" transform="translate(640.000000, 220.000000)">
                        <g id="box-copy">
                            <path d="M127.956808,-5.68434189e-14 L255.862098,73.8461538 C236.985999,102.956592 220.099365,121.812253 205.202197,130.413137 C190.305028,139.014021 164.556565,144.773745 127.956808,147.692308 C89.3345628,144.806493 62.5464956,139.046769 47.5926065,130.413137 C32.6387174,121.779505 16.7916877,102.923844 0.0515175777,73.8461538 L127.956808,-5.68434189e-14 Z" id="Polygon-Copy" fill="#D7FC70"></path>
                            <path d="M127.956808,147.692308 C155.228587,176.244367 168.864476,199.294902 168.864476,216.843914 C168.864476,234.392925 155.228587,260.573159 127.956808,295.384615 L0.0515175777,221.538462 L0.0515175777,73.8461538 L127.956808,147.692308 Z" id="Polygon-Copy-3" fill="#FFFFFF"></path>
                            <polygon id="Polygon-Copy-2" fill="#8B8685" points="255.862098 73.8461538 255.862098 221.538462 127.956808 295.384615 127.956808 147.692308"></polygon>
                        </g>
                    </g>
                    <g id="box2" transform="translate(1280.000000, 0.000000)">
                        <g id="box-copy">
                            <path d="M127.956808,-5.68434189e-14 L255.862098,73.8461538 C236.985999,102.956592 220.099365,121.812253 205.202197,130.413137 C190.305028,139.014021 164.556565,144.773745 127.956808,147.692308 C89.3345628,144.806493 62.5464956,139.046769 47.5926065,130.413137 C32.6387174,121.779505 16.7916877,102.923844 0.0515175777,73.8461538 L127.956808,-5.68434189e-14 Z" id="Polygon-Copy" fill="#D7FC70"></path>
                            <path d="M127.956808,147.692308 C155.228587,176.244367 168.864476,199.294902 168.864476,216.843914 C168.864476,234.392925 155.228587,260.573159 127.956808,295.384615 L0.0515175777,221.538462 L0.0515175777,73.8461538 L127.956808,147.692308 Z" id="Polygon-Copy-3" fill="#FFFFFF"></path>
                            <polygon id="Polygon-Copy-2" fill="#8B8685" points="255.862098 73.8461538 255.862098 221.538462 127.956808 295.384615 127.956808 147.692308"></polygon>
                        </g>
                    </g>
                    <g id="box2" transform="translate(1792.000000, 0.000000)">
                        <g id="box-copy">
                            <path d="M127.956808,-5.68434189e-14 L255.862098,73.8461538 C236.985999,102.956592 220.099365,121.812253 205.202197,130.413137 C190.305028,139.014021 164.556565,144.773745 127.956808,147.692308 C89.3345628,144.806493 62.5464956,139.046769 47.5926065,130.413137 C32.6387174,121.779505 16.7916877,102.923844 0.0515175777,73.8461538 L127.956808,-5.68434189e-14 Z" id="Polygon-Copy" fill="#D7FC70"></path>
                            <path d="M127.956808,147.692308 C155.228587,176.244367 168.864476,199.294902 168.864476,216.843914 C168.864476,234.392925 155.228587,260.573159 127.956808,295.384615 L0.0515175777,221.538462 L0.0515175777,73.8461538 L127.956808,147.692308 Z" id="Polygon-Copy-3" fill="#FFFFFF"></path>
                            <polygon id="Polygon-Copy-2" fill="#8B8685" points="255.862098 73.8461538 255.862098 221.538462 127.956808 295.384615 127.956808 147.692308"></polygon>
                        </g>
                    </g>
                    <g id="box2" transform="translate(2304.000000, 0.000000)">
                        <g id="box-copy">
                            <path d="M127.956808,-5.68434189e-14 L255.862098,73.8461538 C236.985999,102.956592 220.099365,121.812253 205.202197,130.413137 C190.305028,139.014021 164.556565,144.773745 127.956808,147.692308 C89.3345628,144.806493 62.5464956,139.046769 47.5926065,130.413137 C32.6387174,121.779505 16.7916877,102.923844 0.0515175777,73.8461538 L127.956808,-5.68434189e-14 Z" id="Polygon-Copy" fill="#D7FC70"></path>
                            <path d="M127.956808,147.692308 C155.228587,176.244367 168.864476,199.294902 168.864476,216.843914 C168.864476,234.392925 155.228587,260.573159 127.956808,295.384615 L0.0515175777,221.538462 L0.0515175777,73.8461538 L127.956808,147.692308 Z" id="Polygon-Copy-3" fill="#FFFFFF"></path>
                            <polygon id="Polygon-Copy-2" fill="#8B8685" points="255.862098 73.8461538 255.862098 221.538462 127.956808 295.384615 127.956808 147.692308"></polygon>
                        </g>
                    </g>
                    <g id="box2" transform="translate(1152.000000, 220.000000)">
                        <g id="box-copy">
                            <path d="M127.956808,-5.68434189e-14 L255.862098,73.8461538 C236.985999,102.956592 220.099365,121.812253 205.202197,130.413137 C190.305028,139.014021 164.556565,144.773745 127.956808,147.692308 C89.3345628,144.806493 62.5464956,139.046769 47.5926065,130.413137 C32.6387174,121.779505 16.7916877,102.923844 0.0515175777,73.8461538 L127.956808,-5.68434189e-14 Z" id="Polygon-Copy" fill="#D7FC70"></path>
                            <path d="M127.956808,147.692308 C155.228587,176.244367 168.864476,199.294902 168.864476,216.843914 C168.864476,234.392925 155.228587,260.573159 127.956808,295.384615 L0.0515175777,221.538462 L0.0515175777,73.8461538 L127.956808,147.692308 Z" id="Polygon-Copy-3" fill="#FFFFFF"></path>
                            <polygon id="Polygon-Copy-2" fill="#8B8685" points="255.862098 73.8461538 255.862098 221.538462 127.956808 295.384615 127.956808 147.692308"></polygon>
                        </g>
                    </g>
                    <g id="box2" transform="translate(1664.000000, 220.000000)">
                        <g id="box-copy">
                            <path d="M127.956808,-5.68434189e-14 L255.862098,73.8461538 C236.985999,102.956592 220.099365,121.812253 205.202197,130.413137 C190.305028,139.014021 164.556565,144.773745 127.956808,147.692308 C89.3345628,144.806493 62.5464956,139.046769 47.5926065,130.413137 C32.6387174,121.779505 16.7916877,102.923844 0.0515175777,73.8461538 L127.956808,-5.68434189e-14 Z" id="Polygon-Copy" fill="#D7FC70"></path>
                            <path d="M127.956808,147.692308 C155.228587,176.244367 168.864476,199.294902 168.864476,216.843914 C168.864476,234.392925 155.228587,260.573159 127.956808,295.384615 L0.0515175777,221.538462 L0.0515175777,73.8461538 L127.956808,147.692308 Z" id="Polygon-Copy-3" fill="#FFFFFF"></path>
                            <polygon id="Polygon-Copy-2" fill="#8B8685" points="255.862098 73.8461538 255.862098 221.538462 127.956808 295.384615 127.956808 147.692308"></polygon>
                        </g>
                    </g>
                    <g id="box2" transform="translate(2176.000000, 220.000000)">
                        <g id="box-copy">
                            <path d="M127.956808,-5.68434189e-14 L255.862098,73.8461538 C236.985999,102.956592 220.099365,121.812253 205.202197,130.413137 C190.305028,139.014021 164.556565,144.773745 127.956808,147.692308 C89.3345628,144.806493 62.5464956,139.046769 47.5926065,130.413137 C32.6387174,121.779505 16.7916877,102.923844 0.0515175777,73.8461538 L127.956808,-5.68434189e-14 Z" id="Polygon-Copy" fill="#D7FC70"></path>
                            <path d="M127.956808,147.692308 C155.228587,176.244367 168.864476,199.294902 168.864476,216.843914 C168.864476,234.392925 155.228587,260.573159 127.956808,295.384615 L0.0515175777,221.538462 L0.0515175777,73.8461538 L127.956808,147.692308 Z" id="Polygon-Copy-3" fill="#FFFFFF"></path>
                            <polygon id="Polygon-Copy-2" fill="#8B8685" points="255.862098 73.8461538 255.862098 221.538462 127.956808 295.384615 127.956808 147.692308"></polygon>
                        </g>
                    </g>
                    <g id="box2" transform="translate(2688.000000, 220.000000)">
                        <g id="box-copy">
                            <path d="M127.956808,-5.68434189e-14 L255.862098,73.8461538 C236.985999,102.956592 220.099365,121.812253 205.202197,130.413137 C190.305028,139.014021 164.556565,144.773745 127.956808,147.692308 C89.3345628,144.806493 62.5464956,139.046769 47.5926065,130.413137 C32.6387174,121.779505 16.7916877,102.923844 0.0515175777,73.8461538 L127.956808,-5.68434189e-14 Z" id="Polygon-Copy" fill="#D7FC70"></path>
                            <path d="M127.956808,147.692308 C155.228587,176.244367 168.864476,199.294902 168.864476,216.843914 C168.864476,234.392925 155.228587,260.573159 127.956808,295.384615 L0.0515175777,221.538462 L0.0515175777,73.8461538 L127.956808,147.692308 Z" id="Polygon-Copy-3" fill="#FFFFFF"></path>
                            <polygon id="Polygon-Copy-2" fill="#8B8685" points="255.862098 73.8461538 255.862098 221.538462 127.956808 295.384615 127.956808 147.692308"></polygon>
                        </g>
                    </g>
                </g>
            </g>
            <g id="row" transform="translate(256.000000, 880.000000)">
                <g transform="translate(0.422712, 0.000000)">
                    <g id="box">
                        <g>
                            <path d="M127.956808,-5.68434189e-14 L255.862098,73.8461538 C236.985999,102.956592 220.099365,121.812253 205.202197,130.413137 C190.305028,139.014021 164.556565,144.773745 127.956808,147.692308 C89.3345628,144.806493 62.5464956,139.046769 47.5926065,130.413137 C32.6387174,121.779505 16.7916877,102.923844 0.0515175777,73.8461538 L127.956808,-5.68434189e-14 Z" id="Polygon-Copy" fill="#FFFFFF"></path>
                            <path d="M127.956808,147.692308 C155.228587,176.244367 168.864476,199.294902 168.864476,216.843914 C168.864476,234.392925 155.228587,260.573159 127.956808,295.384615 L0.0515175777,221.538462 L0.0515175777,73.8461538 L127.956808,147.692308 Z" id="Polygon-Copy-3" fill="#D7FC70"></path>
                            <polygon id="Polygon-Copy-2" fill="#8B8685" points="255.862098 73.8461538 255.862098 221.538462 127.956808 295.384615 127.956808 147.692308"></polygon>
                        </g>
                    </g>
                    <g id="box" transform="translate(362.000000, 220.000000)">
                        <g>
                            <path d="M127.956808,-5.68434189e-14 L255.862098,73.8461538 C236.985999,102.956592 220.099365,121.812253 205.202197,130.413137 C190.305028,139.014021 164.556565,144.773745 127.956808,147.692308 C89.3345628,144.806493 62.5464956,139.046769 47.5926065,130.413137 C32.6387174,121.779505 16.7916877,102.923844 0.0515175777,73.8461538 L127.956808,-5.68434189e-14 Z" id="Polygon-Copy" fill="#FFFFFF"></path>
                            <path d="M127.956808,147.692308 C155.228587,176.244367 168.864476,199.294902 168.864476,216.843914 C168.864476,234.392925 155.228587,260.573159 127.956808,295.384615 L0.0515175777,221.538462 L0.0515175777,73.8461538 L127.956808,147.692308 Z" id="Polygon-Copy-3" fill="#D7FC70"></path>
                            <polygon id="Polygon-Copy-2" fill="#8B8685" points="255.862098 73.8461538 255.862098 221.538462 127.956808 295.384615 127.956808 147.692308"></polygon>
                        </g>
                    </g>
                    <g id="box" transform="translate(512.000000, 0.000000)">
                        <g>
                            <path d="M127.956808,-5.68434189e-14 L255.862098,73.8461538 C236.985999,102.956592 220.099365,121.812253 205.202197,130.413137 C190.305028,139.014021 164.556565,144.773745 127.956808,147.692308 C89.3345628,144.806493 62.5464956,139.046769 47.5926065,130.413137 C32.6387174,121.779505 16.7916877,102.923844 0.0515175777,73.8461538 L127.956808,-5.68434189e-14 Z" id="Polygon-Copy" fill="#FFFFFF"></path>
                            <path d="M127.956808,147.692308 C155.228587,176.244367 168.864476,199.294902 168.864476,216.843914 C168.864476,234.392925 155.228587,260.573159 127.956808,295.384615 L0.0515175777,221.538462 L0.0515175777,73.8461538 L127.956808,147.692308 Z" id="Polygon-Copy-3" fill="#D7FC70"></path>
                            <polygon id="Polygon-Copy-2" fill="#8B8685" points="255.862098 73.8461538 255.862098 221.538462 127.956808 295.384615 127.956808 147.692308"></polygon>
                        </g>
                    </g>
                    <g id="box" transform="translate(384.000000, 220.000000)">
                        <g>
                            <path d="M127.956808,-5.68434189e-14 L255.862098,73.8461538 C236.985999,102.956592 220.099365,121.812253 205.202197,130.413137 C190.305028,139.014021 164.556565,144.773745 127.956808,147.692308 C89.3345628,144.806493 62.5464956,139.046769 47.5926065,130.413137 C32.6387174,121.779505 16.7916877,102.923844 0.0515175777,73.8461538 L127.956808,-5.68434189e-14 Z" id="Polygon-Copy" fill="#FFFFFF"></path>
                            <path d="M127.956808,147.692308 C155.228587,176.244367 168.864476,199.294902 168.864476,216.843914 C168.864476,234.392925 155.228587,260.573159 127.956808,295.384615 L0.0515175777,221.538462 L0.0515175777,73.8461538 L127.956808,147.692308 Z" id="Polygon-Copy-3" fill="#D7FC70"></path>
                            <polygon id="Polygon-Copy-2" fill="#8B8685" points="255.862098 73.8461538 255.862098 221.538462 127.956808 295.384615 127.956808 147.692308"></polygon>
                        </g>
                    </g>
                    <g id="box" transform="translate(1024.000000, 0.000000)">
                        <g>
                            <path d="M127.956808,-5.68434189e-14 L255.862098,73.8461538 C236.985999,102.956592 220.099365,121.812253 205.202197,130.413137 C190.305028,139.014021 164.556565,144.773745 127.956808,147.692308 C89.3345628,144.806493 62.5464956,139.046769 47.5926065,130.413137 C32.6387174,121.779505 16.7916877,102.923844 0.0515175777,73.8461538 L127.956808,-5.68434189e-14 Z" id="Polygon-Copy" fill="#FFFFFF"></path>
                            <path d="M127.956808,147.692308 C155.228587,176.244367 168.864476,199.294902 168.864476,216.843914 C168.864476,234.392925 155.228587,260.573159 127.956808,295.384615 L0.0515175777,221.538462 L0.0515175777,73.8461538 L127.956808,147.692308 Z" id="Polygon-Copy-3" fill="#D7FC70"></path>
                            <polygon id="Polygon-Copy-2" fill="#8B8685" points="255.862098 73.8461538 255.862098 221.538462 127.956808 295.384615 127.956808 147.692308"></polygon>
                        </g>
                    </g>
                    <g id="box" transform="translate(896.000000, 220.000000)">
                        <g>
                            <path d="M127.956808,-5.68434189e-14 L255.862098,73.8461538 C236.985999,102.956592 220.099365,121.812253 205.202197,130.413137 C190.305028,139.014021 164.556565,144.773745 127.956808,147.692308 C89.3345628,144.806493 62.5464956,139.046769 47.5926065,130.413137 C32.6387174,121.779505 16.7916877,102.923844 0.0515175777,73.8461538 L127.956808,-5.68434189e-14 Z" id="Polygon-Copy" fill="#FFFFFF"></path>
                            <path d="M127.956808,147.692308 C155.228587,176.244367 168.864476,199.294902 168.864476,216.843914 C168.864476,234.392925 155.228587,260.573159 127.956808,295.384615 L0.0515175777,221.538462 L0.0515175777,73.8461538 L127.956808,147.692308 Z" id="Polygon-Copy-3" fill="#D7FC70"></path>
                            <polygon id="Polygon-Copy-2" fill="#8B8685" points="255.862098 73.8461538 255.862098 221.538462 127.956808 295.384615 127.956808 147.692308"></polygon>
                        </g>
                    </g>
                    <g id="box" transform="translate(1536.000000, 0.000000)">
                        <g>
                            <path d="M127.956808,-5.68434189e-14 L255.862098,73.8461538 C236.985999,102.956592 220.099365,121.812253 205.202197,130.413137 C190.305028,139.014021 164.556565,144.773745 127.956808,147.692308 C89.3345628,144.806493 62.5464956,139.046769 47.5926065,130.413137 C32.6387174,121.779505 16.7916877,102.923844 0.0515175777,73.8461538 L127.956808,-5.68434189e-14 Z" id="Polygon-Copy" fill="#FFFFFF"></path>
                            <path d="M127.956808,147.692308 C155.228587,176.244367 168.864476,199.294902 168.864476,216.843914 C168.864476,234.392925 155.228587,260.573159 127.956808,295.384615 L0.0515175777,221.538462 L0.0515175777,73.8461538 L127.956808,147.692308 Z" id="Polygon-Copy-3" fill="#D7FC70"></path>
                            <polygon id="Polygon-Copy-2" fill="#8B8685" points="255.862098 73.8461538 255.862098 221.538462 127.956808 295.384615 127.956808 147.692308"></polygon>
                        </g>
                    </g>
                    <g id="box" transform="translate(2048.000000, 0.000000)">
                        <g>
                            <path d="M127.956808,-5.68434189e-14 L255.862098,73.8461538 C236.985999,102.956592 220.099365,121.812253 205.202197,130.413137 C190.305028,139.014021 164.556565,144.773745 127.956808,147.692308 C89.3345628,144.806493 62.5464956,139.046769 47.5926065,130.413137 C32.6387174,121.779505 16.7916877,102.923844 0.0515175777,73.8461538 L127.956808,-5.68434189e-14 Z" id="Polygon-Copy" fill="#FFFFFF"></path>
                            <path d="M127.956808,147.692308 C155.228587,176.244367 168.864476,199.294902 168.864476,216.843914 C168.864476,234.392925 155.228587,260.573159 127.956808,295.384615 L0.0515175777,221.538462 L0.0515175777,73.8461538 L127.956808,147.692308 Z" id="Polygon-Copy-3" fill="#D7FC70"></path>
                            <polygon id="Polygon-Copy-2" fill="#8B8685" points="255.862098 73.8461538 255.862098 221.538462 127.956808 295.384615 127.956808 147.692308"></polygon>
                        </g>
                    </g>
                    <g id="box" transform="translate(2560.000000, 0.000000)">
                        <g>
                            <path d="M127.956808,-5.68434189e-14 L255.862098,73.8461538 C236.985999,102.956592 220.099365,121.812253 205.202197,130.413137 C190.305028,139.014021 164.556565,144.773745 127.956808,147.692308 C89.3345628,144.806493 62.5464956,139.046769 47.5926065,130.413137 C32.6387174,121.779505 16.7916877,102.923844 0.0515175777,73.8461538 L127.956808,-5.68434189e-14 Z" id="Polygon-Copy" fill="#FFFFFF"></path>
                            <path d="M127.956808,147.692308 C155.228587,176.244367 168.864476,199.294902 168.864476,216.843914 C168.864476,234.392925 155.228587,260.573159 127.956808,295.384615 L0.0515175777,221.538462 L0.0515175777,73.8461538 L127.956808,147.692308 Z" id="Polygon-Copy-3" fill="#D7FC70"></path>
                            <polygon id="Polygon-Copy-2" fill="#8B8685" points="255.862098 73.8461538 255.862098 221.538462 127.956808 295.384615 127.956808 147.692308"></polygon>
                        </g>
                    </g>
                    <g id="box" transform="translate(1408.000000, 220.000000)">
                        <g>
                            <path d="M127.956808,-5.68434189e-14 L255.862098,73.8461538 C236.985999,102.956592 220.099365,121.812253 205.202197,130.413137 C190.305028,139.014021 164.556565,144.773745 127.956808,147.692308 C89.3345628,144.806493 62.5464956,139.046769 47.5926065,130.413137 C32.6387174,121.779505 16.7916877,102.923844 0.0515175777,73.8461538 L127.956808,-5.68434189e-14 Z" id="Polygon-Copy" fill="#FFFFFF"></path>
                            <path d="M127.956808,147.692308 C155.228587,176.244367 168.864476,199.294902 168.864476,216.843914 C168.864476,234.392925 155.228587,260.573159 127.956808,295.384615 L0.0515175777,221.538462 L0.0515175777,73.8461538 L127.956808,147.692308 Z" id="Polygon-Copy-3" fill="#D7FC70"></path>
                            <polygon id="Polygon-Copy-2" fill="#8B8685" points="255.862098 73.8461538 255.862098 221.538462 127.956808 295.384615 127.956808 147.692308"></polygon>
                        </g>
                    </g>
                    <g id="box" transform="translate(1920.000000, 220.000000)">
                        <g>
                            <path d="M127.956808,-5.68434189e-14 L255.862098,73.8461538 C236.985999,102.956592 220.099365,121.812253 205.202197,130.413137 C190.305028,139.014021 164.556565,144.773745 127.956808,147.692308 C89.3345628,144.806493 62.5464956,139.046769 47.5926065,130.413137 C32.6387174,121.779505 16.7916877,102.923844 0.0515175777,73.8461538 L127.956808,-5.68434189e-14 Z" id="Polygon-Copy" fill="#FFFFFF"></path>
                            <path d="M127.956808,147.692308 C155.228587,176.244367 168.864476,199.294902 168.864476,216.843914 C168.864476,234.392925 155.228587,260.573159 127.956808,295.384615 L0.0515175777,221.538462 L0.0515175777,73.8461538 L127.956808,147.692308 Z" id="Polygon-Copy-3" fill="#D7FC70"></path>
                            <polygon id="Polygon-Copy-2" fill="#8B8685" points="255.862098 73.8461538 255.862098 221.538462 127.956808 295.384615 127.956808 147.692308"></polygon>
                        </g>
                    </g>
                    <g id="box" transform="translate(2432.000000, 220.000000)">
                        <g>
                            <path d="M127.956808,-5.68434189e-14 L255.862098,73.8461538 C236.985999,102.956592 220.099365,121.812253 205.202197,130.413137 C190.305028,139.014021 164.556565,144.773745 127.956808,147.692308 C89.3345628,144.806493 62.5464956,139.046769 47.5926065,130.413137 C32.6387174,121.779505 16.7916877,102.923844 0.0515175777,73.8461538 L127.956808,-5.68434189e-14 Z" id="Polygon-Copy" fill="#FFFFFF"></path>
                            <path d="M127.956808,147.692308 C155.228587,176.244367 168.864476,199.294902 168.864476,216.843914 C168.864476,234.392925 155.228587,260.573159 127.956808,295.384615 L0.0515175777,221.538462 L0.0515175777,73.8461538 L127.956808,147.692308 Z" id="Polygon-Copy-3" fill="#D7FC70"></path>
                            <polygon id="Polygon-Copy-2" fill="#8B8685" points="255.862098 73.8461538 255.862098 221.538462 127.956808 295.384615 127.956808 147.692308"></polygon>
                        </g>
                    </g>
                    <g id="box2" transform="translate(256.000000, 0.000000)">
                        <g id="box-copy">
                            <path d="M127.956808,-5.68434189e-14 L255.862098,73.8461538 C236.985999,102.956592 220.099365,121.812253 205.202197,130.413137 C190.305028,139.014021 164.556565,144.773745 127.956808,147.692308 C89.3345628,144.806493 62.5464956,139.046769 47.5926065,130.413137 C32.6387174,121.779505 16.7916877,102.923844 0.0515175777,73.8461538 L127.956808,-5.68434189e-14 Z" id="Polygon-Copy" fill="#D7FC70"></path>
                            <path d="M127.956808,147.692308 C155.228587,176.244367 168.864476,199.294902 168.864476,216.843914 C168.864476,234.392925 155.228587,260.573159 127.956808,295.384615 L0.0515175777,221.538462 L0.0515175777,73.8461538 L127.956808,147.692308 Z" id="Polygon-Copy-3" fill="#FFFFFF"></path>
                            <polygon id="Polygon-Copy-2" fill="#8B8685" points="255.862098 73.8461538 255.862098 221.538462 127.956808 295.384615 127.956808 147.692308"></polygon>
                        </g>
                    </g>
                    <g id="box2" transform="translate(128.000000, 220.000000)">
                        <g id="box-copy">
                            <path d="M127.956808,-5.68434189e-14 L255.862098,73.8461538 C236.985999,102.956592 220.099365,121.812253 205.202197,130.413137 C190.305028,139.014021 164.556565,144.773745 127.956808,147.692308 C89.3345628,144.806493 62.5464956,139.046769 47.5926065,130.413137 C32.6387174,121.779505 16.7916877,102.923844 0.0515175777,73.8461538 L127.956808,-5.68434189e-14 Z" id="Polygon-Copy" fill="#D7FC70"></path>
                            <path d="M127.956808,147.692308 C155.228587,176.244367 168.864476,199.294902 168.864476,216.843914 C168.864476,234.392925 155.228587,260.573159 127.956808,295.384615 L0.0515175777,221.538462 L0.0515175777,73.8461538 L127.956808,147.692308 Z" id="Polygon-Copy-3" fill="#FFFFFF"></path>
                            <polygon id="Polygon-Copy-2" fill="#8B8685" points="255.862098 73.8461538 255.862098 221.538462 127.956808 295.384615 127.956808 147.692308"></polygon>
                        </g>
                    </g>
                    <g id="box2" transform="translate(768.000000, 0.000000)">
                        <g id="box-copy">
                            <path d="M127.956808,-5.68434189e-14 L255.862098,73.8461538 C236.985999,102.956592 220.099365,121.812253 205.202197,130.413137 C190.305028,139.014021 164.556565,144.773745 127.956808,147.692308 C89.3345628,144.806493 62.5464956,139.046769 47.5926065,130.413137 C32.6387174,121.779505 16.7916877,102.923844 0.0515175777,73.8461538 L127.956808,-5.68434189e-14 Z" id="Polygon-Copy" fill="#D7FC70"></path>
                            <path d="M127.956808,147.692308 C155.228587,176.244367 168.864476,199.294902 168.864476,216.843914 C168.864476,234.392925 155.228587,260.573159 127.956808,295.384615 L0.0515175777,221.538462 L0.0515175777,73.8461538 L127.956808,147.692308 Z" id="Polygon-Copy-3" fill="#FFFFFF"></path>
                            <polygon id="Polygon-Copy-2" fill="#8B8685" points="255.862098 73.8461538 255.862098 221.538462 127.956808 295.384615 127.956808 147.692308"></polygon>
                        </g>
                    </g>
                    <g id="box2" transform="translate(640.000000, 220.000000)">
                        <g id="box-copy">
                            <path d="M127.956808,-5.68434189e-14 L255.862098,73.8461538 C236.985999,102.956592 220.099365,121.812253 205.202197,130.413137 C190.305028,139.014021 164.556565,144.773745 127.956808,147.692308 C89.3345628,144.806493 62.5464956,139.046769 47.5926065,130.413137 C32.6387174,121.779505 16.7916877,102.923844 0.0515175777,73.8461538 L127.956808,-5.68434189e-14 Z" id="Polygon-Copy" fill="#D7FC70"></path>
                            <path d="M127.956808,147.692308 C155.228587,176.244367 168.864476,199.294902 168.864476,216.843914 C168.864476,234.392925 155.228587,260.573159 127.956808,295.384615 L0.0515175777,221.538462 L0.0515175777,73.8461538 L127.956808,147.692308 Z" id="Polygon-Copy-3" fill="#FFFFFF"></path>
                            <polygon id="Polygon-Copy-2" fill="#8B8685" points="255.862098 73.8461538 255.862098 221.538462 127.956808 295.384615 127.956808 147.692308"></polygon>
                        </g>
                    </g>
                    <g id="box2" transform="translate(1280.000000, 0.000000)">
                        <g id="box-copy">
                            <path d="M127.956808,-5.68434189e-14 L255.862098,73.8461538 C236.985999,102.956592 220.099365,121.812253 205.202197,130.413137 C190.305028,139.014021 164.556565,144.773745 127.956808,147.692308 C89.3345628,144.806493 62.5464956,139.046769 47.5926065,130.413137 C32.6387174,121.779505 16.7916877,102.923844 0.0515175777,73.8461538 L127.956808,-5.68434189e-14 Z" id="Polygon-Copy" fill="#D7FC70"></path>
                            <path d="M127.956808,147.692308 C155.228587,176.244367 168.864476,199.294902 168.864476,216.843914 C168.864476,234.392925 155.228587,260.573159 127.956808,295.384615 L0.0515175777,221.538462 L0.0515175777,73.8461538 L127.956808,147.692308 Z" id="Polygon-Copy-3" fill="#FFFFFF"></path>
                            <polygon id="Polygon-Copy-2" fill="#8B8685" points="255.862098 73.8461538 255.862098 221.538462 127.956808 295.384615 127.956808 147.692308"></polygon>
                        </g>
                    </g>
                    <g id="box2" transform="translate(1792.000000, 0.000000)">
                        <g id="box-copy">
                            <path d="M127.956808,-5.68434189e-14 L255.862098,73.8461538 C236.985999,102.956592 220.099365,121.812253 205.202197,130.413137 C190.305028,139.014021 164.556565,144.773745 127.956808,147.692308 C89.3345628,144.806493 62.5464956,139.046769 47.5926065,130.413137 C32.6387174,121.779505 16.7916877,102.923844 0.0515175777,73.8461538 L127.956808,-5.68434189e-14 Z" id="Polygon-Copy" fill="#D7FC70"></path>
                            <path d="M127.956808,147.692308 C155.228587,176.244367 168.864476,199.294902 168.864476,216.843914 C168.864476,234.392925 155.228587,260.573159 127.956808,295.384615 L0.0515175777,221.538462 L0.0515175777,73.8461538 L127.956808,147.692308 Z" id="Polygon-Copy-3" fill="#FFFFFF"></path>
                            <polygon id="Polygon-Copy-2" fill="#8B8685" points="255.862098 73.8461538 255.862098 221.538462 127.956808 295.384615 127.956808 147.692308"></polygon>
                        </g>
                    </g>
                    <g id="box2" transform="translate(2304.000000, 0.000000)">
                        <g id="box-copy">
                            <path d="M127.956808,-5.68434189e-14 L255.862098,73.8461538 C236.985999,102.956592 220.099365,121.812253 205.202197,130.413137 C190.305028,139.014021 164.556565,144.773745 127.956808,147.692308 C89.3345628,144.806493 62.5464956,139.046769 47.5926065,130.413137 C32.6387174,121.779505 16.7916877,102.923844 0.0515175777,73.8461538 L127.956808,-5.68434189e-14 Z" id="Polygon-Copy" fill="#D7FC70"></path>
                            <path d="M127.956808,147.692308 C155.228587,176.244367 168.864476,199.294902 168.864476,216.843914 C168.864476,234.392925 155.228587,260.573159 127.956808,295.384615 L0.0515175777,221.538462 L0.0515175777,73.8461538 L127.956808,147.692308 Z" id="Polygon-Copy-3" fill="#FFFFFF"></path>
                            <polygon id="Polygon-Copy-2" fill="#8B8685" points="255.862098 73.8461538 255.862098 221.538462 127.956808 295.384615 127.956808 147.692308"></polygon>
                        </g>
                    </g>
                    <g id="box2" transform="translate(1152.000000, 220.000000)">
                        <g id="box-copy">
                            <path d="M127.956808,-5.68434189e-14 L255.862098,73.8461538 C236.985999,102.956592 220.099365,121.812253 205.202197,130.413137 C190.305028,139.014021 164.556565,144.773745 127.956808,147.692308 C89.3345628,144.806493 62.5464956,139.046769 47.5926065,130.413137 C32.6387174,121.779505 16.7916877,102.923844 0.0515175777,73.8461538 L127.956808,-5.68434189e-14 Z" id="Polygon-Copy" fill="#D7FC70"></path>
                            <path d="M127.956808,147.692308 C155.228587,176.244367 168.864476,199.294902 168.864476,216.843914 C168.864476,234.392925 155.228587,260.573159 127.956808,295.384615 L0.0515175777,221.538462 L0.0515175777,73.8461538 L127.956808,147.692308 Z" id="Polygon-Copy-3" fill="#FFFFFF"></path>
                            <polygon id="Polygon-Copy-2" fill="#8B8685" points="255.862098 73.8461538 255.862098 221.538462 127.956808 295.384615 127.956808 147.692308"></polygon>
                        </g>
                    </g>
                    <g id="box2" transform="translate(1664.000000, 220.000000)">
                        <g id="box-copy">
                            <path d="M127.956808,-5.68434189e-14 L255.862098,73.8461538 C236.985999,102.956592 220.099365,121.812253 205.202197,130.413137 C190.305028,139.014021 164.556565,144.773745 127.956808,147.692308 C89.3345628,144.806493 62.5464956,139.046769 47.5926065,130.413137 C32.6387174,121.779505 16.7916877,102.923844 0.0515175777,73.8461538 L127.956808,-5.68434189e-14 Z" id="Polygon-Copy" fill="#D7FC70"></path>
                            <path d="M127.956808,147.692308 C155.228587,176.244367 168.864476,199.294902 168.864476,216.843914 C168.864476,234.392925 155.228587,260.573159 127.956808,295.384615 L0.0515175777,221.538462 L0.0515175777,73.8461538 L127.956808,147.692308 Z" id="Polygon-Copy-3" fill="#FFFFFF"></path>
                            <polygon id="Polygon-Copy-2" fill="#8B8685" points="255.862098 73.8461538 255.862098 221.538462 127.956808 295.384615 127.956808 147.692308"></polygon>
                        </g>
                    </g>
                    <g id="box2" transform="translate(2176.000000, 220.000000)">
                        <g id="box-copy">
                            <path d="M127.956808,-5.68434189e-14 L255.862098,73.8461538 C236.985999,102.956592 220.099365,121.812253 205.202197,130.413137 C190.305028,139.014021 164.556565,144.773745 127.956808,147.692308 C89.3345628,144.806493 62.5464956,139.046769 47.5926065,130.413137 C32.6387174,121.779505 16.7916877,102.923844 0.0515175777,73.8461538 L127.956808,-5.68434189e-14 Z" id="Polygon-Copy" fill="#D7FC70"></path>
                            <path d="M127.956808,147.692308 C155.228587,176.244367 168.864476,199.294902 168.864476,216.843914 C168.864476,234.392925 155.228587,260.573159 127.956808,295.384615 L0.0515175777,221.538462 L0.0515175777,73.8461538 L127.956808,147.692308 Z" id="Polygon-Copy-3" fill="#FFFFFF"></path>
                            <polygon id="Polygon-Copy-2" fill="#8B8685" points="255.862098 73.8461538 255.862098 221.538462 127.956808 295.384615 127.956808 147.692308"></polygon>
                        </g>
                    </g>
                    <g id="box2" transform="translate(2688.000000, 220.000000)">
                        <g id="box-copy">
                            <path d="M127.956808,-5.68434189e-14 L255.862098,73.8461538 C236.985999,102.956592 220.099365,121.812253 205.202197,130.413137 C190.305028,139.014021 164.556565,144.773745 127.956808,147.692308 C89.3345628,144.806493 62.5464956,139.046769 47.5926065,130.413137 C32.6387174,121.779505 16.7916877,102.923844 0.0515175777,73.8461538 L127.956808,-5.68434189e-14 Z" id="Polygon-Copy" fill="#D7FC70"></path>
                            <path d="M127.956808,147.692308 C155.228587,176.244367 168.864476,199.294902 168.864476,216.843914 C168.864476,234.392925 155.228587,260.573159 127.956808,295.384615 L0.0515175777,221.538462 L0.0515175777,73.8461538 L127.956808,147.692308 Z" id="Polygon-Copy-3" fill="#FFFFFF"></path>
                            <polygon id="Polygon-Copy-2" fill="#8B8685" points="255.862098 73.8461538 255.862098 221.538462 127.956808 295.384615 127.956808 147.692308"></polygon>
                        </g>
                    </g>
                </g>
            </g>
            <g id="row" transform="translate(0.000000, 440.000000)">
                <g transform="translate(0.422712, 0.000000)">
                    <g id="box">
                        <g>
                            <path d="M127.956808,-5.68434189e-14 L255.862098,73.8461538 C236.985999,102.956592 220.099365,121.812253 205.202197,130.413137 C190.305028,139.014021 164.556565,144.773745 127.956808,147.692308 C89.3345628,144.806493 62.5464956,139.046769 47.5926065,130.413137 C32.6387174,121.779505 16.7916877,102.923844 0.0515175777,73.8461538 L127.956808,-5.68434189e-14 Z" id="Polygon-Copy" fill="#FFFFFF"></path>
                            <path d="M127.956808,147.692308 C155.228587,176.244367 168.864476,199.294902 168.864476,216.843914 C168.864476,234.392925 155.228587,260.573159 127.956808,295.384615 L0.0515175777,221.538462 L0.0515175777,73.8461538 L127.956808,147.692308 Z" id="Polygon-Copy-3" fill="#D7FC70"></path>
                            <polygon id="Polygon-Copy-2" fill="#8B8685" points="255.862098 73.8461538 255.862098 221.538462 127.956808 295.384615 127.956808 147.692308"></polygon>
                        </g>
                    </g>
                    <g id="box" transform="translate(362.000000, 220.000000)">
                        <g>
                            <path d="M127.956808,-5.68434189e-14 L255.862098,73.8461538 C236.985999,102.956592 220.099365,121.812253 205.202197,130.413137 C190.305028,139.014021 164.556565,144.773745 127.956808,147.692308 C89.3345628,144.806493 62.5464956,139.046769 47.5926065,130.413137 C32.6387174,121.779505 16.7916877,102.923844 0.0515175777,73.8461538 L127.956808,-5.68434189e-14 Z" id="Polygon-Copy" fill="#FFFFFF"></path>
                            <path d="M127.956808,147.692308 C155.228587,176.244367 168.864476,199.294902 168.864476,216.843914 C168.864476,234.392925 155.228587,260.573159 127.956808,295.384615 L0.0515175777,221.538462 L0.0515175777,73.8461538 L127.956808,147.692308 Z" id="Polygon-Copy-3" fill="#D7FC70"></path>
                            <polygon id="Polygon-Copy-2" fill="#8B8685" points="255.862098 73.8461538 255.862098 221.538462 127.956808 295.384615 127.956808 147.692308"></polygon>
                        </g>
                    </g>
                    <g id="box" transform="translate(512.000000, 0.000000)">
                        <g>
                            <path d="M127.956808,-5.68434189e-14 L255.862098,73.8461538 C236.985999,102.956592 220.099365,121.812253 205.202197,130.413137 C190.305028,139.014021 164.556565,144.773745 127.956808,147.692308 C89.3345628,144.806493 62.5464956,139.046769 47.5926065,130.413137 C32.6387174,121.779505 16.7916877,102.923844 0.0515175777,73.8461538 L127.956808,-5.68434189e-14 Z" id="Polygon-Copy" fill="#FFFFFF"></path>
                            <path d="M127.956808,147.692308 C155.228587,176.244367 168.864476,199.294902 168.864476,216.843914 C168.864476,234.392925 155.228587,260.573159 127.956808,295.384615 L0.0515175777,221.538462 L0.0515175777,73.8461538 L127.956808,147.692308 Z" id="Polygon-Copy-3" fill="#D7FC70"></path>
                            <polygon id="Polygon-Copy-2" fill="#8B8685" points="255.862098 73.8461538 255.862098 221.538462 127.956808 295.384615 127.956808 147.692308"></polygon>
                        </g>
                    </g>
                    <g id="box" transform="translate(384.000000, 220.000000)">
                        <g>
                            <path d="M127.956808,-5.68434189e-14 L255.862098,73.8461538 C236.985999,102.956592 220.099365,121.812253 205.202197,130.413137 C190.305028,139.014021 164.556565,144.773745 127.956808,147.692308 C89.3345628,144.806493 62.5464956,139.046769 47.5926065,130.413137 C32.6387174,121.779505 16.7916877,102.923844 0.0515175777,73.8461538 L127.956808,-5.68434189e-14 Z" id="Polygon-Copy" fill="#FFFFFF"></path>
                            <path d="M127.956808,147.692308 C155.228587,176.244367 168.864476,199.294902 168.864476,216.843914 C168.864476,234.392925 155.228587,260.573159 127.956808,295.384615 L0.0515175777,221.538462 L0.0515175777,73.8461538 L127.956808,147.692308 Z" id="Polygon-Copy-3" fill="#D7FC70"></path>
                            <polygon id="Polygon-Copy-2" fill="#8B8685" points="255.862098 73.8461538 255.862098 221.538462 127.956808 295.384615 127.956808 147.692308"></polygon>
                        </g>
                    </g>
                    <g id="box" transform="translate(1024.000000, 0.000000)">
                        <g>
                            <path d="M127.956808,-5.68434189e-14 L255.862098,73.8461538 C236.985999,102.956592 220.099365,121.812253 205.202197,130.413137 C190.305028,139.014021 164.556565,144.773745 127.956808,147.692308 C89.3345628,144.806493 62.5464956,139.046769 47.5926065,130.413137 C32.6387174,121.779505 16.7916877,102.923844 0.0515175777,73.8461538 L127.956808,-5.68434189e-14 Z" id="Polygon-Copy" fill="#FFFFFF"></path>
                            <path d="M127.956808,147.692308 C155.228587,176.244367 168.864476,199.294902 168.864476,216.843914 C168.864476,234.392925 155.228587,260.573159 127.956808,295.384615 L0.0515175777,221.538462 L0.0515175777,73.8461538 L127.956808,147.692308 Z" id="Polygon-Copy-3" fill="#D7FC70"></path>
                            <polygon id="Polygon-Copy-2" fill="#8B8685" points="255.862098 73.8461538 255.862098 221.538462 127.956808 295.384615 127.956808 147.692308"></polygon>
                        </g>
                    </g>
                    <g id="box" transform="translate(896.000000, 220.000000)">
                        <g>
                            <path d="M127.956808,-5.68434189e-14 L255.862098,73.8461538 C236.985999,102.956592 220.099365,121.812253 205.202197,130.413137 C190.305028,139.014021 164.556565,144.773745 127.956808,147.692308 C89.3345628,144.806493 62.5464956,139.046769 47.5926065,130.413137 C32.6387174,121.779505 16.7916877,102.923844 0.0515175777,73.8461538 L127.956808,-5.68434189e-14 Z" id="Polygon-Copy" fill="#FFFFFF"></path>
                            <path d="M127.956808,147.692308 C155.228587,176.244367 168.864476,199.294902 168.864476,216.843914 C168.864476,234.392925 155.228587,260.573159 127.956808,295.384615 L0.0515175777,221.538462 L0.0515175777,73.8461538 L127.956808,147.692308 Z" id="Polygon-Copy-3" fill="#D7FC70"></path>
                            <polygon id="Polygon-Copy-2" fill="#8B8685" points="255.862098 73.8461538 255.862098 221.538462 127.956808 295.384615 127.956808 147.692308"></polygon>
                        </g>
                    </g>
                    <g id="box" transform="translate(1536.000000, 0.000000)">
                        <g>
                            <path d="M127.956808,-5.68434189e-14 L255.862098,73.8461538 C236.985999,102.956592 220.099365,121.812253 205.202197,130.413137 C190.305028,139.014021 164.556565,144.773745 127.956808,147.692308 C89.3345628,144.806493 62.5464956,139.046769 47.5926065,130.413137 C32.6387174,121.779505 16.7916877,102.923844 0.0515175777,73.8461538 L127.956808,-5.68434189e-14 Z" id="Polygon-Copy" fill="#FFFFFF"></path>
                            <path d="M127.956808,147.692308 C155.228587,176.244367 168.864476,199.294902 168.864476,216.843914 C168.864476,234.392925 155.228587,260.573159 127.956808,295.384615 L0.0515175777,221.538462 L0.0515175777,73.8461538 L127.956808,147.692308 Z" id="Polygon-Copy-3" fill="#D7FC70"></path>
                            <polygon id="Polygon-Copy-2" fill="#8B8685" points="255.862098 73.8461538 255.862098 221.538462 127.956808 295.384615 127.956808 147.692308"></polygon>
                        </g>
                    </g>
                    <g id="box" transform="translate(2048.000000, 0.000000)">
                        <g>
                            <path d="M127.956808,-5.68434189e-14 L255.862098,73.8461538 C236.985999,102.956592 220.099365,121.812253 205.202197,130.413137 C190.305028,139.014021 164.556565,144.773745 127.956808,147.692308 C89.3345628,144.806493 62.5464956,139.046769 47.5926065,130.413137 C32.6387174,121.779505 16.7916877,102.923844 0.0515175777,73.8461538 L127.956808,-5.68434189e-14 Z" id="Polygon-Copy" fill="#FFFFFF"></path>
                            <path d="M127.956808,147.692308 C155.228587,176.244367 168.864476,199.294902 168.864476,216.843914 C168.864476,234.392925 155.228587,260.573159 127.956808,295.384615 L0.0515175777,221.538462 L0.0515175777,73.8461538 L127.956808,147.692308 Z" id="Polygon-Copy-3" fill="#D7FC70"></path>
                            <polygon id="Polygon-Copy-2" fill="#8B8685" points="255.862098 73.8461538 255.862098 221.538462 127.956808 295.384615 127.956808 147.692308"></polygon>
                        </g>
                    </g>
                    <g id="box" transform="translate(2560.000000, 0.000000)">
                        <g>
                            <path d="M127.956808,-5.68434189e-14 L255.862098,73.8461538 C236.985999,102.956592 220.099365,121.812253 205.202197,130.413137 C190.305028,139.014021 164.556565,144.773745 127.956808,147.692308 C89.3345628,144.806493 62.5464956,139.046769 47.5926065,130.413137 C32.6387174,121.779505 16.7916877,102.923844 0.0515175777,73.8461538 L127.956808,-5.68434189e-14 Z" id="Polygon-Copy" fill="#FFFFFF"></path>
                            <path d="M127.956808,147.692308 C155.228587,176.244367 168.864476,199.294902 168.864476,216.843914 C168.864476,234.392925 155.228587,260.573159 127.956808,295.384615 L0.0515175777,221.538462 L0.0515175777,73.8461538 L127.956808,147.692308 Z" id="Polygon-Copy-3" fill="#D7FC70"></path>
                            <polygon id="Polygon-Copy-2" fill="#8B8685" points="255.862098 73.8461538 255.862098 221.538462 127.956808 295.384615 127.956808 147.692308"></polygon>
                        </g>
                    </g>
                    <g id="box" transform="translate(1408.000000, 220.000000)">
                        <g>
                            <path d="M127.956808,-5.68434189e-14 L255.862098,73.8461538 C236.985999,102.956592 220.099365,121.812253 205.202197,130.413137 C190.305028,139.014021 164.556565,144.773745 127.956808,147.692308 C89.3345628,144.806493 62.5464956,139.046769 47.5926065,130.413137 C32.6387174,121.779505 16.7916877,102.923844 0.0515175777,73.8461538 L127.956808,-5.68434189e-14 Z" id="Polygon-Copy" fill="#FFFFFF"></path>
                            <path d="M127.956808,147.692308 C155.228587,176.244367 168.864476,199.294902 168.864476,216.843914 C168.864476,234.392925 155.228587,260.573159 127.956808,295.384615 L0.0515175777,221.538462 L0.0515175777,73.8461538 L127.956808,147.692308 Z" id="Polygon-Copy-3" fill="#D7FC70"></path>
                            <polygon id="Polygon-Copy-2" fill="#8B8685" points="255.862098 73.8461538 255.862098 221.538462 127.956808 295.384615 127.956808 147.692308"></polygon>
                        </g>
                    </g>
                    <g id="box" transform="translate(1920.000000, 220.000000)">
                        <g>
                            <path d="M127.956808,-5.68434189e-14 L255.862098,73.8461538 C236.985999,102.956592 220.099365,121.812253 205.202197,130.413137 C190.305028,139.014021 164.556565,144.773745 127.956808,147.692308 C89.3345628,144.806493 62.5464956,139.046769 47.5926065,130.413137 C32.6387174,121.779505 16.7916877,102.923844 0.0515175777,73.8461538 L127.956808,-5.68434189e-14 Z" id="Polygon-Copy" fill="#FFFFFF"></path>
                            <path d="M127.956808,147.692308 C155.228587,176.244367 168.864476,199.294902 168.864476,216.843914 C168.864476,234.392925 155.228587,260.573159 127.956808,295.384615 L0.0515175777,221.538462 L0.0515175777,73.8461538 L127.956808,147.692308 Z" id="Polygon-Copy-3" fill="#D7FC70"></path>
                            <polygon id="Polygon-Copy-2" fill="#8B8685" points="255.862098 73.8461538 255.862098 221.538462 127.956808 295.384615 127.956808 147.692308"></polygon>
                        </g>
                    </g>
                    <g id="box" transform="translate(2432.000000, 220.000000)">
                        <g>
                            <path d="M127.956808,-5.68434189e-14 L255.862098,73.8461538 C236.985999,102.956592 220.099365,121.812253 205.202197,130.413137 C190.305028,139.014021 164.556565,144.773745 127.956808,147.692308 C89.3345628,144.806493 62.5464956,139.046769 47.5926065,130.413137 C32.6387174,121.779505 16.7916877,102.923844 0.0515175777,73.8461538 L127.956808,-5.68434189e-14 Z" id="Polygon-Copy" fill="#FFFFFF"></path>
                            <path d="M127.956808,147.692308 C155.228587,176.244367 168.864476,199.294902 168.864476,216.843914 C168.864476,234.392925 155.228587,260.573159 127.956808,295.384615 L0.0515175777,221.538462 L0.0515175777,73.8461538 L127.956808,147.692308 Z" id="Polygon-Copy-3" fill="#D7FC70"></path>
                            <polygon id="Polygon-Copy-2" fill="#8B8685" points="255.862098 73.8461538 255.862098 221.538462 127.956808 295.384615 127.956808 147.692308"></polygon>
                        </g>
                    </g>
                    <g id="box2" transform="translate(256.000000, 0.000000)">
                        <g id="box-copy">
                            <path d="M127.956808,-5.68434189e-14 L255.862098,73.8461538 C236.985999,102.956592 220.099365,121.812253 205.202197,130.413137 C190.305028,139.014021 164.556565,144.773745 127.956808,147.692308 C89.3345628,144.806493 62.5464956,139.046769 47.5926065,130.413137 C32.6387174,121.779505 16.7916877,102.923844 0.0515175777,73.8461538 L127.956808,-5.68434189e-14 Z" id="Polygon-Copy" fill="#D7FC70"></path>
                            <path d="M127.956808,147.692308 C155.228587,176.244367 168.864476,199.294902 168.864476,216.843914 C168.864476,234.392925 155.228587,260.573159 127.956808,295.384615 L0.0515175777,221.538462 L0.0515175777,73.8461538 L127.956808,147.692308 Z" id="Polygon-Copy-3" fill="#FFFFFF"></path>
                            <polygon id="Polygon-Copy-2" fill="#8B8685" points="255.862098 73.8461538 255.862098 221.538462 127.956808 295.384615 127.956808 147.692308"></polygon>
                        </g>
                    </g>
                    <g id="box2" transform="translate(128.000000, 220.000000)">
                        <g id="box-copy">
                            <path d="M127.956808,-5.68434189e-14 L255.862098,73.8461538 C236.985999,102.956592 220.099365,121.812253 205.202197,130.413137 C190.305028,139.014021 164.556565,144.773745 127.956808,147.692308 C89.3345628,144.806493 62.5464956,139.046769 47.5926065,130.413137 C32.6387174,121.779505 16.7916877,102.923844 0.0515175777,73.8461538 L127.956808,-5.68434189e-14 Z" id="Polygon-Copy" fill="#D7FC70"></path>
                            <path d="M127.956808,147.692308 C155.228587,176.244367 168.864476,199.294902 168.864476,216.843914 C168.864476,234.392925 155.228587,260.573159 127.956808,295.384615 L0.0515175777,221.538462 L0.0515175777,73.8461538 L127.956808,147.692308 Z" id="Polygon-Copy-3" fill="#FFFFFF"></path>
                            <polygon id="Polygon-Copy-2" fill="#8B8685" points="255.862098 73.8461538 255.862098 221.538462 127.956808 295.384615 127.956808 147.692308"></polygon>
                        </g>
                    </g>
                    <g id="box2" transform="translate(768.000000, 0.000000)">
                        <g id="box-copy">
                            <path d="M127.956808,-5.68434189e-14 L255.862098,73.8461538 C236.985999,102.956592 220.099365,121.812253 205.202197,130.413137 C190.305028,139.014021 164.556565,144.773745 127.956808,147.692308 C89.3345628,144.806493 62.5464956,139.046769 47.5926065,130.413137 C32.6387174,121.779505 16.7916877,102.923844 0.0515175777,73.8461538 L127.956808,-5.68434189e-14 Z" id="Polygon-Copy" fill="#D7FC70"></path>
                            <path d="M127.956808,147.692308 C155.228587,176.244367 168.864476,199.294902 168.864476,216.843914 C168.864476,234.392925 155.228587,260.573159 127.956808,295.384615 L0.0515175777,221.538462 L0.0515175777,73.8461538 L127.956808,147.692308 Z" id="Polygon-Copy-3" fill="#FFFFFF"></path>
                            <polygon id="Polygon-Copy-2" fill="#8B8685" points="255.862098 73.8461538 255.862098 221.538462 127.956808 295.384615 127.956808 147.692308"></polygon>
                        </g>
                    </g>
                    <g id="box2" transform="translate(640.000000, 220.000000)">
                        <g id="box-copy">
                            <path d="M127.956808,-5.68434189e-14 L255.862098,73.8461538 C236.985999,102.956592 220.099365,121.812253 205.202197,130.413137 C190.305028,139.014021 164.556565,144.773745 127.956808,147.692308 C89.3345628,144.806493 62.5464956,139.046769 47.5926065,130.413137 C32.6387174,121.779505 16.7916877,102.923844 0.0515175777,73.8461538 L127.956808,-5.68434189e-14 Z" id="Polygon-Copy" fill="#D7FC70"></path>
                            <path d="M127.956808,147.692308 C155.228587,176.244367 168.864476,199.294902 168.864476,216.843914 C168.864476,234.392925 155.228587,260.573159 127.956808,295.384615 L0.0515175777,221.538462 L0.0515175777,73.8461538 L127.956808,147.692308 Z" id="Polygon-Copy-3" fill="#FFFFFF"></path>
                            <polygon id="Polygon-Copy-2" fill="#8B8685" points="255.862098 73.8461538 255.862098 221.538462 127.956808 295.384615 127.956808 147.692308"></polygon>
                        </g>
                    </g>
                    <g id="box2" transform="translate(1280.000000, 0.000000)">
                        <g id="box-copy">
                            <path d="M127.956808,-5.68434189e-14 L255.862098,73.8461538 C236.985999,102.956592 220.099365,121.812253 205.202197,130.413137 C190.305028,139.014021 164.556565,144.773745 127.956808,147.692308 C89.3345628,144.806493 62.5464956,139.046769 47.5926065,130.413137 C32.6387174,121.779505 16.7916877,102.923844 0.0515175777,73.8461538 L127.956808,-5.68434189e-14 Z" id="Polygon-Copy" fill="#D7FC70"></path>
                            <path d="M127.956808,147.692308 C155.228587,176.244367 168.864476,199.294902 168.864476,216.843914 C168.864476,234.392925 155.228587,260.573159 127.956808,295.384615 L0.0515175777,221.538462 L0.0515175777,73.8461538 L127.956808,147.692308 Z" id="Polygon-Copy-3" fill="#FFFFFF"></path>
                            <polygon id="Polygon-Copy-2" fill="#8B8685" points="255.862098 73.8461538 255.862098 221.538462 127.956808 295.384615 127.956808 147.692308"></polygon>
                        </g>
                    </g>
                    <g id="box2" transform="translate(1792.000000, 0.000000)">
                        <g id="box-copy">
                            <path d="M127.956808,-5.68434189e-14 L255.862098,73.8461538 C236.985999,102.956592 220.099365,121.812253 205.202197,130.413137 C190.305028,139.014021 164.556565,144.773745 127.956808,147.692308 C89.3345628,144.806493 62.5464956,139.046769 47.5926065,130.413137 C32.6387174,121.779505 16.7916877,102.923844 0.0515175777,73.8461538 L127.956808,-5.68434189e-14 Z" id="Polygon-Copy" fill="#D7FC70"></path>
                            <path d="M127.956808,147.692308 C155.228587,176.244367 168.864476,199.294902 168.864476,216.843914 C168.864476,234.392925 155.228587,260.573159 127.956808,295.384615 L0.0515175777,221.538462 L0.0515175777,73.8461538 L127.956808,147.692308 Z" id="Polygon-Copy-3" fill="#FFFFFF"></path>
                            <polygon id="Polygon-Copy-2" fill="#8B8685" points="255.862098 73.8461538 255.862098 221.538462 127.956808 295.384615 127.956808 147.692308"></polygon>
                        </g>
                    </g>
                    <g id="box2" transform="translate(2304.000000, 0.000000)">
                        <g id="box-copy">
                            <path d="M127.956808,-5.68434189e-14 L255.862098,73.8461538 C236.985999,102.956592 220.099365,121.812253 205.202197,130.413137 C190.305028,139.014021 164.556565,144.773745 127.956808,147.692308 C89.3345628,144.806493 62.5464956,139.046769 47.5926065,130.413137 C32.6387174,121.779505 16.7916877,102.923844 0.0515175777,73.8461538 L127.956808,-5.68434189e-14 Z" id="Polygon-Copy" fill="#D7FC70"></path>
                            <path d="M127.956808,147.692308 C155.228587,176.244367 168.864476,199.294902 168.864476,216.843914 C168.864476,234.392925 155.228587,260.573159 127.956808,295.384615 L0.0515175777,221.538462 L0.0515175777,73.8461538 L127.956808,147.692308 Z" id="Polygon-Copy-3" fill="#FFFFFF"></path>
                            <polygon id="Polygon-Copy-2" fill="#8B8685" points="255.862098 73.8461538 255.862098 221.538462 127.956808 295.384615 127.956808 147.692308"></polygon>
                        </g>
                    </g>
                    <g id="box2" transform="translate(1152.000000, 220.000000)">
                        <g id="box-copy">
                            <path d="M127.956808,-5.68434189e-14 L255.862098,73.8461538 C236.985999,102.956592 220.099365,121.812253 205.202197,130.413137 C190.305028,139.014021 164.556565,144.773745 127.956808,147.692308 C89.3345628,144.806493 62.5464956,139.046769 47.5926065,130.413137 C32.6387174,121.779505 16.7916877,102.923844 0.0515175777,73.8461538 L127.956808,-5.68434189e-14 Z" id="Polygon-Copy" fill="#D7FC70"></path>
                            <path d="M127.956808,147.692308 C155.228587,176.244367 168.864476,199.294902 168.864476,216.843914 C168.864476,234.392925 155.228587,260.573159 127.956808,295.384615 L0.0515175777,221.538462 L0.0515175777,73.8461538 L127.956808,147.692308 Z" id="Polygon-Copy-3" fill="#FFFFFF"></path>
                            <polygon id="Polygon-Copy-2" fill="#8B8685" points="255.862098 73.8461538 255.862098 221.538462 127.956808 295.384615 127.956808 147.692308"></polygon>
                        </g>
                    </g>
                    <g id="box2" transform="translate(1664.000000, 220.000000)">
                        <g id="box-copy">
                            <path d="M127.956808,-5.68434189e-14 L255.862098,73.8461538 C236.985999,102.956592 220.099365,121.812253 205.202197,130.413137 C190.305028,139.014021 164.556565,144.773745 127.956808,147.692308 C89.3345628,144.806493 62.5464956,139.046769 47.5926065,130.413137 C32.6387174,121.779505 16.7916877,102.923844 0.0515175777,73.8461538 L127.956808,-5.68434189e-14 Z" id="Polygon-Copy" fill="#D7FC70"></path>
                            <path d="M127.956808,147.692308 C155.228587,176.244367 168.864476,199.294902 168.864476,216.843914 C168.864476,234.392925 155.228587,260.573159 127.956808,295.384615 L0.0515175777,221.538462 L0.0515175777,73.8461538 L127.956808,147.692308 Z" id="Polygon-Copy-3" fill="#FFFFFF"></path>
                            <polygon id="Polygon-Copy-2" fill="#8B8685" points="255.862098 73.8461538 255.862098 221.538462 127.956808 295.384615 127.956808 147.692308"></polygon>
                        </g>
                    </g>
                    <g id="box2" transform="translate(2176.000000, 220.000000)">
                        <g id="box-copy">
                            <path d="M127.956808,-5.68434189e-14 L255.862098,73.8461538 C236.985999,102.956592 220.099365,121.812253 205.202197,130.413137 C190.305028,139.014021 164.556565,144.773745 127.956808,147.692308 C89.3345628,144.806493 62.5464956,139.046769 47.5926065,130.413137 C32.6387174,121.779505 16.7916877,102.923844 0.0515175777,73.8461538 L127.956808,-5.68434189e-14 Z" id="Polygon-Copy" fill="#D7FC70"></path>
                            <path d="M127.956808,147.692308 C155.228587,176.244367 168.864476,199.294902 168.864476,216.843914 C168.864476,234.392925 155.228587,260.573159 127.956808,295.384615 L0.0515175777,221.538462 L0.0515175777,73.8461538 L127.956808,147.692308 Z" id="Polygon-Copy-3" fill="#FFFFFF"></path>
                            <polygon id="Polygon-Copy-2" fill="#8B8685" points="255.862098 73.8461538 255.862098 221.538462 127.956808 295.384615 127.956808 147.692308"></polygon>
                        </g>
                    </g>
                    <g id="box2" transform="translate(2688.000000, 220.000000)">
                        <g id="box-copy">
                            <path d="M127.956808,-5.68434189e-14 L255.862098,73.8461538 C236.985999,102.956592 220.099365,121.812253 205.202197,130.413137 C190.305028,139.014021 164.556565,144.773745 127.956808,147.692308 C89.3345628,144.806493 62.5464956,139.046769 47.5926065,130.413137 C32.6387174,121.779505 16.7916877,102.923844 0.0515175777,73.8461538 L127.956808,-5.68434189e-14 Z" id="Polygon-Copy" fill="#D7FC70"></path>
                            <path d="M127.956808,147.692308 C155.228587,176.244367 168.864476,199.294902 168.864476,216.843914 C168.864476,234.392925 155.228587,260.573159 127.956808,295.384615 L0.0515175777,221.538462 L0.0515175777,73.8461538 L127.956808,147.692308 Z" id="Polygon-Copy-3" fill="#FFFFFF"></path>
                            <polygon id="Polygon-Copy-2" fill="#8B8685" points="255.862098 73.8461538 255.862098 221.538462 127.956808 295.384615 127.956808 147.692308"></polygon>
                        </g>
                    </g>
                </g>
            </g>
        </g>
    </g>
    <g id="Welcome" stroke="none" stroke-width="1" fill="none" fill-rule="evenodd">
        <g fill="#353433">
            <path d="M426.625,319.035132 L389.5,319.035132 L368,236.535132 C366.999995,232.785113 365.041681,223.535205 362.125,208.785132 L355.625,236.785132 L333.875,319.035132 L296.75,319.035132 L261.75,183.785132 L294.75,183.785132 L317,287.160132 L318.75,277.910132 L321.875,263.285132 L343.125,183.785132 L380.75,183.785132 L401.5,263.285132 C402.666673,267.618487 404.374989,275.57674 406.625,287.160132 L410.125,270.660132 L429.625,183.785132 L462.125,183.785132 L426.625,319.035132 Z M534.875,321.535132 C514.541565,321.535132 498.916721,315.514359 488,303.472632 C477.083279,291.430905 471.625,273.86858 471.625,250.785132 C471.625,228.451687 477.166611,211.285192 488.25,199.285132 C499.333389,187.285072 515.041565,181.285132 535.375,181.285132 C554.791764,181.285132 569.624949,187.722567 579.875,200.597632 C590.125051,213.472696 595.25,232.326674 595.25,257.160132 L595.25,258.160132 L508.5,258.160132 C508.5,271.326864 510.937476,281.264265 515.8125,287.972632 C520.687524,294.680999 527.624955,298.035132 536.625,298.035132 C549.041729,298.035132 556.874984,292.660185 560.125,281.910132 L593.25,284.785132 C583.666619,309.285254 564.20848,321.535132 534.875,321.535132 Z M534.875,203.410132 C526.624959,203.410132 520.270856,206.285103 515.8125,212.035132 C511.354144,217.78516 509.000001,225.826747 508.75,236.160132 L561.25,236.160132 C560.58333,225.24341 557.958356,217.055992 553.375,211.597632 C548.791644,206.139271 542.625039,203.410132 534.875,203.410132 Z M621.875,319.035132 L621.875,133.535132 L657,133.535132 L657,319.035132 L621.875,319.035132 Z M749.375,321.535132 C728.874897,321.535132 713.041722,315.431026 701.875,303.222632 C690.708278,291.014237 685.125,273.993574 685.125,252.160132 C685.125,229.826687 690.749944,212.431027 702,199.972632 C713.250056,187.514236 729.20823,181.285132 749.875,181.285132 C765.791746,181.285132 778.958281,185.285092 789.375,193.285132 C799.791719,201.285172 806.33332,212.326728 809,226.410132 L773.625,228.160132 C772.624995,221.24343 770.12502,215.722652 766.125,211.597632 C762.12498,207.472611 756.45837,205.410132 749.125,205.410132 C731.041576,205.410132 722,220.53498 722,250.785132 C722,281.951954 731.208241,297.535132 749.625,297.535132 C756.2917,297.535132 761.874977,295.430986 766.375,291.222632 C770.875023,287.014277 773.666661,280.743507 774.75,272.410132 L810,274.035132 C808.749994,283.285178 805.437527,291.535095 800.0625,298.785132 C794.687473,306.035168 787.625044,311.639279 778.875,315.597632 C770.124956,319.555985 760.291721,321.535132 749.375,321.535132 Z M963.875,251.285132 C963.875,273.201908 957.791727,290.389236 945.625,302.847632 C933.458273,315.306027 916.625108,321.535132 895.125,321.535132 C874.041561,321.535132 857.50006,315.285194 845.5,302.785132 C833.49994,290.285069 827.5,273.118574 827.5,251.285132 C827.5,229.535023 833.49994,212.431027 845.5,199.972632 C857.50006,187.514236 874.291559,181.285132 895.875,181.285132 C917.958444,181.285132 934.812442,187.305905 946.4375,199.347632 C958.062558,211.389359 963.875,228.701685 963.875,251.285132 Z M927.125,251.285132 C927.125,235.201718 924.500026,223.535168 919.25,216.285132 C913.999974,209.035095 906.37505,205.410132 896.375,205.410132 C875.04156,205.410132 864.375,220.701645 864.375,251.285132 C864.375,266.36854 866.979141,277.847592 872.1875,285.722632 C877.395859,293.597671 884.916618,297.535132 894.75,297.535132 C916.333441,297.535132 927.125,282.118619 927.125,251.285132 Z M1071.375,319.035132 L1071.375,243.160132 C1071.375,219.410013 1064.54174,207.535132 1050.875,207.535132 C1043.79163,207.535132 1038.02086,211.160095 1033.5625,218.410132 C1029.10414,225.660168 1026.875,235.035074 1026.875,246.535132 L1026.875,319.035132 L991.75,319.035132 L991.75,214.035132 C991.75,206.785095 991.645834,200.847655 991.4375,196.222632 C991.229166,191.597609 991.000001,187.451817 990.75,183.785132 L1024.25,183.785132 C1024.5,185.368473 1024.83333,189.597597 1025.25,196.472632 C1025.66667,203.347666 1025.875,208.076785 1025.875,210.660132 L1026.375,210.660132 C1030.70835,200.326747 1036.10413,192.826822 1042.5625,188.160132 C1049.02087,183.493442 1056.74995,181.160132 1065.75,181.160132 C1086.41677,181.160132 1098.95831,190.993367 1103.375,210.660132 L1104.125,210.660132 C1108.70836,200.160079 1114.2083,192.618488 1120.625,188.035132 C1127.0417,183.451775 1135.20828,181.160132 1145.125,181.160132 C1158.29173,181.160132 1168.3333,185.639254 1175.25,194.597632 C1182.1667,203.55601 1185.625,216.410048 1185.625,233.160132 L1185.625,319.035132 L1150.75,319.035132 L1150.75,243.160132 C1150.75,219.410013 1143.91674,207.535132 1130.25,207.535132 C1123.41663,207.535132 1117.81252,210.847599 1113.4375,217.472632 C1109.06248,224.097665 1106.66667,233.243407 1106.25,244.910132 L1106.25,319.035132 L1071.375,319.035132 Z M1274.75,321.535132 C1254.41656,321.535132 1238.79172,315.514359 1227.875,303.472632 C1216.95828,291.430905 1211.5,273.86858 1211.5,250.785132 C1211.5,228.451687 1217.04161,211.285192 1228.125,199.285132 C1239.20839,187.285072 1254.91656,181.285132 1275.25,181.285132 C1294.66676,181.285132 1309.49995,187.722567 1319.75,200.597632 C1330.00005,213.472696 1335.125,232.326674 1335.125,257.160132 L1335.125,258.160132 L1248.375,258.160132 C1248.375,271.326864 1250.81248,281.264265 1255.6875,287.972632 C1260.56252,294.680999 1267.49995,298.035132 1276.5,298.035132 C1288.91673,298.035132 1296.74998,292.660185 1300,281.910132 L1333.125,284.785132 C1323.54162,309.285254 1304.08348,321.535132 1274.75,321.535132 Z M1274.75,203.410132 C1266.49996,203.410132 1260.14586,206.285103 1255.6875,212.035132 C1251.22914,217.78516 1248.875,225.826747 1248.625,236.160132 L1301.125,236.160132 C1300.45833,225.24341 1297.83336,217.055992 1293.25,211.597632 C1288.66664,206.139271 1282.50004,203.410132 1274.75,203.410132 Z M1467.5,321.285132 C1457.16662,321.285132 1449.20836,318.47266 1443.625,312.847632 C1438.04164,307.222604 1435.25,298.701855 1435.25,287.285132 L1435.25,207.535132 L1418.125,207.535132 L1418.125,183.785132 L1437,183.785132 L1448,152.035132 L1470,152.035132 L1470,183.785132 L1495.625,183.785132 L1495.625,207.535132 L1470,207.535132 L1470,277.785132 C1470,284.368498 1471.24999,289.222616 1473.75,292.347632 C1476.25001,295.472647 1480.12497,297.035132 1485.375,297.035132 C1488.12501,297.035132 1492.04164,296.451804 1497.125,295.285132 L1497.125,317.035132 C1488.45829,319.868479 1478.58339,321.285132 1467.5,321.285132 Z M1646.625,251.285132 C1646.625,273.201908 1640.54173,290.389236 1628.375,302.847632 C1616.20827,315.306027 1599.37511,321.535132 1577.875,321.535132 C1556.79156,321.535132 1540.25006,315.285194 1528.25,302.785132 C1516.24994,290.285069 1510.25,273.118574 1510.25,251.285132 C1510.25,229.535023 1516.24994,212.431027 1528.25,199.972632 C1540.25006,187.514236 1557.04156,181.285132 1578.625,181.285132 C1600.70844,181.285132 1617.56244,187.305905 1629.1875,199.347632 C1640.81256,211.389359 1646.625,228.701685 1646.625,251.285132 Z M1609.875,251.285132 C1609.875,235.201718 1607.25003,223.535168 1602,216.285132 C1596.74997,209.035095 1589.12505,205.410132 1579.125,205.410132 C1557.79156,205.410132 1547.125,220.701645 1547.125,251.285132 C1547.125,266.36854 1549.72914,277.847592 1554.9375,285.722632 C1560.14586,293.597671 1567.66662,297.535132 1577.5,297.535132 C1599.08344,297.535132 1609.875,282.118619 1609.875,251.285132 Z M360,605.035132 L360,529.160132 C360,505.410013 353.166735,493.535132 339.5,493.535132 C332.416631,493.535132 326.645856,497.160095 322.1875,504.410132 C317.729144,511.660168 315.5,521.035074 315.5,532.535132 L315.5,605.035132 L280.375,605.035132 L280.375,500.035132 C280.375,492.785095 280.270834,486.847655 280.0625,482.222632 C279.854166,477.597609 279.625001,473.451817 279.375,469.785132 L312.875,469.785132 C313.125001,471.368473 313.458331,475.597597 313.875,482.472632 C314.291669,489.347666 314.5,494.076785 314.5,496.660132 L315,496.660132 C319.333355,486.326747 324.729134,478.826822 331.1875,474.160132 C337.645866,469.493442 345.374955,467.160132 354.375,467.160132 C375.04177,467.160132 387.583311,476.993367 392,496.660132 L392.75,496.660132 C397.333356,486.160079 402.833301,478.618488 409.25,474.035132 C415.666699,469.451775 423.833284,467.160132 433.75,467.160132 C446.916732,467.160132 456.958299,471.639254 463.875,480.597632 C470.791701,489.55601 474.25,502.410048 474.25,519.160132 L474.25,605.035132 L439.375,605.035132 L439.375,529.160132 C439.375,505.410013 432.541735,493.535132 418.875,493.535132 C412.041632,493.535132 406.437522,496.847599 402.0625,503.472632 C397.687478,510.097665 395.291669,519.243407 394.875,530.910132 L394.875,605.035132 L360,605.035132 Z M525.5,658.160132 C517.083291,658.160132 509.708365,657.61847 503.375,656.535132 L503.375,631.535132 C507.791689,632.201802 511.833315,632.535132 515.5,632.535132 C520.500025,632.535132 524.645817,631.743473 527.9375,630.160132 C531.229183,628.57679 534.187487,625.951817 536.8125,622.285132 C539.437513,618.618447 542.374984,612.410175 545.625,603.660132 L492.125,469.785132 L529.25,469.785132 L550.5,533.160132 C553.83335,542.24351 558.041641,556.160038 563.125,574.910132 L566.25,563.035132 L574.375,533.660132 L594.375,469.785132 L631.125,469.785132 L577.625,612.160132 C570.458297,629.493552 563.020872,641.493432 555.3125,648.160132 C547.604128,654.826832 537.666727,658.160132 525.5,658.160132 Z M778.125,659.285132 C761.624918,659.285132 748.354217,656.13933 738.3125,649.847632 C728.270783,643.555934 722.083345,634.576857 719.75,622.910132 L754.875,618.785132 C756.125006,624.201825 758.812479,628.451783 762.9375,631.535132 C767.062521,634.61848 772.4583,636.160132 779.125,636.160132 C788.875049,636.160132 795.999977,633.160162 800.5,627.160132 C805.000023,621.160102 807.25,612.243524 807.25,600.410132 L807.25,593.285132 L807.5,579.910132 L807.25,579.910132 C799.499961,596.493548 785.000106,604.785132 763.75,604.785132 C747.999921,604.785132 735.79171,598.868524 727.125,587.035132 C718.45829,575.201739 714.125,558.285242 714.125,536.285132 C714.125,514.201688 718.583289,497.160192 727.5,485.160132 C736.416711,473.160072 749.374915,467.160132 766.375,467.160132 C786.041765,467.160132 799.666629,475.28505 807.25,491.535132 L807.875,491.535132 C807.875,488.61845 808.062498,484.660157 808.4375,479.660132 C808.812502,474.660107 809.208331,471.368473 809.625,469.785132 L842.875,469.785132 C842.374998,478.785177 842.125,489.201739 842.125,501.035132 L842.125,600.910132 C842.125,620.160228 836.666721,634.701749 825.75,644.535132 C814.833279,654.368514 798.958438,659.285132 778.125,659.285132 Z M807.5,535.535132 C807.5,521.618395 805.020858,510.764337 800.0625,502.972632 C795.104142,495.180926 788.041713,491.285132 778.875,491.285132 C760.124906,491.285132 750.75,506.284982 750.75,536.285132 C750.75,565.701945 760.041574,580.410132 778.625,580.410132 C787.95838,580.410132 795.104142,576.514337 800.0625,568.722632 C805.020858,560.930926 807.5,549.868537 807.5,535.535132 Z M877.875,445.410132 L877.875,419.535132 L913,419.535132 L913,445.410132 L877.875,445.410132 Z M877.875,605.035132 L877.875,469.785132 L913,469.785132 L913,605.035132 L877.875,605.035132 Z M983.625,607.285132 C973.291615,607.285132 965.333361,604.47266 959.75,598.847632 C954.166639,593.222604 951.375,584.701855 951.375,573.285132 L951.375,493.535132 L934.25,493.535132 L934.25,469.785132 L953.125,469.785132 L964.125,438.035132 L986.125,438.035132 L986.125,469.785132 L1011.75,469.785132 L1011.75,493.535132 L986.125,493.535132 L986.125,563.785132 C986.125,570.368498 987.374987,575.222616 989.875,578.347632 C992.375013,581.472647 996.249974,583.035132 1001.5,583.035132 C1004.25001,583.035132 1008.16664,582.451804 1013.25,581.285132 L1013.25,603.035132 C1004.58329,605.868479 994.708389,607.285132 983.625,607.285132 Z M1068.875,496.785132 C1073.62502,486.451747 1079.5833,478.951822 1086.75,474.285132 C1093.9167,469.618442 1102.45828,467.285132 1112.375,467.285132 C1126.70841,467.285132 1137.70829,471.701754 1145.375,480.535132 C1153.04171,489.368509 1156.875,502.285047 1156.875,519.285132 L1156.875,605.035132 L1121.875,605.035132 L1121.875,529.285132 C1121.875,505.535013 1113.83341,493.660132 1097.75,493.660132 C1089.24996,493.660132 1082.39586,497.305929 1077.1875,504.597632 C1071.97914,511.889335 1069.375,521.243408 1069.375,532.660132 L1069.375,605.035132 L1034.25,605.035132 L1034.25,419.535132 L1069.375,419.535132 L1069.375,470.160132 C1069.375,479.24351 1069.04167,488.118422 1068.375,496.785132 L1068.875,496.785132 Z M1223.75,469.785132 L1223.75,545.660132 C1223.75,569.41025 1231.74992,581.285132 1247.75,581.285132 C1256.25004,581.285132 1263.10414,577.639335 1268.3125,570.347632 C1273.52086,563.055929 1276.125,553.701855 1276.125,542.285132 L1276.125,469.785132 L1311.25,469.785132 L1311.25,574.785132 C1311.25,586.285189 1311.58333,596.368422 1312.25,605.035132 L1278.75,605.035132 C1277.74999,593.035072 1277.25,584.076828 1277.25,578.160132 L1276.625,578.160132 C1271.95831,588.410183 1266.02087,595.868442 1258.8125,600.535132 C1251.60413,605.201822 1243.04172,607.535132 1233.125,607.535132 C1218.7916,607.535132 1207.79171,603.139342 1200.125,594.347632 C1192.4583,585.555921 1188.625,572.660217 1188.625,555.660132 L1188.625,469.785132 L1223.75,469.785132 Z M1475,536.910132 C1475,559.243577 1470.52088,576.59757 1461.5625,588.972632 C1452.60412,601.347694 1439.79175,607.535132 1423.125,607.535132 C1413.54162,607.535132 1405.25004,605.451819 1398.25,601.285132 C1391.24996,597.118444 1385.87502,591.118504 1382.125,583.285132 L1381.875,583.285132 C1381.875,586.201813 1381.6875,590.201773 1381.3125,595.285132 C1380.9375,600.36849 1380.54167,603.618458 1380.125,605.035132 L1346,605.035132 C1346.66667,597.285093 1347,586.993529 1347,574.160132 L1347,419.535132 L1382.125,419.535132 L1382.125,471.285132 L1381.625,493.285132 L1382.125,493.285132 C1390.04171,475.951712 1404.45823,467.285132 1425.375,467.285132 C1441.37508,467.285132 1453.64579,473.347571 1462.1875,485.472632 C1470.72921,497.597692 1475,514.743354 1475,536.910132 Z M1438.375,536.910132 C1438.375,521.576722 1436.12502,510.201835 1431.625,502.785132 C1427.12498,495.368428 1420.16671,491.660132 1410.75,491.660132 C1401.24995,491.660132 1394.02086,495.639259 1389.0625,503.597632 C1384.10414,511.556005 1381.625,523.035057 1381.625,538.035132 C1381.625,552.368537 1384.06248,563.535092 1388.9375,571.535132 C1393.81252,579.535172 1400.99995,583.535132 1410.5,583.535132 C1429.08343,583.535132 1438.375,567.99362 1438.375,536.910132 Z M408.375,822.785132 C408.375,845.368578 403.854212,862.805904 394.8125,875.097632 C385.770788,887.38936 373.000083,893.535132 356.5,893.535132 C346.999953,893.535132 338.729202,891.472652 331.6875,887.347632 C324.645798,883.222611 319.250019,877.28517 315.5,869.535132 L314.75,869.535132 C315.250002,872.035144 315.5,879.618402 315.5,892.285132 L315.5,944.160132 L280.375,944.160132 L280.375,786.910132 C280.375,774.160068 280.04167,763.785172 279.375,755.785132 L313.5,755.785132 C313.916669,757.285139 314.270832,760.243443 314.5625,764.660132 C314.854168,769.07682 315,773.451777 315,777.785132 L315.5,777.785132 C323.416706,761.201715 337.833229,752.910132 358.75,752.910132 C374.500079,752.910132 386.70829,758.972571 395.375,771.097632 C404.04171,783.222692 408.375,800.451687 408.375,822.785132 Z M371.75,822.785132 C371.75,792.451647 362.458426,777.285132 343.875,777.285132 C334.54162,777.285132 327.395858,781.368424 322.4375,789.535132 C317.479142,797.701839 315,809.118392 315,823.785132 C315,838.368538 317.479142,849.639259 322.4375,857.597632 C327.395858,865.556005 334.458287,869.535132 343.625,869.535132 C362.375094,869.535132 371.75,853.951954 371.75,822.785132 Z M436.75,891.035132 L436.75,787.535132 C436.75,780.118428 436.645834,773.93099 436.4375,768.972632 C436.229166,764.014274 436.000001,759.618484 435.75,755.785132 L469.25,755.785132 C469.500001,757.285139 469.833331,761.847594 470.25,769.472632 C470.666669,777.09767 470.875,782.160119 470.875,784.660132 L471.375,784.660132 C474.791684,775.160084 477.83332,768.472651 480.5,764.597632 C483.16668,760.722612 486.333315,757.847641 490,755.972632 C493.666685,754.097622 498.249973,753.160132 503.75,753.160132 C508.250023,753.160132 511.874986,753.785125 514.625,755.035132 L514.625,784.410132 C508.958305,783.160125 503.958355,782.535132 499.625,782.535132 C490.874956,782.535132 484.062524,786.076763 479.1875,793.160132 C474.312476,800.2435 471.875,810.743395 471.875,824.660132 L471.875,891.035132 L436.75,891.035132 Z M664.875,823.285132 C664.875,845.201908 658.791727,862.389236 646.625,874.847632 C634.458273,887.306027 617.625108,893.535132 596.125,893.535132 C575.041561,893.535132 558.50006,887.285194 546.5,874.785132 C534.49994,862.285069 528.5,845.118574 528.5,823.285132 C528.5,801.535023 534.49994,784.431027 546.5,771.972632 C558.50006,759.514236 575.291559,753.285132 596.875,753.285132 C618.958444,753.285132 635.812442,759.305905 647.4375,771.347632 C659.062558,783.389359 664.875,800.701685 664.875,823.285132 Z M628.125,823.285132 C628.125,807.201718 625.500026,795.535168 620.25,788.285132 C614.999974,781.035095 607.37505,777.410132 597.375,777.410132 C576.04156,777.410132 565.375,792.701645 565.375,823.285132 C565.375,838.36854 567.979141,849.847592 573.1875,857.722632 C578.395859,865.597671 585.916618,869.535132 595.75,869.535132 C617.333441,869.535132 628.125,854.118619 628.125,823.285132 Z M734,779.535132 L734,891.035132 L699,891.035132 L699,779.535132 L679.25,779.535132 L679.25,755.785132 L699,755.785132 L699,741.660132 C699,729.41007 702.249968,720.326828 708.75,714.410132 C715.250032,708.493435 725.124934,705.535132 738.375,705.535132 C744.958366,705.535132 752.374959,706.201792 760.625,707.535132 L760.625,730.160132 C757.208316,729.410128 753.791684,729.035132 750.375,729.035132 C744.37497,729.035132 740.145846,730.22262 737.6875,732.597632 C735.229154,734.972644 734,739.160102 734,745.160132 L734,755.785132 L760.625,755.785132 L760.625,779.535132 L734,779.535132 Z M778,731.410132 L778,705.535132 L813.125,705.535132 L813.125,731.410132 L778,731.410132 Z M778,891.035132 L778,755.785132 L813.125,755.785132 L813.125,891.035132 L778,891.035132 Z M849.125,891.035132 L849.125,705.535132 L884.25,705.535132 L884.25,891.035132 L849.125,891.035132 Z M975.625,893.535132 C955.291565,893.535132 939.666721,887.514359 928.75,875.472632 C917.833279,863.430905 912.375,845.86858 912.375,822.785132 C912.375,800.451687 917.916611,783.285192 929,771.285132 C940.083389,759.285072 955.791565,753.285132 976.125,753.285132 C995.541764,753.285132 1010.37495,759.722567 1020.625,772.597632 C1030.87505,785.472696 1036,804.326674 1036,829.160132 L1036,830.160132 L949.25,830.160132 C949.25,843.326864 951.687476,853.264265 956.5625,859.972632 C961.437524,866.680999 968.374955,870.035132 977.375,870.035132 C989.791729,870.035132 997.624984,864.660185 1000.875,853.910132 L1034,856.785132 C1024.41662,881.285254 1004.95848,893.535132 975.625,893.535132 Z M975.625,775.410132 C967.374959,775.410132 961.020856,778.285103 956.5625,784.035132 C952.104144,789.78516 949.750001,797.826747 949.5,808.160132 L1002,808.160132 C1001.33333,797.24341 998.708356,789.055992 994.125,783.597632 C989.541644,778.139271 983.375039,775.410132 975.625,775.410132 Z" id="welcome-to-my-github"></path>
        </g>
    </g>
</svg>
