<?xml version="1.0" encoding="UTF-8"?>
<svg width="1920px" height="646px" viewBox="0 0 1920 646" version="1.1" xmlns="http://www.w3.org/2000/svg" xmlns:xlink="http://www.w3.org/1999/xlink">
    <style type="text/css">
    <![CDATA[
        #Artboard {
            transform: rotate(0deg);
            animation: 1s hello;
        }
        @keyframes hello {
            from {
                transform: rotate(90deg);
            }
        }
    ]]>
    </style>
    <!-- Generator: Sketch 52.6 (67491) - http://www.bohemiancoding.com/sketch -->
    <title>Artboard</title>
    <desc>Created with Sketch.</desc>
    <g id="Artboard" stroke="none" stroke-width="1" fill="none" fill-rule="evenodd">
        <g id="Group" transform="translate(85.000000, 60.000000)">
            <path d="M266.19932,495.206849 C265.355375,492.042056 264.353206,484.077445 263.192781,471.312778 C262.032357,458.54811 261.452154,447.946211 261.452154,439.506762 L260.186242,439.506762 C240.986495,480.860064 204.486424,501.536405 150.684934,501.536405 C110.808536,501.536405 80.0050073,485.976403 58.2734251,454.855934 C36.5418429,423.735464 25.6762147,380.220206 25.6762147,324.308853 C25.6762147,267.553556 37.1220463,223.721823 60.0140528,192.81234 C82.9060593,161.902856 115.344706,146.448346 157.330967,146.448346 C181.594384,146.448346 202.534454,151.51194 220.151805,161.639279 C237.769155,171.766619 251.324817,186.851908 260.819198,206.895601 L261.452154,206.895601 L260.819198,150.562557 L260.819198,25.5538382 L349.749451,25.5538382 L349.749451,420.518096 C349.749451,441.616719 350.593384,466.512721 352.281274,495.206849 L266.19932,495.206849 Z M262.085109,322.093509 C262.085109,285.170918 255.913854,256.740949 243.57116,236.80275 C231.228465,216.864551 213.031175,206.895601 188.978744,206.895601 C165.1373,206.895601 147.414722,216.548076 135.810479,235.853317 C124.206236,255.158557 118.404201,284.643441 118.404201,324.308853 C118.404201,401.951788 141.717831,440.772673 188.345789,440.772673 C211.765261,440.772673 229.909805,430.487248 242.779965,409.91609 C255.650125,389.344932 262.085109,360.071031 262.085109,322.093509 Z M527.926436,500.903449 C501.764143,500.903449 481.61526,493.782771 467.479182,479.5412 C453.343104,465.299629 446.275171,443.72661 446.275171,414.821496 L446.275171,212.908678 L402.917717,212.908678 L402.917717,152.777902 L450.70586,152.777902 L478.555904,72.3925482 L534.255992,72.3925482 L534.255992,152.777902 L599.133934,152.777902 L599.133934,212.908678 L534.255992,212.908678 L534.255992,390.769185 C534.255992,407.437098 537.420738,419.726862 543.750325,427.638845 C550.079912,435.550829 559.890624,439.506762 573.182757,439.506762 C580.145303,439.506762 590.061507,438.02988 602.931668,435.076073 L602.931668,490.143205 C580.989099,497.316737 555.987605,500.903449 527.926436,500.903449 Z M656.099933,91.0647367 L656.099933,25.5538382 L745.030187,25.5538382 L745.030187,91.0647367 L656.099933,91.0647367 Z M656.099933,495.206849 L656.099933,152.777902 L745.030187,152.777902 L745.030187,495.206849 L656.099933,495.206849 Z M1058.0267,495.206849 L1058.0267,303.104843 C1058.0267,242.973766 1037.66684,212.908678 996.946492,212.908678 C975.425896,212.908678 958.072538,222.139188 944.885898,240.600483 C931.699259,259.061779 925.106038,282.744628 925.106038,311.649743 L925.106038,495.206849 L836.175784,495.206849 L836.175784,229.365522 C836.175784,211.00972 835.912056,195.977176 835.38459,184.26744 C834.857124,172.557704 834.276921,162.061296 833.643962,152.777902 L918.460005,152.777902 C919.092963,156.78664 919.936896,167.494031 920.991827,184.900396 C922.046758,202.30676 922.574216,214.280049 922.574216,220.820622 L923.840127,220.820622 C935.866342,194.658329 950.951632,175.669853 969.096448,163.854624 C987.241264,152.039395 1008.86703,146.131869 1033.97439,146.131869 C1070.26402,146.131869 1098.11379,157.313971 1117.52452,179.678512 C1136.93526,202.043053 1146.64048,234.745429 1146.64048,277.786621 L1146.64048,495.206849 L1058.0267,495.206849 Z M1319.75382,500.903449 C1293.59152,500.903449 1273.44264,493.782771 1259.30656,479.5412 C1245.17049,465.299629 1238.10255,443.72661 1238.10255,414.821496 L1238.10255,212.908678 L1194.7451,212.908678 L1194.7451,152.777902 L1242.53324,152.777902 L1270.38329,72.3925482 L1326.08337,72.3925482 L1326.08337,152.777902 L1390.96132,152.777902 L1390.96132,212.908678 L1326.08337,212.908678 L1326.08337,390.769185 C1326.08337,407.437098 1329.24812,419.726862 1335.57771,427.638845 C1341.90729,435.550829 1351.71801,439.506762 1365.01014,439.506762 C1371.97268,439.506762 1381.88889,438.02988 1394.75905,435.076073 L1394.75905,490.143205 C1372.81648,497.316737 1347.81499,500.903449 1319.75382,500.903449 Z M1535.59166,221.1371 C1547.61787,194.974807 1562.70316,175.986331 1580.84798,164.171102 C1598.99279,152.355872 1620.61856,146.448346 1645.72592,146.448346 C1682.01555,146.448346 1709.86532,157.630449 1729.27605,179.99499 C1748.68679,202.359531 1758.39201,235.061907 1758.39201,278.103099 L1758.39201,495.206849 L1669.77823,495.206849 L1669.77823,303.421321 C1669.77823,243.290244 1649.41836,213.225156 1608.69802,213.225156 C1587.17743,213.225156 1569.82407,222.455665 1556.63743,240.916961 C1543.45079,259.378256 1536.85757,283.061106 1536.85757,311.96622 L1536.85757,495.206849 L1447.92731,495.206849 L1447.92731,25.5538382 L1536.85757,25.5538382 L1536.85757,153.727335 C1536.85757,176.724835 1536.01364,199.194532 1534.32575,221.1371 L1535.59166,221.1371 Z" id="dtinth-copy" fill="#8B8685"></path>
            <path d="M240.881099,469.888628 C240.037154,466.723834 239.034984,458.759223 237.87456,445.994556 C236.714135,433.229889 236.133932,422.62799 236.133932,414.18854 L234.868021,414.18854 C215.668273,455.541842 179.168202,476.218183 125.366712,476.218183 C85.4903139,476.218183 54.6867857,460.658182 32.9552034,429.537712 C11.2236212,398.417242 0.357993109,354.901984 0.357993109,298.990632 C0.357993109,242.235335 11.8038247,198.403602 34.6958312,167.494118 C57.5878377,136.584635 90.0264848,121.130125 132.012746,121.130125 C156.276163,121.130125 177.216232,126.193719 194.833583,136.321058 C212.450934,146.448397 226.006596,161.533687 235.500976,181.577379 L236.133932,181.577379 L235.500976,125.244336 L235.500976,0.235616624 L324.43123,0.235616624 L324.43123,395.199874 C324.43123,416.298497 325.275162,441.1945 326.963052,469.888628 L240.881099,469.888628 Z M236.766887,296.775287 C236.766887,259.852696 230.595633,231.422727 218.252938,211.484528 C205.910243,191.546329 187.712953,181.577379 163.660523,181.577379 C139.819078,181.577379 122.0965,191.229854 110.492257,210.535095 C98.8880142,229.840335 93.0859798,259.32522 93.0859798,298.990632 C93.0859798,376.633566 116.399609,415.454451 163.027567,415.454451 C186.447039,415.454451 204.591583,405.169027 217.461744,384.597869 C230.331904,364.026711 236.766887,334.75281 236.766887,296.775287 Z M502.608215,475.585228 C476.445921,475.585228 456.297038,468.464549 442.16096,454.222978 C428.024883,439.981407 420.95695,418.408388 420.95695,389.503274 L420.95695,187.590457 L377.599495,187.590457 L377.599495,127.45968 L425.387639,127.45968 L453.237682,47.0743266 L508.93777,47.0743266 L508.93777,127.45968 L573.815713,127.45968 L573.815713,187.590457 L508.93777,187.590457 L508.93777,365.450964 C508.93777,382.118876 512.102516,394.40864 518.432103,402.320624 C524.76169,410.232608 534.572403,414.18854 547.864536,414.18854 C554.827081,414.18854 564.743286,412.711659 577.613446,409.757851 L577.613446,464.824983 C555.670878,471.998515 530.669384,475.585228 502.608215,475.585228 Z M630.781711,65.7465151 L630.781711,0.235616624 L719.711965,0.235616624 L719.711965,65.7465151 L630.781711,65.7465151 Z M630.781711,469.888628 L630.781711,127.45968 L719.711965,127.45968 L719.711965,469.888628 L630.781711,469.888628 Z M1032.70848,469.888628 L1032.70848,277.786621 C1032.70848,217.655544 1012.34861,187.590457 971.62827,187.590457 C950.107674,187.590457 932.754317,196.820966 919.567677,215.282262 C906.381037,233.743557 899.787816,257.426407 899.787816,286.331521 L899.787816,469.888628 L810.857563,469.888628 L810.857563,204.047301 C810.857563,185.691498 810.593834,170.658954 810.066368,158.949218 C809.538903,147.239482 808.958699,136.743075 808.325741,127.45968 L893.141783,127.45968 C893.774742,131.468419 894.618674,142.17581 895.673605,159.582174 C896.728536,176.988538 897.255994,188.961828 897.255994,195.502401 L898.521905,195.502401 C910.548121,169.340108 925.63341,150.351631 943.778226,138.536402 C961.923042,126.721173 983.548807,120.813647 1008.65617,120.813647 C1044.9458,120.813647 1072.79557,131.99575 1092.2063,154.360291 C1111.61703,176.724832 1121.32226,209.427208 1121.32226,252.4684 L1121.32226,469.888628 L1032.70848,469.888628 Z M1294.4356,475.585228 C1268.2733,475.585228 1248.12442,468.464549 1233.98834,454.222978 C1219.85226,439.981407 1212.78433,418.408388 1212.78433,389.503274 L1212.78433,187.590457 L1169.42688,187.590457 L1169.42688,127.45968 L1217.21502,127.45968 L1245.06506,47.0743266 L1300.76515,47.0743266 L1300.76515,127.45968 L1365.64309,127.45968 L1365.64309,187.590457 L1300.76515,187.590457 L1300.76515,365.450964 C1300.76515,382.118876 1303.9299,394.40864 1310.25948,402.320624 C1316.58907,410.232608 1326.39978,414.18854 1339.69192,414.18854 C1346.65446,414.18854 1356.57067,412.711659 1369.44083,409.757851 L1369.44083,464.824983 C1347.49826,471.998515 1322.49676,475.585228 1294.4356,475.585228 Z M1510.27344,195.818879 C1522.29965,169.656585 1537.38494,150.668109 1555.52976,138.85288 C1573.67457,127.037651 1595.30034,121.130125 1620.4077,121.130125 C1656.69733,121.130125 1684.5471,132.312228 1703.95783,154.676769 C1723.36856,177.041309 1733.07379,209.743685 1733.07379,252.784877 L1733.07379,469.888628 L1644.46001,469.888628 L1644.46001,278.103099 C1644.46001,217.972022 1624.10014,187.906934 1583.3798,187.906934 C1561.8592,187.906934 1544.50585,197.137444 1531.31921,215.598739 C1518.13257,234.060035 1511.53935,257.742884 1511.53935,286.647999 L1511.53935,469.888628 L1422.60909,469.888628 L1422.60909,0.235616624 L1511.53935,0.235616624 L1511.53935,128.409114 C1511.53935,151.406613 1510.69541,173.87631 1509.00752,195.818879 L1510.27344,195.818879 Z" id="dtinth" fill="#D7FC70"></path>
        </g>
    </g>
</svg>
