<?xml version="1.0" encoding="UTF-8"?>
<svg width="1920px" height="1080px" viewBox="0 0 1920 1080" version="1.1" xmlns="http://www.w3.org/2000/svg" xmlns:xlink="http://www.w3.org/1999/xlink">
    <!-- Generator: Sketch 52.6 (67491) - http://www.bohemiancoding.com/sketch -->
    <title>Artboard</title>
    <desc>Created with Sketch.</desc>
    <style type="text/css">
    <![CDATA[
        #boxes {
            transform: translate(0, 0);
            animation: 7s boxes linear infinite;
        }
        @keyframes boxes {
            to {
                transform: translate(-512px, 0);
            }
        }
        #hello {
            transform: rotate(0deg);
            transform-origin: 960px 540px;
            animation: 3.333s hello linear infinite;
        }
        @keyframes hello {
1% { transform: translate(9.5px,8.4px) }
2% { transform: translate(8.4px,2.8px) }
3% { transform: translate(7.6px,1.1px) }
4% { transform: translate(4.4px,8.0px) }
5% { transform: translate(6.0px,3.9px) }
6% { transform: translate(10.5px,5.6px) }
7% { transform: translate(6.6px,1.4px) }
8% { transform: translate(6.5px,9.1px) }
9% { transform: translate(4.4px,3.8px) }
10% { transform: translate(8.9px,8.0px) }
11% { transform: translate(0.5px,11.8px) }
12% { transform: translate(8.4px,2.1px) }
13% { transform: translate(1.0px,9.7px) }
14% { transform: translate(2.4px,7.5px) }
15% { transform: translate(6.6px,7.3px) }
16% { transform: translate(6.6px,9.0px) }
17% { transform: translate(6.1px,3.6px) }
18% { transform: translate(0.8px,0.8px) }
19% { transform: translate(3.9px,2.6px) }
20% { transform: translate(3.3px,1.7px) }
21% { transform: translate(11.1px,4.1px) }
22% { transform: translate(0.9px,6.8px) }
23% { transform: translate(4.5px,7.8px) }
24% { transform: translate(6.0px,6.7px) }
25% { transform: translate(1.6px,4.7px) }
26% { transform: translate(9.3px,5.3px) }
27% { transform: translate(5.0px,2.9px) }
28% { transform: translate(4.7px,3.9px) }
29% { transform: translate(9.2px,2.2px) }
30% { transform: translate(8.8px,11.2px) }
31% { transform: translate(10.5px,11.9px) }
32% { transform: translate(11.4px,9.9px) }
33% { transform: translate(3.9px,0.2px) }
34% { transform: translate(4.7px,1.3px) }
35% { transform: translate(7.5px,5.5px) }
36% { transform: translate(7.5px,2.9px) }
37% { transform: translate(7.2px,8.4px) }
38% { transform: translate(6.8px,10.7px) }
39% { transform: translate(10.5px,0.7px) }
40% { transform: translate(2.7px,5.4px) }
41% { transform: translate(8.7px,4.6px) }
42% { transform: translate(1.8px,5.3px) }
43% { transform: translate(10.3px,3.7px) }
44% { transform: translate(4.4px,10.0px) }
45% { transform: translate(5.6px,4.4px) }
46% { transform: translate(3.6px,2.2px) }
47% { transform: translate(7.8px,2.9px) }
48% { transform: translate(2.1px,10.3px) }
49% { transform: translate(7.5px,6.0px) }
50% { transform: translate(10.2px,3.2px) }
51% { transform: translate(9.6px,6.0px) }
52% { transform: translate(1.1px,11.2px) }
53% { transform: translate(4.4px,1.0px) }
54% { transform: translate(10.2px,7.1px) }
55% { transform: translate(10.1px,0.4px) }
56% { transform: translate(11.4px,10.4px) }
57% { transform: translate(5.1px,9.6px) }
58% { transform: translate(11.7px,5.4px) }
59% { transform: translate(9.2px,3.2px) }
60% { transform: translate(8.4px,5.8px) }
61% { transform: translate(0.8px,5.5px) }
62% { transform: translate(7.3px,11.2px) }
63% { transform: translate(4.8px,9.6px) }
64% { transform: translate(1.0px,3.5px) }
65% { transform: translate(0.4px,4.2px) }
66% { transform: translate(8.6px,9.3px) }
67% { transform: translate(7.9px,9.8px) }
68% { transform: translate(5.7px,9.3px) }
69% { transform: translate(3.1px,7.3px) }
70% { transform: translate(10.1px,4.3px) }
71% { transform: translate(7.0px,7.7px) }
72% { transform: translate(11.6px,7.7px) }
73% { transform: translate(2.7px,8.3px) }
74% { transform: translate(8.9px,6.3px) }
75% { transform: translate(9.6px,2.8px) }
76% { transform: translate(3.9px,0.3px) }
77% { transform: translate(6.0px,11.6px) }
78% { transform: translate(3.5px,1.0px) }
79% { transform: translate(3.1px,9.6px) }
80% { transform: translate(6.9px,1.3px) }
81% { transform: translate(0.8px,9.3px) }
82% { transform: translate(5.3px,5.2px) }
83% { transform: translate(3.1px,11.9px) }
84% { transform: translate(4.4px,7.8px) }
85% { transform: translate(0.1px,1.2px) }
86% { transform: translate(2.0px,4.8px) }
87% { transform: translate(1.6px,10.5px) }
88% { transform: translate(2.4px,4.3px) }
89% { transform: translate(4.4px,11.8px) }
90% { transform: translate(4.5px,10.0px) }
91% { transform: translate(2.4px,5.1px) }
92% { transform: translate(5.5px,8.9px) }
93% { transform: translate(6.6px,1.1px) }
94% { transform: translate(4.7px,4.6px) }
95% { transform: translate(1.9px,3.5px) }
96% { transform: translate(3.3px,1.3px) }
97% { transform: translate(4.9px,8.8px) }
98% { transform: translate(11.3px,11.5px) }
99% { transform: translate(9.8px,3.2px) }
100% { transform: translate(0.2px,9.9px) }
        }
    ]]>
    </style>
    <g id="Artboard" stroke="none" stroke-width="1" fill="none" fill-rule="evenodd">
        <rect fill="#353433" x="0" y="0" width="1920" height="1080"></rect>
        <g id="boxes"><g transform="translate(-408.000000, -210.000000)">
            <g id="row" transform="translate(256.000000, 0.000000)">
                <g transform="translate(0.422712, 0.000000)">
                    <g id="box">
                        <g>
                            <path d="M127.956808,-5.68434189e-14 L255.862098,73.8461538 C236.985999,102.956592 220.099365,121.812253 205.202197,130.413137 C190.305028,139.014021 164.556565,144.773745 127.956808,147.692308 C89.3345628,144.806493 62.5464956,139.046769 47.5926065,130.413137 C32.6387174,121.779505 16.7916877,102.923844 0.0515175777,73.8461538 L127.956808,-5.68434189e-14 Z" id="Polygon-Copy" fill="#8B8685"></path>
                            <path d="M127.956808,147.692308 C155.228587,176.244367 168.864476,199.294902 168.864476,216.843914 C168.864476,234.392925 155.228587,260.573159 127.956808,295.384615 L0.0515175777,221.538462 L0.0515175777,73.8461538 L127.956808,147.692308 Z" id="Polygon-Copy-3" fill="#353433"></path>
                            <polygon id="Polygon-Copy-2" fill="#252423" points="255.862098 73.8461538 255.862098 221.538462 127.956808 295.384615 127.956808 147.692308"></polygon>
                        </g>
                    </g>
                    <g id="box" transform="translate(362.000000, 220.000000)">
                        <g>
                            <path d="M127.956808,-5.68434189e-14 L255.862098,73.8461538 C236.985999,102.956592 220.099365,121.812253 205.202197,130.413137 C190.305028,139.014021 164.556565,144.773745 127.956808,147.692308 C89.3345628,144.806493 62.5464956,139.046769 47.5926065,130.413137 C32.6387174,121.779505 16.7916877,102.923844 0.0515175777,73.8461538 L127.956808,-5.68434189e-14 Z" id="Polygon-Copy" fill="#8B8685"></path>
                            <path d="M127.956808,147.692308 C155.228587,176.244367 168.864476,199.294902 168.864476,216.843914 C168.864476,234.392925 155.228587,260.573159 127.956808,295.384615 L0.0515175777,221.538462 L0.0515175777,73.8461538 L127.956808,147.692308 Z" id="Polygon-Copy-3" fill="#353433"></path>
                            <polygon id="Polygon-Copy-2" fill="#252423" points="255.862098 73.8461538 255.862098 221.538462 127.956808 295.384615 127.956808 147.692308"></polygon>
                        </g>
                    </g>
                    <g id="box" transform="translate(512.000000, 0.000000)">
                        <g>
                            <path d="M127.956808,-5.68434189e-14 L255.862098,73.8461538 C236.985999,102.956592 220.099365,121.812253 205.202197,130.413137 C190.305028,139.014021 164.556565,144.773745 127.956808,147.692308 C89.3345628,144.806493 62.5464956,139.046769 47.5926065,130.413137 C32.6387174,121.779505 16.7916877,102.923844 0.0515175777,73.8461538 L127.956808,-5.68434189e-14 Z" id="Polygon-Copy" fill="#8B8685"></path>
                            <path d="M127.956808,147.692308 C155.228587,176.244367 168.864476,199.294902 168.864476,216.843914 C168.864476,234.392925 155.228587,260.573159 127.956808,295.384615 L0.0515175777,221.538462 L0.0515175777,73.8461538 L127.956808,147.692308 Z" id="Polygon-Copy-3" fill="#353433"></path>
                            <polygon id="Polygon-Copy-2" fill="#252423" points="255.862098 73.8461538 255.862098 221.538462 127.956808 295.384615 127.956808 147.692308"></polygon>
                        </g>
                    </g>
                    <g id="box" transform="translate(384.000000, 220.000000)">
                        <g>
                            <path d="M127.956808,-5.68434189e-14 L255.862098,73.8461538 C236.985999,102.956592 220.099365,121.812253 205.202197,130.413137 C190.305028,139.014021 164.556565,144.773745 127.956808,147.692308 C89.3345628,144.806493 62.5464956,139.046769 47.5926065,130.413137 C32.6387174,121.779505 16.7916877,102.923844 0.0515175777,73.8461538 L127.956808,-5.68434189e-14 Z" id="Polygon-Copy" fill="#8B8685"></path>
                            <path d="M127.956808,147.692308 C155.228587,176.244367 168.864476,199.294902 168.864476,216.843914 C168.864476,234.392925 155.228587,260.573159 127.956808,295.384615 L0.0515175777,221.538462 L0.0515175777,73.8461538 L127.956808,147.692308 Z" id="Polygon-Copy-3" fill="#353433"></path>
                            <polygon id="Polygon-Copy-2" fill="#252423" points="255.862098 73.8461538 255.862098 221.538462 127.956808 295.384615 127.956808 147.692308"></polygon>
                        </g>
                    </g>
                    <g id="box" transform="translate(1024.000000, 0.000000)">
                        <g>
                            <path d="M127.956808,-5.68434189e-14 L255.862098,73.8461538 C236.985999,102.956592 220.099365,121.812253 205.202197,130.413137 C190.305028,139.014021 164.556565,144.773745 127.956808,147.692308 C89.3345628,144.806493 62.5464956,139.046769 47.5926065,130.413137 C32.6387174,121.779505 16.7916877,102.923844 0.0515175777,73.8461538 L127.956808,-5.68434189e-14 Z" id="Polygon-Copy" fill="#8B8685"></path>
                            <path d="M127.956808,147.692308 C155.228587,176.244367 168.864476,199.294902 168.864476,216.843914 C168.864476,234.392925 155.228587,260.573159 127.956808,295.384615 L0.0515175777,221.538462 L0.0515175777,73.8461538 L127.956808,147.692308 Z" id="Polygon-Copy-3" fill="#353433"></path>
                            <polygon id="Polygon-Copy-2" fill="#252423" points="255.862098 73.8461538 255.862098 221.538462 127.956808 295.384615 127.956808 147.692308"></polygon>
                        </g>
                    </g>
                    <g id="box" transform="translate(896.000000, 220.000000)">
                        <g>
                            <path d="M127.956808,-5.68434189e-14 L255.862098,73.8461538 C236.985999,102.956592 220.099365,121.812253 205.202197,130.413137 C190.305028,139.014021 164.556565,144.773745 127.956808,147.692308 C89.3345628,144.806493 62.5464956,139.046769 47.5926065,130.413137 C32.6387174,121.779505 16.7916877,102.923844 0.0515175777,73.8461538 L127.956808,-5.68434189e-14 Z" id="Polygon-Copy" fill="#8B8685"></path>
                            <path d="M127.956808,147.692308 C155.228587,176.244367 168.864476,199.294902 168.864476,216.843914 C168.864476,234.392925 155.228587,260.573159 127.956808,295.384615 L0.0515175777,221.538462 L0.0515175777,73.8461538 L127.956808,147.692308 Z" id="Polygon-Copy-3" fill="#353433"></path>
                            <polygon id="Polygon-Copy-2" fill="#252423" points="255.862098 73.8461538 255.862098 221.538462 127.956808 295.384615 127.956808 147.692308"></polygon>
                        </g>
                    </g>
                    <g id="box" transform="translate(1536.000000, 0.000000)">
                        <g>
                            <path d="M127.956808,-5.68434189e-14 L255.862098,73.8461538 C236.985999,102.956592 220.099365,121.812253 205.202197,130.413137 C190.305028,139.014021 164.556565,144.773745 127.956808,147.692308 C89.3345628,144.806493 62.5464956,139.046769 47.5926065,130.413137 C32.6387174,121.779505 16.7916877,102.923844 0.0515175777,73.8461538 L127.956808,-5.68434189e-14 Z" id="Polygon-Copy" fill="#8B8685"></path>
                            <path d="M127.956808,147.692308 C155.228587,176.244367 168.864476,199.294902 168.864476,216.843914 C168.864476,234.392925 155.228587,260.573159 127.956808,295.384615 L0.0515175777,221.538462 L0.0515175777,73.8461538 L127.956808,147.692308 Z" id="Polygon-Copy-3" fill="#353433"></path>
                            <polygon id="Polygon-Copy-2" fill="#252423" points="255.862098 73.8461538 255.862098 221.538462 127.956808 295.384615 127.956808 147.692308"></polygon>
                        </g>
                    </g>
                    <g id="box" transform="translate(2048.000000, 0.000000)">
                        <g>
                            <path d="M127.956808,-5.68434189e-14 L255.862098,73.8461538 C236.985999,102.956592 220.099365,121.812253 205.202197,130.413137 C190.305028,139.014021 164.556565,144.773745 127.956808,147.692308 C89.3345628,144.806493 62.5464956,139.046769 47.5926065,130.413137 C32.6387174,121.779505 16.7916877,102.923844 0.0515175777,73.8461538 L127.956808,-5.68434189e-14 Z" id="Polygon-Copy" fill="#8B8685"></path>
                            <path d="M127.956808,147.692308 C155.228587,176.244367 168.864476,199.294902 168.864476,216.843914 C168.864476,234.392925 155.228587,260.573159 127.956808,295.384615 L0.0515175777,221.538462 L0.0515175777,73.8461538 L127.956808,147.692308 Z" id="Polygon-Copy-3" fill="#353433"></path>
                            <polygon id="Polygon-Copy-2" fill="#252423" points="255.862098 73.8461538 255.862098 221.538462 127.956808 295.384615 127.956808 147.692308"></polygon>
                        </g>
                    </g>
                    <g id="box" transform="translate(2560.000000, 0.000000)">
                        <g>
                            <path d="M127.956808,-5.68434189e-14 L255.862098,73.8461538 C236.985999,102.956592 220.099365,121.812253 205.202197,130.413137 C190.305028,139.014021 164.556565,144.773745 127.956808,147.692308 C89.3345628,144.806493 62.5464956,139.046769 47.5926065,130.413137 C32.6387174,121.779505 16.7916877,102.923844 0.0515175777,73.8461538 L127.956808,-5.68434189e-14 Z" id="Polygon-Copy" fill="#8B8685"></path>
                            <path d="M127.956808,147.692308 C155.228587,176.244367 168.864476,199.294902 168.864476,216.843914 C168.864476,234.392925 155.228587,260.573159 127.956808,295.384615 L0.0515175777,221.538462 L0.0515175777,73.8461538 L127.956808,147.692308 Z" id="Polygon-Copy-3" fill="#353433"></path>
                            <polygon id="Polygon-Copy-2" fill="#252423" points="255.862098 73.8461538 255.862098 221.538462 127.956808 295.384615 127.956808 147.692308"></polygon>
                        </g>
                    </g>
                    <g id="box" transform="translate(1408.000000, 220.000000)">
                        <g>
                            <path d="M127.956808,-5.68434189e-14 L255.862098,73.8461538 C236.985999,102.956592 220.099365,121.812253 205.202197,130.413137 C190.305028,139.014021 164.556565,144.773745 127.956808,147.692308 C89.3345628,144.806493 62.5464956,139.046769 47.5926065,130.413137 C32.6387174,121.779505 16.7916877,102.923844 0.0515175777,73.8461538 L127.956808,-5.68434189e-14 Z" id="Polygon-Copy" fill="#8B8685"></path>
                            <path d="M127.956808,147.692308 C155.228587,176.244367 168.864476,199.294902 168.864476,216.843914 C168.864476,234.392925 155.228587,260.573159 127.956808,295.384615 L0.0515175777,221.538462 L0.0515175777,73.8461538 L127.956808,147.692308 Z" id="Polygon-Copy-3" fill="#353433"></path>
                            <polygon id="Polygon-Copy-2" fill="#252423" points="255.862098 73.8461538 255.862098 221.538462 127.956808 295.384615 127.956808 147.692308"></polygon>
                        </g>
                    </g>
                    <g id="box" transform="translate(1920.000000, 220.000000)">
                        <g>
                            <path d="M127.956808,-5.68434189e-14 L255.862098,73.8461538 C236.985999,102.956592 220.099365,121.812253 205.202197,130.413137 C190.305028,139.014021 164.556565,144.773745 127.956808,147.692308 C89.3345628,144.806493 62.5464956,139.046769 47.5926065,130.413137 C32.6387174,121.779505 16.7916877,102.923844 0.0515175777,73.8461538 L127.956808,-5.68434189e-14 Z" id="Polygon-Copy" fill="#8B8685"></path>
                            <path d="M127.956808,147.692308 C155.228587,176.244367 168.864476,199.294902 168.864476,216.843914 C168.864476,234.392925 155.228587,260.573159 127.956808,295.384615 L0.0515175777,221.538462 L0.0515175777,73.8461538 L127.956808,147.692308 Z" id="Polygon-Copy-3" fill="#353433"></path>
                            <polygon id="Polygon-Copy-2" fill="#252423" points="255.862098 73.8461538 255.862098 221.538462 127.956808 295.384615 127.956808 147.692308"></polygon>
                        </g>
                    </g>
                    <g id="box" transform="translate(2432.000000, 220.000000)">
                        <g>
                            <path d="M127.956808,-5.68434189e-14 L255.862098,73.8461538 C236.985999,102.956592 220.099365,121.812253 205.202197,130.413137 C190.305028,139.014021 164.556565,144.773745 127.956808,147.692308 C89.3345628,144.806493 62.5464956,139.046769 47.5926065,130.413137 C32.6387174,121.779505 16.7916877,102.923844 0.0515175777,73.8461538 L127.956808,-5.68434189e-14 Z" id="Polygon-Copy" fill="#8B8685"></path>
                            <path d="M127.956808,147.692308 C155.228587,176.244367 168.864476,199.294902 168.864476,216.843914 C168.864476,234.392925 155.228587,260.573159 127.956808,295.384615 L0.0515175777,221.538462 L0.0515175777,73.8461538 L127.956808,147.692308 Z" id="Polygon-Copy-3" fill="#353433"></path>
                            <polygon id="Polygon-Copy-2" fill="#252423" points="255.862098 73.8461538 255.862098 221.538462 127.956808 295.384615 127.956808 147.692308"></polygon>
                        </g>
                    </g>
                    <g id="box2" transform="translate(256.000000, 0.000000)">
                        <g id="box-copy">
                            <path d="M127.956808,-5.68434189e-14 L255.862098,73.8461538 C236.985999,102.956592 220.099365,121.812253 205.202197,130.413137 C190.305028,139.014021 164.556565,144.773745 127.956808,147.692308 C89.3345628,144.806493 62.5464956,139.046769 47.5926065,130.413137 C32.6387174,121.779505 16.7916877,102.923844 0.0515175777,73.8461538 L127.956808,-5.68434189e-14 Z" id="Polygon-Copy" fill="#353433"></path>
                            <path d="M127.956808,147.692308 C155.228587,176.244367 168.864476,199.294902 168.864476,216.843914 C168.864476,234.392925 155.228587,260.573159 127.956808,295.384615 L0.0515175777,221.538462 L0.0515175777,73.8461538 L127.956808,147.692308 Z" id="Polygon-Copy-3" fill="#8B8685"></path>
                            <polygon id="Polygon-Copy-2" fill="#252423" points="255.862098 73.8461538 255.862098 221.538462 127.956808 295.384615 127.956808 147.692308"></polygon>
                        </g>
                    </g>
                    <g id="box2" transform="translate(128.000000, 220.000000)">
                        <g id="box-copy">
                            <path d="M127.956808,-5.68434189e-14 L255.862098,73.8461538 C236.985999,102.956592 220.099365,121.812253 205.202197,130.413137 C190.305028,139.014021 164.556565,144.773745 127.956808,147.692308 C89.3345628,144.806493 62.5464956,139.046769 47.5926065,130.413137 C32.6387174,121.779505 16.7916877,102.923844 0.0515175777,73.8461538 L127.956808,-5.68434189e-14 Z" id="Polygon-Copy" fill="#353433"></path>
                            <path d="M127.956808,147.692308 C155.228587,176.244367 168.864476,199.294902 168.864476,216.843914 C168.864476,234.392925 155.228587,260.573159 127.956808,295.384615 L0.0515175777,221.538462 L0.0515175777,73.8461538 L127.956808,147.692308 Z" id="Polygon-Copy-3" fill="#8B8685"></path>
                            <polygon id="Polygon-Copy-2" fill="#252423" points="255.862098 73.8461538 255.862098 221.538462 127.956808 295.384615 127.956808 147.692308"></polygon>
                        </g>
                    </g>
                    <g id="box2" transform="translate(768.000000, 0.000000)">
                        <g id="box-copy">
                            <path d="M127.956808,-5.68434189e-14 L255.862098,73.8461538 C236.985999,102.956592 220.099365,121.812253 205.202197,130.413137 C190.305028,139.014021 164.556565,144.773745 127.956808,147.692308 C89.3345628,144.806493 62.5464956,139.046769 47.5926065,130.413137 C32.6387174,121.779505 16.7916877,102.923844 0.0515175777,73.8461538 L127.956808,-5.68434189e-14 Z" id="Polygon-Copy" fill="#353433"></path>
                            <path d="M127.956808,147.692308 C155.228587,176.244367 168.864476,199.294902 168.864476,216.843914 C168.864476,234.392925 155.228587,260.573159 127.956808,295.384615 L0.0515175777,221.538462 L0.0515175777,73.8461538 L127.956808,147.692308 Z" id="Polygon-Copy-3" fill="#8B8685"></path>
                            <polygon id="Polygon-Copy-2" fill="#252423" points="255.862098 73.8461538 255.862098 221.538462 127.956808 295.384615 127.956808 147.692308"></polygon>
                        </g>
                    </g>
                    <g id="box2" transform="translate(640.000000, 220.000000)">
                        <g id="box-copy">
                            <path d="M127.956808,-5.68434189e-14 L255.862098,73.8461538 C236.985999,102.956592 220.099365,121.812253 205.202197,130.413137 C190.305028,139.014021 164.556565,144.773745 127.956808,147.692308 C89.3345628,144.806493 62.5464956,139.046769 47.5926065,130.413137 C32.6387174,121.779505 16.7916877,102.923844 0.0515175777,73.8461538 L127.956808,-5.68434189e-14 Z" id="Polygon-Copy" fill="#353433"></path>
                            <path d="M127.956808,147.692308 C155.228587,176.244367 168.864476,199.294902 168.864476,216.843914 C168.864476,234.392925 155.228587,260.573159 127.956808,295.384615 L0.0515175777,221.538462 L0.0515175777,73.8461538 L127.956808,147.692308 Z" id="Polygon-Copy-3" fill="#8B8685"></path>
                            <polygon id="Polygon-Copy-2" fill="#252423" points="255.862098 73.8461538 255.862098 221.538462 127.956808 295.384615 127.956808 147.692308"></polygon>
                        </g>
                    </g>
                    <g id="box2" transform="translate(1280.000000, 0.000000)">
                        <g id="box-copy">
                            <path d="M127.956808,-5.68434189e-14 L255.862098,73.8461538 C236.985999,102.956592 220.099365,121.812253 205.202197,130.413137 C190.305028,139.014021 164.556565,144.773745 127.956808,147.692308 C89.3345628,144.806493 62.5464956,139.046769 47.5926065,130.413137 C32.6387174,121.779505 16.7916877,102.923844 0.0515175777,73.8461538 L127.956808,-5.68434189e-14 Z" id="Polygon-Copy" fill="#353433"></path>
                            <path d="M127.956808,147.692308 C155.228587,176.244367 168.864476,199.294902 168.864476,216.843914 C168.864476,234.392925 155.228587,260.573159 127.956808,295.384615 L0.0515175777,221.538462 L0.0515175777,73.8461538 L127.956808,147.692308 Z" id="Polygon-Copy-3" fill="#8B8685"></path>
                            <polygon id="Polygon-Copy-2" fill="#252423" points="255.862098 73.8461538 255.862098 221.538462 127.956808 295.384615 127.956808 147.692308"></polygon>
                        </g>
                    </g>
                    <g id="box2" transform="translate(1792.000000, 0.000000)">
                        <g id="box-copy">
                            <path d="M127.956808,-5.68434189e-14 L255.862098,73.8461538 C236.985999,102.956592 220.099365,121.812253 205.202197,130.413137 C190.305028,139.014021 164.556565,144.773745 127.956808,147.692308 C89.3345628,144.806493 62.5464956,139.046769 47.5926065,130.413137 C32.6387174,121.779505 16.7916877,102.923844 0.0515175777,73.8461538 L127.956808,-5.68434189e-14 Z" id="Polygon-Copy" fill="#353433"></path>
                            <path d="M127.956808,147.692308 C155.228587,176.244367 168.864476,199.294902 168.864476,216.843914 C168.864476,234.392925 155.228587,260.573159 127.956808,295.384615 L0.0515175777,221.538462 L0.0515175777,73.8461538 L127.956808,147.692308 Z" id="Polygon-Copy-3" fill="#8B8685"></path>
                            <polygon id="Polygon-Copy-2" fill="#252423" points="255.862098 73.8461538 255.862098 221.538462 127.956808 295.384615 127.956808 147.692308"></polygon>
                        </g>
                    </g>
                    <g id="box2" transform="translate(2304.000000, 0.000000)">
                        <g id="box-copy">
                            <path d="M127.956808,-5.68434189e-14 L255.862098,73.8461538 C236.985999,102.956592 220.099365,121.812253 205.202197,130.413137 C190.305028,139.014021 164.556565,144.773745 127.956808,147.692308 C89.3345628,144.806493 62.5464956,139.046769 47.5926065,130.413137 C32.6387174,121.779505 16.7916877,102.923844 0.0515175777,73.8461538 L127.956808,-5.68434189e-14 Z" id="Polygon-Copy" fill="#353433"></path>
                            <path d="M127.956808,147.692308 C155.228587,176.244367 168.864476,199.294902 168.864476,216.843914 C168.864476,234.392925 155.228587,260.573159 127.956808,295.384615 L0.0515175777,221.538462 L0.0515175777,73.8461538 L127.956808,147.692308 Z" id="Polygon-Copy-3" fill="#8B8685"></path>
                            <polygon id="Polygon-Copy-2" fill="#252423" points="255.862098 73.8461538 255.862098 221.538462 127.956808 295.384615 127.956808 147.692308"></polygon>
                        </g>
                    </g>
                    <g id="box2" transform="translate(1152.000000, 220.000000)">
                        <g id="box-copy">
                            <path d="M127.956808,-5.68434189e-14 L255.862098,73.8461538 C236.985999,102.956592 220.099365,121.812253 205.202197,130.413137 C190.305028,139.014021 164.556565,144.773745 127.956808,147.692308 C89.3345628,144.806493 62.5464956,139.046769 47.5926065,130.413137 C32.6387174,121.779505 16.7916877,102.923844 0.0515175777,73.8461538 L127.956808,-5.68434189e-14 Z" id="Polygon-Copy" fill="#353433"></path>
                            <path d="M127.956808,147.692308 C155.228587,176.244367 168.864476,199.294902 168.864476,216.843914 C168.864476,234.392925 155.228587,260.573159 127.956808,295.384615 L0.0515175777,221.538462 L0.0515175777,73.8461538 L127.956808,147.692308 Z" id="Polygon-Copy-3" fill="#8B8685"></path>
                            <polygon id="Polygon-Copy-2" fill="#252423" points="255.862098 73.8461538 255.862098 221.538462 127.956808 295.384615 127.956808 147.692308"></polygon>
                        </g>
                    </g>
                    <g id="box2" transform="translate(1664.000000, 220.000000)">
                        <g id="box-copy">
                            <path d="M127.956808,-5.68434189e-14 L255.862098,73.8461538 C236.985999,102.956592 220.099365,121.812253 205.202197,130.413137 C190.305028,139.014021 164.556565,144.773745 127.956808,147.692308 C89.3345628,144.806493 62.5464956,139.046769 47.5926065,130.413137 C32.6387174,121.779505 16.7916877,102.923844 0.0515175777,73.8461538 L127.956808,-5.68434189e-14 Z" id="Polygon-Copy" fill="#353433"></path>
                            <path d="M127.956808,147.692308 C155.228587,176.244367 168.864476,199.294902 168.864476,216.843914 C168.864476,234.392925 155.228587,260.573159 127.956808,295.384615 L0.0515175777,221.538462 L0.0515175777,73.8461538 L127.956808,147.692308 Z" id="Polygon-Copy-3" fill="#8B8685"></path>
                            <polygon id="Polygon-Copy-2" fill="#252423" points="255.862098 73.8461538 255.862098 221.538462 127.956808 295.384615 127.956808 147.692308"></polygon>
                        </g>
                    </g>
                    <g id="box2" transform="translate(2176.000000, 220.000000)">
                        <g id="box-copy">
                            <path d="M127.956808,-5.68434189e-14 L255.862098,73.8461538 C236.985999,102.956592 220.099365,121.812253 205.202197,130.413137 C190.305028,139.014021 164.556565,144.773745 127.956808,147.692308 C89.3345628,144.806493 62.5464956,139.046769 47.5926065,130.413137 C32.6387174,121.779505 16.7916877,102.923844 0.0515175777,73.8461538 L127.956808,-5.68434189e-14 Z" id="Polygon-Copy" fill="#353433"></path>
                            <path d="M127.956808,147.692308 C155.228587,176.244367 168.864476,199.294902 168.864476,216.843914 C168.864476,234.392925 155.228587,260.573159 127.956808,295.384615 L0.0515175777,221.538462 L0.0515175777,73.8461538 L127.956808,147.692308 Z" id="Polygon-Copy-3" fill="#8B8685"></path>
                            <polygon id="Polygon-Copy-2" fill="#252423" points="255.862098 73.8461538 255.862098 221.538462 127.956808 295.384615 127.956808 147.692308"></polygon>
                        </g>
                    </g>
                    <g id="box2" transform="translate(2688.000000, 220.000000)">
                        <g id="box-copy">
                            <path d="M127.956808,-5.68434189e-14 L255.862098,73.8461538 C236.985999,102.956592 220.099365,121.812253 205.202197,130.413137 C190.305028,139.014021 164.556565,144.773745 127.956808,147.692308 C89.3345628,144.806493 62.5464956,139.046769 47.5926065,130.413137 C32.6387174,121.779505 16.7916877,102.923844 0.0515175777,73.8461538 L127.956808,-5.68434189e-14 Z" id="Polygon-Copy" fill="#353433"></path>
                            <path d="M127.956808,147.692308 C155.228587,176.244367 168.864476,199.294902 168.864476,216.843914 C168.864476,234.392925 155.228587,260.573159 127.956808,295.384615 L0.0515175777,221.538462 L0.0515175777,73.8461538 L127.956808,147.692308 Z" id="Polygon-Copy-3" fill="#8B8685"></path>
                            <polygon id="Polygon-Copy-2" fill="#252423" points="255.862098 73.8461538 255.862098 221.538462 127.956808 295.384615 127.956808 147.692308"></polygon>
                        </g>
                    </g>
                </g>
            </g>
            <g id="row" transform="translate(256.000000, 880.000000)">
                <g transform="translate(0.422712, 0.000000)">
                    <g id="box">
                        <g>
                            <path d="M127.956808,-5.68434189e-14 L255.862098,73.8461538 C236.985999,102.956592 220.099365,121.812253 205.202197,130.413137 C190.305028,139.014021 164.556565,144.773745 127.956808,147.692308 C89.3345628,144.806493 62.5464956,139.046769 47.5926065,130.413137 C32.6387174,121.779505 16.7916877,102.923844 0.0515175777,73.8461538 L127.956808,-5.68434189e-14 Z" id="Polygon-Copy" fill="#8B8685"></path>
                            <path d="M127.956808,147.692308 C155.228587,176.244367 168.864476,199.294902 168.864476,216.843914 C168.864476,234.392925 155.228587,260.573159 127.956808,295.384615 L0.0515175777,221.538462 L0.0515175777,73.8461538 L127.956808,147.692308 Z" id="Polygon-Copy-3" fill="#353433"></path>
                            <polygon id="Polygon-Copy-2" fill="#252423" points="255.862098 73.8461538 255.862098 221.538462 127.956808 295.384615 127.956808 147.692308"></polygon>
                        </g>
                    </g>
                    <g id="box" transform="translate(362.000000, 220.000000)">
                        <g>
                            <path d="M127.956808,-5.68434189e-14 L255.862098,73.8461538 C236.985999,102.956592 220.099365,121.812253 205.202197,130.413137 C190.305028,139.014021 164.556565,144.773745 127.956808,147.692308 C89.3345628,144.806493 62.5464956,139.046769 47.5926065,130.413137 C32.6387174,121.779505 16.7916877,102.923844 0.0515175777,73.8461538 L127.956808,-5.68434189e-14 Z" id="Polygon-Copy" fill="#8B8685"></path>
                            <path d="M127.956808,147.692308 C155.228587,176.244367 168.864476,199.294902 168.864476,216.843914 C168.864476,234.392925 155.228587,260.573159 127.956808,295.384615 L0.0515175777,221.538462 L0.0515175777,73.8461538 L127.956808,147.692308 Z" id="Polygon-Copy-3" fill="#353433"></path>
                            <polygon id="Polygon-Copy-2" fill="#252423" points="255.862098 73.8461538 255.862098 221.538462 127.956808 295.384615 127.956808 147.692308"></polygon>
                        </g>
                    </g>
                    <g id="box" transform="translate(512.000000, 0.000000)">
                        <g>
                            <path d="M127.956808,-5.68434189e-14 L255.862098,73.8461538 C236.985999,102.956592 220.099365,121.812253 205.202197,130.413137 C190.305028,139.014021 164.556565,144.773745 127.956808,147.692308 C89.3345628,144.806493 62.5464956,139.046769 47.5926065,130.413137 C32.6387174,121.779505 16.7916877,102.923844 0.0515175777,73.8461538 L127.956808,-5.68434189e-14 Z" id="Polygon-Copy" fill="#8B8685"></path>
                            <path d="M127.956808,147.692308 C155.228587,176.244367 168.864476,199.294902 168.864476,216.843914 C168.864476,234.392925 155.228587,260.573159 127.956808,295.384615 L0.0515175777,221.538462 L0.0515175777,73.8461538 L127.956808,147.692308 Z" id="Polygon-Copy-3" fill="#353433"></path>
                            <polygon id="Polygon-Copy-2" fill="#252423" points="255.862098 73.8461538 255.862098 221.538462 127.956808 295.384615 127.956808 147.692308"></polygon>
                        </g>
                    </g>
                    <g id="box" transform="translate(384.000000, 220.000000)">
                        <g>
                            <path d="M127.956808,-5.68434189e-14 L255.862098,73.8461538 C236.985999,102.956592 220.099365,121.812253 205.202197,130.413137 C190.305028,139.014021 164.556565,144.773745 127.956808,147.692308 C89.3345628,144.806493 62.5464956,139.046769 47.5926065,130.413137 C32.6387174,121.779505 16.7916877,102.923844 0.0515175777,73.8461538 L127.956808,-5.68434189e-14 Z" id="Polygon-Copy" fill="#8B8685"></path>
                            <path d="M127.956808,147.692308 C155.228587,176.244367 168.864476,199.294902 168.864476,216.843914 C168.864476,234.392925 155.228587,260.573159 127.956808,295.384615 L0.0515175777,221.538462 L0.0515175777,73.8461538 L127.956808,147.692308 Z" id="Polygon-Copy-3" fill="#353433"></path>
                            <polygon id="Polygon-Copy-2" fill="#252423" points="255.862098 73.8461538 255.862098 221.538462 127.956808 295.384615 127.956808 147.692308"></polygon>
                        </g>
                    </g>
                    <g id="box" transform="translate(1024.000000, 0.000000)">
                        <g>
                            <path d="M127.956808,-5.68434189e-14 L255.862098,73.8461538 C236.985999,102.956592 220.099365,121.812253 205.202197,130.413137 C190.305028,139.014021 164.556565,144.773745 127.956808,147.692308 C89.3345628,144.806493 62.5464956,139.046769 47.5926065,130.413137 C32.6387174,121.779505 16.7916877,102.923844 0.0515175777,73.8461538 L127.956808,-5.68434189e-14 Z" id="Polygon-Copy" fill="#8B8685"></path>
                            <path d="M127.956808,147.692308 C155.228587,176.244367 168.864476,199.294902 168.864476,216.843914 C168.864476,234.392925 155.228587,260.573159 127.956808,295.384615 L0.0515175777,221.538462 L0.0515175777,73.8461538 L127.956808,147.692308 Z" id="Polygon-Copy-3" fill="#353433"></path>
                            <polygon id="Polygon-Copy-2" fill="#252423" points="255.862098 73.8461538 255.862098 221.538462 127.956808 295.384615 127.956808 147.692308"></polygon>
                        </g>
                    </g>
                    <g id="box" transform="translate(896.000000, 220.000000)">
                        <g>
                            <path d="M127.956808,-5.68434189e-14 L255.862098,73.8461538 C236.985999,102.956592 220.099365,121.812253 205.202197,130.413137 C190.305028,139.014021 164.556565,144.773745 127.956808,147.692308 C89.3345628,144.806493 62.5464956,139.046769 47.5926065,130.413137 C32.6387174,121.779505 16.7916877,102.923844 0.0515175777,73.8461538 L127.956808,-5.68434189e-14 Z" id="Polygon-Copy" fill="#8B8685"></path>
                            <path d="M127.956808,147.692308 C155.228587,176.244367 168.864476,199.294902 168.864476,216.843914 C168.864476,234.392925 155.228587,260.573159 127.956808,295.384615 L0.0515175777,221.538462 L0.0515175777,73.8461538 L127.956808,147.692308 Z" id="Polygon-Copy-3" fill="#353433"></path>
                            <polygon id="Polygon-Copy-2" fill="#252423" points="255.862098 73.8461538 255.862098 221.538462 127.956808 295.384615 127.956808 147.692308"></polygon>
                        </g>
                    </g>
                    <g id="box" transform="translate(1536.000000, 0.000000)">
                        <g>
                            <path d="M127.956808,-5.68434189e-14 L255.862098,73.8461538 C236.985999,102.956592 220.099365,121.812253 205.202197,130.413137 C190.305028,139.014021 164.556565,144.773745 127.956808,147.692308 C89.3345628,144.806493 62.5464956,139.046769 47.5926065,130.413137 C32.6387174,121.779505 16.7916877,102.923844 0.0515175777,73.8461538 L127.956808,-5.68434189e-14 Z" id="Polygon-Copy" fill="#8B8685"></path>
                            <path d="M127.956808,147.692308 C155.228587,176.244367 168.864476,199.294902 168.864476,216.843914 C168.864476,234.392925 155.228587,260.573159 127.956808,295.384615 L0.0515175777,221.538462 L0.0515175777,73.8461538 L127.956808,147.692308 Z" id="Polygon-Copy-3" fill="#353433"></path>
                            <polygon id="Polygon-Copy-2" fill="#252423" points="255.862098 73.8461538 255.862098 221.538462 127.956808 295.384615 127.956808 147.692308"></polygon>
                        </g>
                    </g>
                    <g id="box" transform="translate(2048.000000, 0.000000)">
                        <g>
                            <path d="M127.956808,-5.68434189e-14 L255.862098,73.8461538 C236.985999,102.956592 220.099365,121.812253 205.202197,130.413137 C190.305028,139.014021 164.556565,144.773745 127.956808,147.692308 C89.3345628,144.806493 62.5464956,139.046769 47.5926065,130.413137 C32.6387174,121.779505 16.7916877,102.923844 0.0515175777,73.8461538 L127.956808,-5.68434189e-14 Z" id="Polygon-Copy" fill="#8B8685"></path>
                            <path d="M127.956808,147.692308 C155.228587,176.244367 168.864476,199.294902 168.864476,216.843914 C168.864476,234.392925 155.228587,260.573159 127.956808,295.384615 L0.0515175777,221.538462 L0.0515175777,73.8461538 L127.956808,147.692308 Z" id="Polygon-Copy-3" fill="#353433"></path>
                            <polygon id="Polygon-Copy-2" fill="#252423" points="255.862098 73.8461538 255.862098 221.538462 127.956808 295.384615 127.956808 147.692308"></polygon>
                        </g>
                    </g>
                    <g id="box" transform="translate(2560.000000, 0.000000)">
                        <g>
                            <path d="M127.956808,-5.68434189e-14 L255.862098,73.8461538 C236.985999,102.956592 220.099365,121.812253 205.202197,130.413137 C190.305028,139.014021 164.556565,144.773745 127.956808,147.692308 C89.3345628,144.806493 62.5464956,139.046769 47.5926065,130.413137 C32.6387174,121.779505 16.7916877,102.923844 0.0515175777,73.8461538 L127.956808,-5.68434189e-14 Z" id="Polygon-Copy" fill="#8B8685"></path>
                            <path d="M127.956808,147.692308 C155.228587,176.244367 168.864476,199.294902 168.864476,216.843914 C168.864476,234.392925 155.228587,260.573159 127.956808,295.384615 L0.0515175777,221.538462 L0.0515175777,73.8461538 L127.956808,147.692308 Z" id="Polygon-Copy-3" fill="#353433"></path>
                            <polygon id="Polygon-Copy-2" fill="#252423" points="255.862098 73.8461538 255.862098 221.538462 127.956808 295.384615 127.956808 147.692308"></polygon>
                        </g>
                    </g>
                    <g id="box" transform="translate(1408.000000, 220.000000)">
                        <g>
                            <path d="M127.956808,-5.68434189e-14 L255.862098,73.8461538 C236.985999,102.956592 220.099365,121.812253 205.202197,130.413137 C190.305028,139.014021 164.556565,144.773745 127.956808,147.692308 C89.3345628,144.806493 62.5464956,139.046769 47.5926065,130.413137 C32.6387174,121.779505 16.7916877,102.923844 0.0515175777,73.8461538 L127.956808,-5.68434189e-14 Z" id="Polygon-Copy" fill="#8B8685"></path>
                            <path d="M127.956808,147.692308 C155.228587,176.244367 168.864476,199.294902 168.864476,216.843914 C168.864476,234.392925 155.228587,260.573159 127.956808,295.384615 L0.0515175777,221.538462 L0.0515175777,73.8461538 L127.956808,147.692308 Z" id="Polygon-Copy-3" fill="#353433"></path>
                            <polygon id="Polygon-Copy-2" fill="#252423" points="255.862098 73.8461538 255.862098 221.538462 127.956808 295.384615 127.956808 147.692308"></polygon>
                        </g>
                    </g>
                    <g id="box" transform="translate(1920.000000, 220.000000)">
                        <g>
                            <path d="M127.956808,-5.68434189e-14 L255.862098,73.8461538 C236.985999,102.956592 220.099365,121.812253 205.202197,130.413137 C190.305028,139.014021 164.556565,144.773745 127.956808,147.692308 C89.3345628,144.806493 62.5464956,139.046769 47.5926065,130.413137 C32.6387174,121.779505 16.7916877,102.923844 0.0515175777,73.8461538 L127.956808,-5.68434189e-14 Z" id="Polygon-Copy" fill="#8B8685"></path>
                            <path d="M127.956808,147.692308 C155.228587,176.244367 168.864476,199.294902 168.864476,216.843914 C168.864476,234.392925 155.228587,260.573159 127.956808,295.384615 L0.0515175777,221.538462 L0.0515175777,73.8461538 L127.956808,147.692308 Z" id="Polygon-Copy-3" fill="#353433"></path>
                            <polygon id="Polygon-Copy-2" fill="#252423" points="255.862098 73.8461538 255.862098 221.538462 127.956808 295.384615 127.956808 147.692308"></polygon>
                        </g>
                    </g>
                    <g id="box" transform="translate(2432.000000, 220.000000)">
                        <g>
                            <path d="M127.956808,-5.68434189e-14 L255.862098,73.8461538 C236.985999,102.956592 220.099365,121.812253 205.202197,130.413137 C190.305028,139.014021 164.556565,144.773745 127.956808,147.692308 C89.3345628,144.806493 62.5464956,139.046769 47.5926065,130.413137 C32.6387174,121.779505 16.7916877,102.923844 0.0515175777,73.8461538 L127.956808,-5.68434189e-14 Z" id="Polygon-Copy" fill="#8B8685"></path>
                            <path d="M127.956808,147.692308 C155.228587,176.244367 168.864476,199.294902 168.864476,216.843914 C168.864476,234.392925 155.228587,260.573159 127.956808,295.384615 L0.0515175777,221.538462 L0.0515175777,73.8461538 L127.956808,147.692308 Z" id="Polygon-Copy-3" fill="#353433"></path>
                            <polygon id="Polygon-Copy-2" fill="#252423" points="255.862098 73.8461538 255.862098 221.538462 127.956808 295.384615 127.956808 147.692308"></polygon>
                        </g>
                    </g>
                    <g id="box2" transform="translate(256.000000, 0.000000)">
                        <g id="box-copy">
                            <path d="M127.956808,-5.68434189e-14 L255.862098,73.8461538 C236.985999,102.956592 220.099365,121.812253 205.202197,130.413137 C190.305028,139.014021 164.556565,144.773745 127.956808,147.692308 C89.3345628,144.806493 62.5464956,139.046769 47.5926065,130.413137 C32.6387174,121.779505 16.7916877,102.923844 0.0515175777,73.8461538 L127.956808,-5.68434189e-14 Z" id="Polygon-Copy" fill="#353433"></path>
                            <path d="M127.956808,147.692308 C155.228587,176.244367 168.864476,199.294902 168.864476,216.843914 C168.864476,234.392925 155.228587,260.573159 127.956808,295.384615 L0.0515175777,221.538462 L0.0515175777,73.8461538 L127.956808,147.692308 Z" id="Polygon-Copy-3" fill="#8B8685"></path>
                            <polygon id="Polygon-Copy-2" fill="#252423" points="255.862098 73.8461538 255.862098 221.538462 127.956808 295.384615 127.956808 147.692308"></polygon>
                        </g>
                    </g>
                    <g id="box2" transform="translate(128.000000, 220.000000)">
                        <g id="box-copy">
                            <path d="M127.956808,-5.68434189e-14 L255.862098,73.8461538 C236.985999,102.956592 220.099365,121.812253 205.202197,130.413137 C190.305028,139.014021 164.556565,144.773745 127.956808,147.692308 C89.3345628,144.806493 62.5464956,139.046769 47.5926065,130.413137 C32.6387174,121.779505 16.7916877,102.923844 0.0515175777,73.8461538 L127.956808,-5.68434189e-14 Z" id="Polygon-Copy" fill="#353433"></path>
                            <path d="M127.956808,147.692308 C155.228587,176.244367 168.864476,199.294902 168.864476,216.843914 C168.864476,234.392925 155.228587,260.573159 127.956808,295.384615 L0.0515175777,221.538462 L0.0515175777,73.8461538 L127.956808,147.692308 Z" id="Polygon-Copy-3" fill="#8B8685"></path>
                            <polygon id="Polygon-Copy-2" fill="#252423" points="255.862098 73.8461538 255.862098 221.538462 127.956808 295.384615 127.956808 147.692308"></polygon>
                        </g>
                    </g>
                    <g id="box2" transform="translate(768.000000, 0.000000)">
                        <g id="box-copy">
                            <path d="M127.956808,-5.68434189e-14 L255.862098,73.8461538 C236.985999,102.956592 220.099365,121.812253 205.202197,130.413137 C190.305028,139.014021 164.556565,144.773745 127.956808,147.692308 C89.3345628,144.806493 62.5464956,139.046769 47.5926065,130.413137 C32.6387174,121.779505 16.7916877,102.923844 0.0515175777,73.8461538 L127.956808,-5.68434189e-14 Z" id="Polygon-Copy" fill="#353433"></path>
                            <path d="M127.956808,147.692308 C155.228587,176.244367 168.864476,199.294902 168.864476,216.843914 C168.864476,234.392925 155.228587,260.573159 127.956808,295.384615 L0.0515175777,221.538462 L0.0515175777,73.8461538 L127.956808,147.692308 Z" id="Polygon-Copy-3" fill="#8B8685"></path>
                            <polygon id="Polygon-Copy-2" fill="#252423" points="255.862098 73.8461538 255.862098 221.538462 127.956808 295.384615 127.956808 147.692308"></polygon>
                        </g>
                    </g>
                    <g id="box2" transform="translate(640.000000, 220.000000)">
                        <g id="box-copy">
                            <path d="M127.956808,-5.68434189e-14 L255.862098,73.8461538 C236.985999,102.956592 220.099365,121.812253 205.202197,130.413137 C190.305028,139.014021 164.556565,144.773745 127.956808,147.692308 C89.3345628,144.806493 62.5464956,139.046769 47.5926065,130.413137 C32.6387174,121.779505 16.7916877,102.923844 0.0515175777,73.8461538 L127.956808,-5.68434189e-14 Z" id="Polygon-Copy" fill="#353433"></path>
                            <path d="M127.956808,147.692308 C155.228587,176.244367 168.864476,199.294902 168.864476,216.843914 C168.864476,234.392925 155.228587,260.573159 127.956808,295.384615 L0.0515175777,221.538462 L0.0515175777,73.8461538 L127.956808,147.692308 Z" id="Polygon-Copy-3" fill="#8B8685"></path>
                            <polygon id="Polygon-Copy-2" fill="#252423" points="255.862098 73.8461538 255.862098 221.538462 127.956808 295.384615 127.956808 147.692308"></polygon>
                        </g>
                    </g>
                    <g id="box2" transform="translate(1280.000000, 0.000000)">
                        <g id="box-copy">
                            <path d="M127.956808,-5.68434189e-14 L255.862098,73.8461538 C236.985999,102.956592 220.099365,121.812253 205.202197,130.413137 C190.305028,139.014021 164.556565,144.773745 127.956808,147.692308 C89.3345628,144.806493 62.5464956,139.046769 47.5926065,130.413137 C32.6387174,121.779505 16.7916877,102.923844 0.0515175777,73.8461538 L127.956808,-5.68434189e-14 Z" id="Polygon-Copy" fill="#353433"></path>
                            <path d="M127.956808,147.692308 C155.228587,176.244367 168.864476,199.294902 168.864476,216.843914 C168.864476,234.392925 155.228587,260.573159 127.956808,295.384615 L0.0515175777,221.538462 L0.0515175777,73.8461538 L127.956808,147.692308 Z" id="Polygon-Copy-3" fill="#8B8685"></path>
                            <polygon id="Polygon-Copy-2" fill="#252423" points="255.862098 73.8461538 255.862098 221.538462 127.956808 295.384615 127.956808 147.692308"></polygon>
                        </g>
                    </g>
                    <g id="box2" transform="translate(1792.000000, 0.000000)">
                        <g id="box-copy">
                            <path d="M127.956808,-5.68434189e-14 L255.862098,73.8461538 C236.985999,102.956592 220.099365,121.812253 205.202197,130.413137 C190.305028,139.014021 164.556565,144.773745 127.956808,147.692308 C89.3345628,144.806493 62.5464956,139.046769 47.5926065,130.413137 C32.6387174,121.779505 16.7916877,102.923844 0.0515175777,73.8461538 L127.956808,-5.68434189e-14 Z" id="Polygon-Copy" fill="#353433"></path>
                            <path d="M127.956808,147.692308 C155.228587,176.244367 168.864476,199.294902 168.864476,216.843914 C168.864476,234.392925 155.228587,260.573159 127.956808,295.384615 L0.0515175777,221.538462 L0.0515175777,73.8461538 L127.956808,147.692308 Z" id="Polygon-Copy-3" fill="#8B8685"></path>
                            <polygon id="Polygon-Copy-2" fill="#252423" points="255.862098 73.8461538 255.862098 221.538462 127.956808 295.384615 127.956808 147.692308"></polygon>
                        </g>
                    </g>
                    <g id="box2" transform="translate(2304.000000, 0.000000)">
                        <g id="box-copy">
                            <path d="M127.956808,-5.68434189e-14 L255.862098,73.8461538 C236.985999,102.956592 220.099365,121.812253 205.202197,130.413137 C190.305028,139.014021 164.556565,144.773745 127.956808,147.692308 C89.3345628,144.806493 62.5464956,139.046769 47.5926065,130.413137 C32.6387174,121.779505 16.7916877,102.923844 0.0515175777,73.8461538 L127.956808,-5.68434189e-14 Z" id="Polygon-Copy" fill="#353433"></path>
                            <path d="M127.956808,147.692308 C155.228587,176.244367 168.864476,199.294902 168.864476,216.843914 C168.864476,234.392925 155.228587,260.573159 127.956808,295.384615 L0.0515175777,221.538462 L0.0515175777,73.8461538 L127.956808,147.692308 Z" id="Polygon-Copy-3" fill="#8B8685"></path>
                            <polygon id="Polygon-Copy-2" fill="#252423" points="255.862098 73.8461538 255.862098 221.538462 127.956808 295.384615 127.956808 147.692308"></polygon>
                        </g>
                    </g>
                    <g id="box2" transform="translate(1152.000000, 220.000000)">
                        <g id="box-copy">
                            <path d="M127.956808,-5.68434189e-14 L255.862098,73.8461538 C236.985999,102.956592 220.099365,121.812253 205.202197,130.413137 C190.305028,139.014021 164.556565,144.773745 127.956808,147.692308 C89.3345628,144.806493 62.5464956,139.046769 47.5926065,130.413137 C32.6387174,121.779505 16.7916877,102.923844 0.0515175777,73.8461538 L127.956808,-5.68434189e-14 Z" id="Polygon-Copy" fill="#353433"></path>
                            <path d="M127.956808,147.692308 C155.228587,176.244367 168.864476,199.294902 168.864476,216.843914 C168.864476,234.392925 155.228587,260.573159 127.956808,295.384615 L0.0515175777,221.538462 L0.0515175777,73.8461538 L127.956808,147.692308 Z" id="Polygon-Copy-3" fill="#8B8685"></path>
                            <polygon id="Polygon-Copy-2" fill="#252423" points="255.862098 73.8461538 255.862098 221.538462 127.956808 295.384615 127.956808 147.692308"></polygon>
                        </g>
                    </g>
                    <g id="box2" transform="translate(1664.000000, 220.000000)">
                        <g id="box-copy">
                            <path d="M127.956808,-5.68434189e-14 L255.862098,73.8461538 C236.985999,102.956592 220.099365,121.812253 205.202197,130.413137 C190.305028,139.014021 164.556565,144.773745 127.956808,147.692308 C89.3345628,144.806493 62.5464956,139.046769 47.5926065,130.413137 C32.6387174,121.779505 16.7916877,102.923844 0.0515175777,73.8461538 L127.956808,-5.68434189e-14 Z" id="Polygon-Copy" fill="#353433"></path>
                            <path d="M127.956808,147.692308 C155.228587,176.244367 168.864476,199.294902 168.864476,216.843914 C168.864476,234.392925 155.228587,260.573159 127.956808,295.384615 L0.0515175777,221.538462 L0.0515175777,73.8461538 L127.956808,147.692308 Z" id="Polygon-Copy-3" fill="#8B8685"></path>
                            <polygon id="Polygon-Copy-2" fill="#252423" points="255.862098 73.8461538 255.862098 221.538462 127.956808 295.384615 127.956808 147.692308"></polygon>
                        </g>
                    </g>
                    <g id="box2" transform="translate(2176.000000, 220.000000)">
                        <g id="box-copy">
                            <path d="M127.956808,-5.68434189e-14 L255.862098,73.8461538 C236.985999,102.956592 220.099365,121.812253 205.202197,130.413137 C190.305028,139.014021 164.556565,144.773745 127.956808,147.692308 C89.3345628,144.806493 62.5464956,139.046769 47.5926065,130.413137 C32.6387174,121.779505 16.7916877,102.923844 0.0515175777,73.8461538 L127.956808,-5.68434189e-14 Z" id="Polygon-Copy" fill="#353433"></path>
                            <path d="M127.956808,147.692308 C155.228587,176.244367 168.864476,199.294902 168.864476,216.843914 C168.864476,234.392925 155.228587,260.573159 127.956808,295.384615 L0.0515175777,221.538462 L0.0515175777,73.8461538 L127.956808,147.692308 Z" id="Polygon-Copy-3" fill="#8B8685"></path>
                            <polygon id="Polygon-Copy-2" fill="#252423" points="255.862098 73.8461538 255.862098 221.538462 127.956808 295.384615 127.956808 147.692308"></polygon>
                        </g>
                    </g>
                    <g id="box2" transform="translate(2688.000000, 220.000000)">
                        <g id="box-copy">
                            <path d="M127.956808,-5.68434189e-14 L255.862098,73.8461538 C236.985999,102.956592 220.099365,121.812253 205.202197,130.413137 C190.305028,139.014021 164.556565,144.773745 127.956808,147.692308 C89.3345628,144.806493 62.5464956,139.046769 47.5926065,130.413137 C32.6387174,121.779505 16.7916877,102.923844 0.0515175777,73.8461538 L127.956808,-5.68434189e-14 Z" id="Polygon-Copy" fill="#353433"></path>
                            <path d="M127.956808,147.692308 C155.228587,176.244367 168.864476,199.294902 168.864476,216.843914 C168.864476,234.392925 155.228587,260.573159 127.956808,295.384615 L0.0515175777,221.538462 L0.0515175777,73.8461538 L127.956808,147.692308 Z" id="Polygon-Copy-3" fill="#8B8685"></path>
                            <polygon id="Polygon-Copy-2" fill="#252423" points="255.862098 73.8461538 255.862098 221.538462 127.956808 295.384615 127.956808 147.692308"></polygon>
                        </g>
                    </g>
                </g>
            </g>
            <g id="row" transform="translate(0.000000, 440.000000)">
                <g transform="translate(0.422712, 0.000000)">
                    <g id="box">
                        <g>
                            <path d="M127.956808,-5.68434189e-14 L255.862098,73.8461538 C236.985999,102.956592 220.099365,121.812253 205.202197,130.413137 C190.305028,139.014021 164.556565,144.773745 127.956808,147.692308 C89.3345628,144.806493 62.5464956,139.046769 47.5926065,130.413137 C32.6387174,121.779505 16.7916877,102.923844 0.0515175777,73.8461538 L127.956808,-5.68434189e-14 Z" id="Polygon-Copy" fill="#8B8685"></path>
                            <path d="M127.956808,147.692308 C155.228587,176.244367 168.864476,199.294902 168.864476,216.843914 C168.864476,234.392925 155.228587,260.573159 127.956808,295.384615 L0.0515175777,221.538462 L0.0515175777,73.8461538 L127.956808,147.692308 Z" id="Polygon-Copy-3" fill="#353433"></path>
                            <polygon id="Polygon-Copy-2" fill="#252423" points="255.862098 73.8461538 255.862098 221.538462 127.956808 295.384615 127.956808 147.692308"></polygon>
                        </g>
                    </g>
                    <g id="box" transform="translate(362.000000, 220.000000)">
                        <g>
                            <path d="M127.956808,-5.68434189e-14 L255.862098,73.8461538 C236.985999,102.956592 220.099365,121.812253 205.202197,130.413137 C190.305028,139.014021 164.556565,144.773745 127.956808,147.692308 C89.3345628,144.806493 62.5464956,139.046769 47.5926065,130.413137 C32.6387174,121.779505 16.7916877,102.923844 0.0515175777,73.8461538 L127.956808,-5.68434189e-14 Z" id="Polygon-Copy" fill="#8B8685"></path>
                            <path d="M127.956808,147.692308 C155.228587,176.244367 168.864476,199.294902 168.864476,216.843914 C168.864476,234.392925 155.228587,260.573159 127.956808,295.384615 L0.0515175777,221.538462 L0.0515175777,73.8461538 L127.956808,147.692308 Z" id="Polygon-Copy-3" fill="#353433"></path>
                            <polygon id="Polygon-Copy-2" fill="#252423" points="255.862098 73.8461538 255.862098 221.538462 127.956808 295.384615 127.956808 147.692308"></polygon>
                        </g>
                    </g>
                    <g id="box" transform="translate(512.000000, 0.000000)">
                        <g>
                            <path d="M127.956808,-5.68434189e-14 L255.862098,73.8461538 C236.985999,102.956592 220.099365,121.812253 205.202197,130.413137 C190.305028,139.014021 164.556565,144.773745 127.956808,147.692308 C89.3345628,144.806493 62.5464956,139.046769 47.5926065,130.413137 C32.6387174,121.779505 16.7916877,102.923844 0.0515175777,73.8461538 L127.956808,-5.68434189e-14 Z" id="Polygon-Copy" fill="#8B8685"></path>
                            <path d="M127.956808,147.692308 C155.228587,176.244367 168.864476,199.294902 168.864476,216.843914 C168.864476,234.392925 155.228587,260.573159 127.956808,295.384615 L0.0515175777,221.538462 L0.0515175777,73.8461538 L127.956808,147.692308 Z" id="Polygon-Copy-3" fill="#353433"></path>
                            <polygon id="Polygon-Copy-2" fill="#252423" points="255.862098 73.8461538 255.862098 221.538462 127.956808 295.384615 127.956808 147.692308"></polygon>
                        </g>
                    </g>
                    <g id="box" transform="translate(384.000000, 220.000000)">
                        <g>
                            <path d="M127.956808,-5.68434189e-14 L255.862098,73.8461538 C236.985999,102.956592 220.099365,121.812253 205.202197,130.413137 C190.305028,139.014021 164.556565,144.773745 127.956808,147.692308 C89.3345628,144.806493 62.5464956,139.046769 47.5926065,130.413137 C32.6387174,121.779505 16.7916877,102.923844 0.0515175777,73.8461538 L127.956808,-5.68434189e-14 Z" id="Polygon-Copy" fill="#8B8685"></path>
                            <path d="M127.956808,147.692308 C155.228587,176.244367 168.864476,199.294902 168.864476,216.843914 C168.864476,234.392925 155.228587,260.573159 127.956808,295.384615 L0.0515175777,221.538462 L0.0515175777,73.8461538 L127.956808,147.692308 Z" id="Polygon-Copy-3" fill="#353433"></path>
                            <polygon id="Polygon-Copy-2" fill="#252423" points="255.862098 73.8461538 255.862098 221.538462 127.956808 295.384615 127.956808 147.692308"></polygon>
                        </g>
                    </g>
                    <g id="box" transform="translate(1024.000000, 0.000000)">
                        <g>
                            <path d="M127.956808,-5.68434189e-14 L255.862098,73.8461538 C236.985999,102.956592 220.099365,121.812253 205.202197,130.413137 C190.305028,139.014021 164.556565,144.773745 127.956808,147.692308 C89.3345628,144.806493 62.5464956,139.046769 47.5926065,130.413137 C32.6387174,121.779505 16.7916877,102.923844 0.0515175777,73.8461538 L127.956808,-5.68434189e-14 Z" id="Polygon-Copy" fill="#8B8685"></path>
                            <path d="M127.956808,147.692308 C155.228587,176.244367 168.864476,199.294902 168.864476,216.843914 C168.864476,234.392925 155.228587,260.573159 127.956808,295.384615 L0.0515175777,221.538462 L0.0515175777,73.8461538 L127.956808,147.692308 Z" id="Polygon-Copy-3" fill="#353433"></path>
                            <polygon id="Polygon-Copy-2" fill="#252423" points="255.862098 73.8461538 255.862098 221.538462 127.956808 295.384615 127.956808 147.692308"></polygon>
                        </g>
                    </g>
                    <g id="box" transform="translate(896.000000, 220.000000)">
                        <g>
                            <path d="M127.956808,-5.68434189e-14 L255.862098,73.8461538 C236.985999,102.956592 220.099365,121.812253 205.202197,130.413137 C190.305028,139.014021 164.556565,144.773745 127.956808,147.692308 C89.3345628,144.806493 62.5464956,139.046769 47.5926065,130.413137 C32.6387174,121.779505 16.7916877,102.923844 0.0515175777,73.8461538 L127.956808,-5.68434189e-14 Z" id="Polygon-Copy" fill="#8B8685"></path>
                            <path d="M127.956808,147.692308 C155.228587,176.244367 168.864476,199.294902 168.864476,216.843914 C168.864476,234.392925 155.228587,260.573159 127.956808,295.384615 L0.0515175777,221.538462 L0.0515175777,73.8461538 L127.956808,147.692308 Z" id="Polygon-Copy-3" fill="#353433"></path>
                            <polygon id="Polygon-Copy-2" fill="#252423" points="255.862098 73.8461538 255.862098 221.538462 127.956808 295.384615 127.956808 147.692308"></polygon>
                        </g>
                    </g>
                    <g id="box" transform="translate(1536.000000, 0.000000)">
                        <g>
                            <path d="M127.956808,-5.68434189e-14 L255.862098,73.8461538 C236.985999,102.956592 220.099365,121.812253 205.202197,130.413137 C190.305028,139.014021 164.556565,144.773745 127.956808,147.692308 C89.3345628,144.806493 62.5464956,139.046769 47.5926065,130.413137 C32.6387174,121.779505 16.7916877,102.923844 0.0515175777,73.8461538 L127.956808,-5.68434189e-14 Z" id="Polygon-Copy" fill="#8B8685"></path>
                            <path d="M127.956808,147.692308 C155.228587,176.244367 168.864476,199.294902 168.864476,216.843914 C168.864476,234.392925 155.228587,260.573159 127.956808,295.384615 L0.0515175777,221.538462 L0.0515175777,73.8461538 L127.956808,147.692308 Z" id="Polygon-Copy-3" fill="#353433"></path>
                            <polygon id="Polygon-Copy-2" fill="#252423" points="255.862098 73.8461538 255.862098 221.538462 127.956808 295.384615 127.956808 147.692308"></polygon>
                        </g>
                    </g>
                    <g id="box" transform="translate(2048.000000, 0.000000)">
                        <g>
                            <path d="M127.956808,-5.68434189e-14 L255.862098,73.8461538 C236.985999,102.956592 220.099365,121.812253 205.202197,130.413137 C190.305028,139.014021 164.556565,144.773745 127.956808,147.692308 C89.3345628,144.806493 62.5464956,139.046769 47.5926065,130.413137 C32.6387174,121.779505 16.7916877,102.923844 0.0515175777,73.8461538 L127.956808,-5.68434189e-14 Z" id="Polygon-Copy" fill="#8B8685"></path>
                            <path d="M127.956808,147.692308 C155.228587,176.244367 168.864476,199.294902 168.864476,216.843914 C168.864476,234.392925 155.228587,260.573159 127.956808,295.384615 L0.0515175777,221.538462 L0.0515175777,73.8461538 L127.956808,147.692308 Z" id="Polygon-Copy-3" fill="#353433"></path>
                            <polygon id="Polygon-Copy-2" fill="#252423" points="255.862098 73.8461538 255.862098 221.538462 127.956808 295.384615 127.956808 147.692308"></polygon>
                        </g>
                    </g>
                    <g id="box" transform="translate(2560.000000, 0.000000)">
                        <g>
                            <path d="M127.956808,-5.68434189e-14 L255.862098,73.8461538 C236.985999,102.956592 220.099365,121.812253 205.202197,130.413137 C190.305028,139.014021 164.556565,144.773745 127.956808,147.692308 C89.3345628,144.806493 62.5464956,139.046769 47.5926065,130.413137 C32.6387174,121.779505 16.7916877,102.923844 0.0515175777,73.8461538 L127.956808,-5.68434189e-14 Z" id="Polygon-Copy" fill="#8B8685"></path>
                            <path d="M127.956808,147.692308 C155.228587,176.244367 168.864476,199.294902 168.864476,216.843914 C168.864476,234.392925 155.228587,260.573159 127.956808,295.384615 L0.0515175777,221.538462 L0.0515175777,73.8461538 L127.956808,147.692308 Z" id="Polygon-Copy-3" fill="#353433"></path>
                            <polygon id="Polygon-Copy-2" fill="#252423" points="255.862098 73.8461538 255.862098 221.538462 127.956808 295.384615 127.956808 147.692308"></polygon>
                        </g>
                    </g>
                    <g id="box" transform="translate(1408.000000, 220.000000)">
                        <g>
                            <path d="M127.956808,-5.68434189e-14 L255.862098,73.8461538 C236.985999,102.956592 220.099365,121.812253 205.202197,130.413137 C190.305028,139.014021 164.556565,144.773745 127.956808,147.692308 C89.3345628,144.806493 62.5464956,139.046769 47.5926065,130.413137 C32.6387174,121.779505 16.7916877,102.923844 0.0515175777,73.8461538 L127.956808,-5.68434189e-14 Z" id="Polygon-Copy" fill="#8B8685"></path>
                            <path d="M127.956808,147.692308 C155.228587,176.244367 168.864476,199.294902 168.864476,216.843914 C168.864476,234.392925 155.228587,260.573159 127.956808,295.384615 L0.0515175777,221.538462 L0.0515175777,73.8461538 L127.956808,147.692308 Z" id="Polygon-Copy-3" fill="#353433"></path>
                            <polygon id="Polygon-Copy-2" fill="#252423" points="255.862098 73.8461538 255.862098 221.538462 127.956808 295.384615 127.956808 147.692308"></polygon>
                        </g>
                    </g>
                    <g id="box" transform="translate(1920.000000, 220.000000)">
                        <g>
                            <path d="M127.956808,-5.68434189e-14 L255.862098,73.8461538 C236.985999,102.956592 220.099365,121.812253 205.202197,130.413137 C190.305028,139.014021 164.556565,144.773745 127.956808,147.692308 C89.3345628,144.806493 62.5464956,139.046769 47.5926065,130.413137 C32.6387174,121.779505 16.7916877,102.923844 0.0515175777,73.8461538 L127.956808,-5.68434189e-14 Z" id="Polygon-Copy" fill="#8B8685"></path>
                            <path d="M127.956808,147.692308 C155.228587,176.244367 168.864476,199.294902 168.864476,216.843914 C168.864476,234.392925 155.228587,260.573159 127.956808,295.384615 L0.0515175777,221.538462 L0.0515175777,73.8461538 L127.956808,147.692308 Z" id="Polygon-Copy-3" fill="#353433"></path>
                            <polygon id="Polygon-Copy-2" fill="#252423" points="255.862098 73.8461538 255.862098 221.538462 127.956808 295.384615 127.956808 147.692308"></polygon>
                        </g>
                    </g>
                    <g id="box" transform="translate(2432.000000, 220.000000)">
                        <g>
                            <path d="M127.956808,-5.68434189e-14 L255.862098,73.8461538 C236.985999,102.956592 220.099365,121.812253 205.202197,130.413137 C190.305028,139.014021 164.556565,144.773745 127.956808,147.692308 C89.3345628,144.806493 62.5464956,139.046769 47.5926065,130.413137 C32.6387174,121.779505 16.7916877,102.923844 0.0515175777,73.8461538 L127.956808,-5.68434189e-14 Z" id="Polygon-Copy" fill="#8B8685"></path>
                            <path d="M127.956808,147.692308 C155.228587,176.244367 168.864476,199.294902 168.864476,216.843914 C168.864476,234.392925 155.228587,260.573159 127.956808,295.384615 L0.0515175777,221.538462 L0.0515175777,73.8461538 L127.956808,147.692308 Z" id="Polygon-Copy-3" fill="#353433"></path>
                            <polygon id="Polygon-Copy-2" fill="#252423" points="255.862098 73.8461538 255.862098 221.538462 127.956808 295.384615 127.956808 147.692308"></polygon>
                        </g>
                    </g>
                    <g id="box2" transform="translate(256.000000, 0.000000)">
                        <g id="box-copy">
                            <path d="M127.956808,-5.68434189e-14 L255.862098,73.8461538 C236.985999,102.956592 220.099365,121.812253 205.202197,130.413137 C190.305028,139.014021 164.556565,144.773745 127.956808,147.692308 C89.3345628,144.806493 62.5464956,139.046769 47.5926065,130.413137 C32.6387174,121.779505 16.7916877,102.923844 0.0515175777,73.8461538 L127.956808,-5.68434189e-14 Z" id="Polygon-Copy" fill="#353433"></path>
                            <path d="M127.956808,147.692308 C155.228587,176.244367 168.864476,199.294902 168.864476,216.843914 C168.864476,234.392925 155.228587,260.573159 127.956808,295.384615 L0.0515175777,221.538462 L0.0515175777,73.8461538 L127.956808,147.692308 Z" id="Polygon-Copy-3" fill="#8B8685"></path>
                            <polygon id="Polygon-Copy-2" fill="#252423" points="255.862098 73.8461538 255.862098 221.538462 127.956808 295.384615 127.956808 147.692308"></polygon>
                        </g>
                    </g>
                    <g id="box2" transform="translate(128.000000, 220.000000)">
                        <g id="box-copy">
                            <path d="M127.956808,-5.68434189e-14 L255.862098,73.8461538 C236.985999,102.956592 220.099365,121.812253 205.202197,130.413137 C190.305028,139.014021 164.556565,144.773745 127.956808,147.692308 C89.3345628,144.806493 62.5464956,139.046769 47.5926065,130.413137 C32.6387174,121.779505 16.7916877,102.923844 0.0515175777,73.8461538 L127.956808,-5.68434189e-14 Z" id="Polygon-Copy" fill="#353433"></path>
                            <path d="M127.956808,147.692308 C155.228587,176.244367 168.864476,199.294902 168.864476,216.843914 C168.864476,234.392925 155.228587,260.573159 127.956808,295.384615 L0.0515175777,221.538462 L0.0515175777,73.8461538 L127.956808,147.692308 Z" id="Polygon-Copy-3" fill="#8B8685"></path>
                            <polygon id="Polygon-Copy-2" fill="#252423" points="255.862098 73.8461538 255.862098 221.538462 127.956808 295.384615 127.956808 147.692308"></polygon>
                        </g>
                    </g>
                    <g id="box2" transform="translate(768.000000, 0.000000)">
                        <g id="box-copy">
                            <path d="M127.956808,-5.68434189e-14 L255.862098,73.8461538 C236.985999,102.956592 220.099365,121.812253 205.202197,130.413137 C190.305028,139.014021 164.556565,144.773745 127.956808,147.692308 C89.3345628,144.806493 62.5464956,139.046769 47.5926065,130.413137 C32.6387174,121.779505 16.7916877,102.923844 0.0515175777,73.8461538 L127.956808,-5.68434189e-14 Z" id="Polygon-Copy" fill="#353433"></path>
                            <path d="M127.956808,147.692308 C155.228587,176.244367 168.864476,199.294902 168.864476,216.843914 C168.864476,234.392925 155.228587,260.573159 127.956808,295.384615 L0.0515175777,221.538462 L0.0515175777,73.8461538 L127.956808,147.692308 Z" id="Polygon-Copy-3" fill="#8B8685"></path>
                            <polygon id="Polygon-Copy-2" fill="#252423" points="255.862098 73.8461538 255.862098 221.538462 127.956808 295.384615 127.956808 147.692308"></polygon>
                        </g>
                    </g>
                    <g id="box2" transform="translate(640.000000, 220.000000)">
                        <g id="box-copy">
                            <path d="M127.956808,-5.68434189e-14 L255.862098,73.8461538 C236.985999,102.956592 220.099365,121.812253 205.202197,130.413137 C190.305028,139.014021 164.556565,144.773745 127.956808,147.692308 C89.3345628,144.806493 62.5464956,139.046769 47.5926065,130.413137 C32.6387174,121.779505 16.7916877,102.923844 0.0515175777,73.8461538 L127.956808,-5.68434189e-14 Z" id="Polygon-Copy" fill="#353433"></path>
                            <path d="M127.956808,147.692308 C155.228587,176.244367 168.864476,199.294902 168.864476,216.843914 C168.864476,234.392925 155.228587,260.573159 127.956808,295.384615 L0.0515175777,221.538462 L0.0515175777,73.8461538 L127.956808,147.692308 Z" id="Polygon-Copy-3" fill="#8B8685"></path>
                            <polygon id="Polygon-Copy-2" fill="#252423" points="255.862098 73.8461538 255.862098 221.538462 127.956808 295.384615 127.956808 147.692308"></polygon>
                        </g>
                    </g>
                    <g id="box2" transform="translate(1280.000000, 0.000000)">
                        <g id="box-copy">
                            <path d="M127.956808,-5.68434189e-14 L255.862098,73.8461538 C236.985999,102.956592 220.099365,121.812253 205.202197,130.413137 C190.305028,139.014021 164.556565,144.773745 127.956808,147.692308 C89.3345628,144.806493 62.5464956,139.046769 47.5926065,130.413137 C32.6387174,121.779505 16.7916877,102.923844 0.0515175777,73.8461538 L127.956808,-5.68434189e-14 Z" id="Polygon-Copy" fill="#353433"></path>
                            <path d="M127.956808,147.692308 C155.228587,176.244367 168.864476,199.294902 168.864476,216.843914 C168.864476,234.392925 155.228587,260.573159 127.956808,295.384615 L0.0515175777,221.538462 L0.0515175777,73.8461538 L127.956808,147.692308 Z" id="Polygon-Copy-3" fill="#8B8685"></path>
                            <polygon id="Polygon-Copy-2" fill="#252423" points="255.862098 73.8461538 255.862098 221.538462 127.956808 295.384615 127.956808 147.692308"></polygon>
                        </g>
                    </g>
                    <g id="box2" transform="translate(1792.000000, 0.000000)">
                        <g id="box-copy">
                            <path d="M127.956808,-5.68434189e-14 L255.862098,73.8461538 C236.985999,102.956592 220.099365,121.812253 205.202197,130.413137 C190.305028,139.014021 164.556565,144.773745 127.956808,147.692308 C89.3345628,144.806493 62.5464956,139.046769 47.5926065,130.413137 C32.6387174,121.779505 16.7916877,102.923844 0.0515175777,73.8461538 L127.956808,-5.68434189e-14 Z" id="Polygon-Copy" fill="#353433"></path>
                            <path d="M127.956808,147.692308 C155.228587,176.244367 168.864476,199.294902 168.864476,216.843914 C168.864476,234.392925 155.228587,260.573159 127.956808,295.384615 L0.0515175777,221.538462 L0.0515175777,73.8461538 L127.956808,147.692308 Z" id="Polygon-Copy-3" fill="#8B8685"></path>
                            <polygon id="Polygon-Copy-2" fill="#252423" points="255.862098 73.8461538 255.862098 221.538462 127.956808 295.384615 127.956808 147.692308"></polygon>
                        </g>
                    </g>
                    <g id="box2" transform="translate(2304.000000, 0.000000)">
                        <g id="box-copy">
                            <path d="M127.956808,-5.68434189e-14 L255.862098,73.8461538 C236.985999,102.956592 220.099365,121.812253 205.202197,130.413137 C190.305028,139.014021 164.556565,144.773745 127.956808,147.692308 C89.3345628,144.806493 62.5464956,139.046769 47.5926065,130.413137 C32.6387174,121.779505 16.7916877,102.923844 0.0515175777,73.8461538 L127.956808,-5.68434189e-14 Z" id="Polygon-Copy" fill="#353433"></path>
                            <path d="M127.956808,147.692308 C155.228587,176.244367 168.864476,199.294902 168.864476,216.843914 C168.864476,234.392925 155.228587,260.573159 127.956808,295.384615 L0.0515175777,221.538462 L0.0515175777,73.8461538 L127.956808,147.692308 Z" id="Polygon-Copy-3" fill="#8B8685"></path>
                            <polygon id="Polygon-Copy-2" fill="#252423" points="255.862098 73.8461538 255.862098 221.538462 127.956808 295.384615 127.956808 147.692308"></polygon>
                        </g>
                    </g>
                    <g id="box2" transform="translate(1152.000000, 220.000000)">
                        <g id="box-copy">
                            <path d="M127.956808,-5.68434189e-14 L255.862098,73.8461538 C236.985999,102.956592 220.099365,121.812253 205.202197,130.413137 C190.305028,139.014021 164.556565,144.773745 127.956808,147.692308 C89.3345628,144.806493 62.5464956,139.046769 47.5926065,130.413137 C32.6387174,121.779505 16.7916877,102.923844 0.0515175777,73.8461538 L127.956808,-5.68434189e-14 Z" id="Polygon-Copy" fill="#353433"></path>
                            <path d="M127.956808,147.692308 C155.228587,176.244367 168.864476,199.294902 168.864476,216.843914 C168.864476,234.392925 155.228587,260.573159 127.956808,295.384615 L0.0515175777,221.538462 L0.0515175777,73.8461538 L127.956808,147.692308 Z" id="Polygon-Copy-3" fill="#8B8685"></path>
                            <polygon id="Polygon-Copy-2" fill="#252423" points="255.862098 73.8461538 255.862098 221.538462 127.956808 295.384615 127.956808 147.692308"></polygon>
                        </g>
                    </g>
                    <g id="box2" transform="translate(1664.000000, 220.000000)">
                        <g id="box-copy">
                            <path d="M127.956808,-5.68434189e-14 L255.862098,73.8461538 C236.985999,102.956592 220.099365,121.812253 205.202197,130.413137 C190.305028,139.014021 164.556565,144.773745 127.956808,147.692308 C89.3345628,144.806493 62.5464956,139.046769 47.5926065,130.413137 C32.6387174,121.779505 16.7916877,102.923844 0.0515175777,73.8461538 L127.956808,-5.68434189e-14 Z" id="Polygon-Copy" fill="#353433"></path>
                            <path d="M127.956808,147.692308 C155.228587,176.244367 168.864476,199.294902 168.864476,216.843914 C168.864476,234.392925 155.228587,260.573159 127.956808,295.384615 L0.0515175777,221.538462 L0.0515175777,73.8461538 L127.956808,147.692308 Z" id="Polygon-Copy-3" fill="#8B8685"></path>
                            <polygon id="Polygon-Copy-2" fill="#252423" points="255.862098 73.8461538 255.862098 221.538462 127.956808 295.384615 127.956808 147.692308"></polygon>
                        </g>
                    </g>
                    <g id="box2" transform="translate(2176.000000, 220.000000)">
                        <g id="box-copy">
                            <path d="M127.956808,-5.68434189e-14 L255.862098,73.8461538 C236.985999,102.956592 220.099365,121.812253 205.202197,130.413137 C190.305028,139.014021 164.556565,144.773745 127.956808,147.692308 C89.3345628,144.806493 62.5464956,139.046769 47.5926065,130.413137 C32.6387174,121.779505 16.7916877,102.923844 0.0515175777,73.8461538 L127.956808,-5.68434189e-14 Z" id="Polygon-Copy" fill="#353433"></path>
                            <path d="M127.956808,147.692308 C155.228587,176.244367 168.864476,199.294902 168.864476,216.843914 C168.864476,234.392925 155.228587,260.573159 127.956808,295.384615 L0.0515175777,221.538462 L0.0515175777,73.8461538 L127.956808,147.692308 Z" id="Polygon-Copy-3" fill="#8B8685"></path>
                            <polygon id="Polygon-Copy-2" fill="#252423" points="255.862098 73.8461538 255.862098 221.538462 127.956808 295.384615 127.956808 147.692308"></polygon>
                        </g>
                    </g>
                    <g id="box2" transform="translate(2688.000000, 220.000000)">
                        <g id="box-copy">
                            <path d="M127.956808,-5.68434189e-14 L255.862098,73.8461538 C236.985999,102.956592 220.099365,121.812253 205.202197,130.413137 C190.305028,139.014021 164.556565,144.773745 127.956808,147.692308 C89.3345628,144.806493 62.5464956,139.046769 47.5926065,130.413137 C32.6387174,121.779505 16.7916877,102.923844 0.0515175777,73.8461538 L127.956808,-5.68434189e-14 Z" id="Polygon-Copy" fill="#353433"></path>
                            <path d="M127.956808,147.692308 C155.228587,176.244367 168.864476,199.294902 168.864476,216.843914 C168.864476,234.392925 155.228587,260.573159 127.956808,295.384615 L0.0515175777,221.538462 L0.0515175777,73.8461538 L127.956808,147.692308 Z" id="Polygon-Copy-3" fill="#8B8685"></path>
                            <polygon id="Polygon-Copy-2" fill="#252423" points="255.862098 73.8461538 255.862098 221.538462 127.956808 295.384615 127.956808 147.692308"></polygon>
                        </g>
                    </g>
                </g>
            </g>
        </g></g>
        <g id="hello"><g transform="translate(91.500000, 45.000000)" fill="#D7FC70">
            <path d="M142.83628,416.571602 C156.618858,386.588451 173.907271,364.826812 194.702037,351.286034 C215.496803,337.745256 240.280891,330.974969 269.055045,330.974969 C310.644578,330.974969 342.561647,343.790156 364.807211,369.420914 C387.052775,395.051673 398.175391,432.53005 398.175391,481.85717 L398.175391,730.667724 L296.620063,730.667724 L296.620063,510.872978 C296.620063,441.96009 273.28675,407.504162 226.619426,407.504162 C201.955866,407.504162 182.068146,418.082736 166.955671,439.240202 C151.843195,460.397668 144.287071,487.539267 144.287071,520.665813 L144.287071,730.667724 L42.3690449,730.667724 L42.3690449,192.424485 L144.287071,192.424485 L144.287071,339.317013 C144.287071,365.673171 143.319887,391.424443 141.38549,416.571602 L142.83628,416.571602 Z M656.778779,737.921676 C597.779675,737.921676 552.442928,720.451916 520.767179,685.511873 C489.091431,650.571829 473.253794,599.613326 473.253794,532.634834 C473.253794,467.832539 489.333227,418.022567 521.492575,383.203423 C553.651923,348.384279 599.230465,330.974969 658.22957,330.974969 C714.568879,330.974969 757.608563,349.653708 787.349915,387.011748 C817.091267,424.369787 831.96172,479.076128 831.96172,551.132412 L831.96172,554.033993 L580.249586,554.033993 C580.249586,592.238331 587.322118,621.072502 601.467395,640.53737 C615.612673,660.002239 635.742188,669.734527 661.856546,669.734527 C697.884688,669.734527 720.61351,654.138686 730.043695,622.946537 L826.158559,631.288581 C798.351604,702.377667 741.892242,737.921676 656.778779,737.921676 Z M656.778779,395.172444 C632.840618,395.172444 614.403674,403.514405 601.467395,420.198578 C588.531116,436.882751 581.70038,460.216064 580.974981,490.199215 L733.307973,490.199215 C731.373576,458.523466 723.757003,434.767011 710.458024,418.929137 C697.159046,403.091262 679.266143,395.172444 656.778779,395.172444 Z M909.216309,730.667724 L909.216309,192.424485 L1011.13433,192.424485 L1011.13433,730.667724 L909.216309,730.667724 Z M1115.59124,730.667724 L1115.59124,192.424485 L1217.50927,192.424485 L1217.50927,730.667724 L1115.59124,730.667724 Z M1694.81931,534.085625 C1694.81931,597.678922 1677.1682,647.549343 1641.86546,683.698385 C1606.56272,719.847426 1557.71993,737.921676 1495.33563,737.921676 C1434.16033,737.921676 1386.16383,719.786977 1351.34468,683.517036 C1316.52554,647.247095 1299.11623,597.437122 1299.11623,534.085625 C1299.11623,470.975927 1316.52554,421.347301 1351.34468,385.19826 C1386.16383,349.049218 1434.88572,330.974969 1497.51182,330.974969 C1561.58871,330.974969 1610.49195,348.444728 1644.223,383.384772 C1677.95404,418.324815 1694.81931,468.557931 1694.81931,534.085625 Z M1588.18622,534.085625 C1588.18622,487.4183 1580.56964,453.566863 1565.33627,432.530297 C1550.10289,411.493731 1527.97856,400.975605 1498.96261,400.975605 C1437.06191,400.975605 1406.11202,445.345168 1406.11202,534.085625 C1406.11202,577.851354 1413.66815,611.15875 1428.78062,634.008813 C1443.8931,656.858877 1465.71518,668.283737 1494.24754,668.283737 C1556.87364,668.283737 1588.18622,623.55148 1588.18622,534.085625 Z" transform="translate(868.594178, 465.173081) rotate(-14.000000) translate(-868.594178, -465.173081) "></path>
        </g></g>
    </g>
</svg>
