<?xml version="1.0" encoding="UTF-8"?>
<svg width="1920px" height="1080px" viewBox="0 0 1920 1080" version="1.1" xmlns="http://www.w3.org/2000/svg" xmlns:xlink="http://www.w3.org/1999/xlink">
    <!-- Generator: Sketch 52.6 (67491) - http://www.bohemiancoding.com/sketch -->
    <title>Artboard</title>
    <desc>Created with Sketch.</desc>
    <style type="text/css">
    <![CDATA[
        #Artboard {
            transform: translate(0, 0);
            animation: 2s hello linear infinite;
        }
        @keyframes hello {
            to {
                transform: translate(-512px, 0);
            }
        }
    ]]>
    </style>
    <g id="Artboard" stroke="none" stroke-width="1" fill="none" fill-rule="evenodd">
        <g id="boxes" transform="translate(-408.000000, -210.000000)">
            <g id="row" transform="translate(256.000000, 0.000000)">
                <g transform="translate(0.422712, 0.000000)">
                    <g id="box">
                        <g>
                            <path d="M127.956808,-5.68434189e-14 L255.862098,73.8461538 C236.985999,102.956592 220.099365,121.812253 205.202197,130.413137 C190.305028,139.014021 164.556565,144.773745 127.956808,147.692308 C89.3345628,144.806493 62.5464956,139.046769 47.5926065,130.413137 C32.6387174,121.779505 16.7916877,102.923844 0.0515175777,73.8461538 L127.956808,-5.68434189e-14 Z" id="Polygon-Copy" fill="#FFFFFF"></path>
                            <path d="M127.956808,147.692308 C155.228587,176.244367 168.864476,199.294902 168.864476,216.843914 C168.864476,234.392925 155.228587,260.573159 127.956808,295.384615 L0.0515175777,221.538462 L0.0515175777,73.8461538 L127.956808,147.692308 Z" id="Polygon-Copy-3" fill="#D7FC70"></path>
                            <polygon id="Polygon-Copy-2" fill="#8B8685" points="255.862098 73.8461538 255.862098 221.538462 127.956808 295.384615 127.956808 147.692308"></polygon>
                        </g>
                    </g>
                    <g id="box" transform="translate(362.000000, 220.000000)">
                        <g>
                            <path d="M127.956808,-5.68434189e-14 L255.862098,73.8461538 C236.985999,102.956592 220.099365,121.812253 205.202197,130.413137 C190.305028,139.014021 164.556565,144.773745 127.956808,147.692308 C89.3345628,144.806493 62.5464956,139.046769 47.5926065,130.413137 C32.6387174,121.779505 16.7916877,102.923844 0.0515175777,73.8461538 L127.956808,-5.68434189e-14 Z" id="Polygon-Copy" fill="#FFFFFF"></path>
                            <path d="M127.956808,147.692308 C155.228587,176.244367 168.864476,199.294902 168.864476,216.843914 C168.864476,234.392925 155.228587,260.573159 127.956808,295.384615 L0.0515175777,221.538462 L0.0515175777,73.8461538 L127.956808,147.692308 Z" id="Polygon-Copy-3" fill="#D7FC70"></path>
                            <polygon id="Polygon-Copy-2" fill="#8B8685" points="255.862098 73.8461538 255.862098 221.538462 127.956808 295.384615 127.956808 147.692308"></polygon>
                        </g>
                    </g>
                    <g id="box" transform="translate(512.000000, 0.000000)">
                        <g>
                            <path d="M127.956808,-5.68434189e-14 L255.862098,73.8461538 C236.985999,102.956592 220.099365,121.812253 205.202197,130.413137 C190.305028,139.014021 164.556565,144.773745 127.956808,147.692308 C89.3345628,144.806493 62.5464956,139.046769 47.5926065,130.413137 C32.6387174,121.779505 16.7916877,102.923844 0.0515175777,73.8461538 L127.956808,-5.68434189e-14 Z" id="Polygon-Copy" fill="#FFFFFF"></path>
                            <path d="M127.956808,147.692308 C155.228587,176.244367 168.864476,199.294902 168.864476,216.843914 C168.864476,234.392925 155.228587,260.573159 127.956808,295.384615 L0.0515175777,221.538462 L0.0515175777,73.8461538 L127.956808,147.692308 Z" id="Polygon-Copy-3" fill="#D7FC70"></path>
                            <polygon id="Polygon-Copy-2" fill="#8B8685" points="255.862098 73.8461538 255.862098 221.538462 127.956808 295.384615 127.956808 147.692308"></polygon>
                        </g>
                    </g>
                    <g id="box" transform="translate(384.000000, 220.000000)">
                        <g>
                            <path d="M127.956808,-5.68434189e-14 L255.862098,73.8461538 C236.985999,102.956592 220.099365,121.812253 205.202197,130.413137 C190.305028,139.014021 164.556565,144.773745 127.956808,147.692308 C89.3345628,144.806493 62.5464956,139.046769 47.5926065,130.413137 C32.6387174,121.779505 16.7916877,102.923844 0.0515175777,73.8461538 L127.956808,-5.68434189e-14 Z" id="Polygon-Copy" fill="#FFFFFF"></path>
                            <path d="M127.956808,147.692308 C155.228587,176.244367 168.864476,199.294902 168.864476,216.843914 C168.864476,234.392925 155.228587,260.573159 127.956808,295.384615 L0.0515175777,221.538462 L0.0515175777,73.8461538 L127.956808,147.692308 Z" id="Polygon-Copy-3" fill="#D7FC70"></path>
                            <polygon id="Polygon-Copy-2" fill="#8B8685" points="255.862098 73.8461538 255.862098 221.538462 127.956808 295.384615 127.956808 147.692308"></polygon>
                        </g>
                    </g>
                    <g id="box" transform="translate(1024.000000, 0.000000)">
                        <g>
                            <path d="M127.956808,-5.68434189e-14 L255.862098,73.8461538 C236.985999,102.956592 220.099365,121.812253 205.202197,130.413137 C190.305028,139.014021 164.556565,144.773745 127.956808,147.692308 C89.3345628,144.806493 62.5464956,139.046769 47.5926065,130.413137 C32.6387174,121.779505 16.7916877,102.923844 0.0515175777,73.8461538 L127.956808,-5.68434189e-14 Z" id="Polygon-Copy" fill="#FFFFFF"></path>
                            <path d="M127.956808,147.692308 C155.228587,176.244367 168.864476,199.294902 168.864476,216.843914 C168.864476,234.392925 155.228587,260.573159 127.956808,295.384615 L0.0515175777,221.538462 L0.0515175777,73.8461538 L127.956808,147.692308 Z" id="Polygon-Copy-3" fill="#D7FC70"></path>
                            <polygon id="Polygon-Copy-2" fill="#8B8685" points="255.862098 73.8461538 255.862098 221.538462 127.956808 295.384615 127.956808 147.692308"></polygon>
                        </g>
                    </g>
                    <g id="box" transform="translate(896.000000, 220.000000)">
                        <g>
                            <path d="M127.956808,-5.68434189e-14 L255.862098,73.8461538 C236.985999,102.956592 220.099365,121.812253 205.202197,130.413137 C190.305028,139.014021 164.556565,144.773745 127.956808,147.692308 C89.3345628,144.806493 62.5464956,139.046769 47.5926065,130.413137 C32.6387174,121.779505 16.7916877,102.923844 0.0515175777,73.8461538 L127.956808,-5.68434189e-14 Z" id="Polygon-Copy" fill="#FFFFFF"></path>
                            <path d="M127.956808,147.692308 C155.228587,176.244367 168.864476,199.294902 168.864476,216.843914 C168.864476,234.392925 155.228587,260.573159 127.956808,295.384615 L0.0515175777,221.538462 L0.0515175777,73.8461538 L127.956808,147.692308 Z" id="Polygon-Copy-3" fill="#D7FC70"></path>
                            <polygon id="Polygon-Copy-2" fill="#8B8685" points="255.862098 73.8461538 255.862098 221.538462 127.956808 295.384615 127.956808 147.692308"></polygon>
                        </g>
                    </g>
                    <g id="box" transform="translate(1536.000000, 0.000000)">
                        <g>
                            <path d="M127.956808,-5.68434189e-14 L255.862098,73.8461538 C236.985999,102.956592 220.099365,121.812253 205.202197,130.413137 C190.305028,139.014021 164.556565,144.773745 127.956808,147.692308 C89.3345628,144.806493 62.5464956,139.046769 47.5926065,130.413137 C32.6387174,121.779505 16.7916877,102.923844 0.0515175777,73.8461538 L127.956808,-5.68434189e-14 Z" id="Polygon-Copy" fill="#FFFFFF"></path>
                            <path d="M127.956808,147.692308 C155.228587,176.244367 168.864476,199.294902 168.864476,216.843914 C168.864476,234.392925 155.228587,260.573159 127.956808,295.384615 L0.0515175777,221.538462 L0.0515175777,73.8461538 L127.956808,147.692308 Z" id="Polygon-Copy-3" fill="#D7FC70"></path>
                            <polygon id="Polygon-Copy-2" fill="#8B8685" points="255.862098 73.8461538 255.862098 221.538462 127.956808 295.384615 127.956808 147.692308"></polygon>
                        </g>
                    </g>
                    <g id="box" transform="translate(2048.000000, 0.000000)">
                        <g>
                            <path d="M127.956808,-5.68434189e-14 L255.862098,73.8461538 C236.985999,102.956592 220.099365,121.812253 205.202197,130.413137 C190.305028,139.014021 164.556565,144.773745 127.956808,147.692308 C89.3345628,144.806493 62.5464956,139.046769 47.5926065,130.413137 C32.6387174,121.779505 16.7916877,102.923844 0.0515175777,73.8461538 L127.956808,-5.68434189e-14 Z" id="Polygon-Copy" fill="#FFFFFF"></path>
                            <path d="M127.956808,147.692308 C155.228587,176.244367 168.864476,199.294902 168.864476,216.843914 C168.864476,234.392925 155.228587,260.573159 127.956808,295.384615 L0.0515175777,221.538462 L0.0515175777,73.8461538 L127.956808,147.692308 Z" id="Polygon-Copy-3" fill="#D7FC70"></path>
                            <polygon id="Polygon-Copy-2" fill="#8B8685" points="255.862098 73.8461538 255.862098 221.538462 127.956808 295.384615 127.956808 147.692308"></polygon>
                        </g>
                    </g>
                    <g id="box" transform="translate(2560.000000, 0.000000)">
                        <g>
                            <path d="M127.956808,-5.68434189e-14 L255.862098,73.8461538 C236.985999,102.956592 220.099365,121.812253 205.202197,130.413137 C190.305028,139.014021 164.556565,144.773745 127.956808,147.692308 C89.3345628,144.806493 62.5464956,139.046769 47.5926065,130.413137 C32.6387174,121.779505 16.7916877,102.923844 0.0515175777,73.8461538 L127.956808,-5.68434189e-14 Z" id="Polygon-Copy" fill="#FFFFFF"></path>
                            <path d="M127.956808,147.692308 C155.228587,176.244367 168.864476,199.294902 168.864476,216.843914 C168.864476,234.392925 155.228587,260.573159 127.956808,295.384615 L0.0515175777,221.538462 L0.0515175777,73.8461538 L127.956808,147.692308 Z" id="Polygon-Copy-3" fill="#D7FC70"></path>
                            <polygon id="Polygon-Copy-2" fill="#8B8685" points="255.862098 73.8461538 255.862098 221.538462 127.956808 295.384615 127.956808 147.692308"></polygon>
                        </g>
                    </g>
                    <g id="box" transform="translate(1408.000000, 220.000000)">
                        <g>
                            <path d="M127.956808,-5.68434189e-14 L255.862098,73.8461538 C236.985999,102.956592 220.099365,121.812253 205.202197,130.413137 C190.305028,139.014021 164.556565,144.773745 127.956808,147.692308 C89.3345628,144.806493 62.5464956,139.046769 47.5926065,130.413137 C32.6387174,121.779505 16.7916877,102.923844 0.0515175777,73.8461538 L127.956808,-5.68434189e-14 Z" id="Polygon-Copy" fill="#FFFFFF"></path>
                            <path d="M127.956808,147.692308 C155.228587,176.244367 168.864476,199.294902 168.864476,216.843914 C168.864476,234.392925 155.228587,260.573159 127.956808,295.384615 L0.0515175777,221.538462 L0.0515175777,73.8461538 L127.956808,147.692308 Z" id="Polygon-Copy-3" fill="#D7FC70"></path>
                            <polygon id="Polygon-Copy-2" fill="#8B8685" points="255.862098 73.8461538 255.862098 221.538462 127.956808 295.384615 127.956808 147.692308"></polygon>
                        </g>
                    </g>
                    <g id="box" transform="translate(1920.000000, 220.000000)">
                        <g>
                            <path d="M127.956808,-5.68434189e-14 L255.862098,73.8461538 C236.985999,102.956592 220.099365,121.812253 205.202197,130.413137 C190.305028,139.014021 164.556565,144.773745 127.956808,147.692308 C89.3345628,144.806493 62.5464956,139.046769 47.5926065,130.413137 C32.6387174,121.779505 16.7916877,102.923844 0.0515175777,73.8461538 L127.956808,-5.68434189e-14 Z" id="Polygon-Copy" fill="#FFFFFF"></path>
                            <path d="M127.956808,147.692308 C155.228587,176.244367 168.864476,199.294902 168.864476,216.843914 C168.864476,234.392925 155.228587,260.573159 127.956808,295.384615 L0.0515175777,221.538462 L0.0515175777,73.8461538 L127.956808,147.692308 Z" id="Polygon-Copy-3" fill="#D7FC70"></path>
                            <polygon id="Polygon-Copy-2" fill="#8B8685" points="255.862098 73.8461538 255.862098 221.538462 127.956808 295.384615 127.956808 147.692308"></polygon>
                        </g>
                    </g>
                    <g id="box" transform="translate(2432.000000, 220.000000)">
                        <g>
                            <path d="M127.956808,-5.68434189e-14 L255.862098,73.8461538 C236.985999,102.956592 220.099365,121.812253 205.202197,130.413137 C190.305028,139.014021 164.556565,144.773745 127.956808,147.692308 C89.3345628,144.806493 62.5464956,139.046769 47.5926065,130.413137 C32.6387174,121.779505 16.7916877,102.923844 0.0515175777,73.8461538 L127.956808,-5.68434189e-14 Z" id="Polygon-Copy" fill="#FFFFFF"></path>
                            <path d="M127.956808,147.692308 C155.228587,176.244367 168.864476,199.294902 168.864476,216.843914 C168.864476,234.392925 155.228587,260.573159 127.956808,295.384615 L0.0515175777,221.538462 L0.0515175777,73.8461538 L127.956808,147.692308 Z" id="Polygon-Copy-3" fill="#D7FC70"></path>
                            <polygon id="Polygon-Copy-2" fill="#8B8685" points="255.862098 73.8461538 255.862098 221.538462 127.956808 295.384615 127.956808 147.692308"></polygon>
                        </g>
                    </g>
                    <g id="box2" transform="translate(256.000000, 0.000000)">
                        <g id="box-copy">
                            <path d="M127.956808,-5.68434189e-14 L255.862098,73.8461538 C236.985999,102.956592 220.099365,121.812253 205.202197,130.413137 C190.305028,139.014021 164.556565,144.773745 127.956808,147.692308 C89.3345628,144.806493 62.5464956,139.046769 47.5926065,130.413137 C32.6387174,121.779505 16.7916877,102.923844 0.0515175777,73.8461538 L127.956808,-5.68434189e-14 Z" id="Polygon-Copy" fill="#D7FC70"></path>
                            <path d="M127.956808,147.692308 C155.228587,176.244367 168.864476,199.294902 168.864476,216.843914 C168.864476,234.392925 155.228587,260.573159 127.956808,295.384615 L0.0515175777,221.538462 L0.0515175777,73.8461538 L127.956808,147.692308 Z" id="Polygon-Copy-3" fill="#FFFFFF"></path>
                            <polygon id="Polygon-Copy-2" fill="#8B8685" points="255.862098 73.8461538 255.862098 221.538462 127.956808 295.384615 127.956808 147.692308"></polygon>
                        </g>
                    </g>
                    <g id="box2" transform="translate(128.000000, 220.000000)">
                        <g id="box-copy">
                            <path d="M127.956808,-5.68434189e-14 L255.862098,73.8461538 C236.985999,102.956592 220.099365,121.812253 205.202197,130.413137 C190.305028,139.014021 164.556565,144.773745 127.956808,147.692308 C89.3345628,144.806493 62.5464956,139.046769 47.5926065,130.413137 C32.6387174,121.779505 16.7916877,102.923844 0.0515175777,73.8461538 L127.956808,-5.68434189e-14 Z" id="Polygon-Copy" fill="#D7FC70"></path>
                            <path d="M127.956808,147.692308 C155.228587,176.244367 168.864476,199.294902 168.864476,216.843914 C168.864476,234.392925 155.228587,260.573159 127.956808,295.384615 L0.0515175777,221.538462 L0.0515175777,73.8461538 L127.956808,147.692308 Z" id="Polygon-Copy-3" fill="#FFFFFF"></path>
                            <polygon id="Polygon-Copy-2" fill="#8B8685" points="255.862098 73.8461538 255.862098 221.538462 127.956808 295.384615 127.956808 147.692308"></polygon>
                        </g>
                    </g>
                    <g id="box2" transform="translate(768.000000, 0.000000)">
                        <g id="box-copy">
                            <path d="M127.956808,-5.68434189e-14 L255.862098,73.8461538 C236.985999,102.956592 220.099365,121.812253 205.202197,130.413137 C190.305028,139.014021 164.556565,144.773745 127.956808,147.692308 C89.3345628,144.806493 62.5464956,139.046769 47.5926065,130.413137 C32.6387174,121.779505 16.7916877,102.923844 0.0515175777,73.8461538 L127.956808,-5.68434189e-14 Z" id="Polygon-Copy" fill="#D7FC70"></path>
                            <path d="M127.956808,147.692308 C155.228587,176.244367 168.864476,199.294902 168.864476,216.843914 C168.864476,234.392925 155.228587,260.573159 127.956808,295.384615 L0.0515175777,221.538462 L0.0515175777,73.8461538 L127.956808,147.692308 Z" id="Polygon-Copy-3" fill="#FFFFFF"></path>
                            <polygon id="Polygon-Copy-2" fill="#8B8685" points="255.862098 73.8461538 255.862098 221.538462 127.956808 295.384615 127.956808 147.692308"></polygon>
                        </g>
                    </g>
                    <g id="box2" transform="translate(640.000000, 220.000000)">
                        <g id="box-copy">
                            <path d="M127.956808,-5.68434189e-14 L255.862098,73.8461538 C236.985999,102.956592 220.099365,121.812253 205.202197,130.413137 C190.305028,139.014021 164.556565,144.773745 127.956808,147.692308 C89.3345628,144.806493 62.5464956,139.046769 47.5926065,130.413137 C32.6387174,121.779505 16.7916877,102.923844 0.0515175777,73.8461538 L127.956808,-5.68434189e-14 Z" id="Polygon-Copy" fill="#D7FC70"></path>
                            <path d="M127.956808,147.692308 C155.228587,176.244367 168.864476,199.294902 168.864476,216.843914 C168.864476,234.392925 155.228587,260.573159 127.956808,295.384615 L0.0515175777,221.538462 L0.0515175777,73.8461538 L127.956808,147.692308 Z" id="Polygon-Copy-3" fill="#FFFFFF"></path>
                            <polygon id="Polygon-Copy-2" fill="#8B8685" points="255.862098 73.8461538 255.862098 221.538462 127.956808 295.384615 127.956808 147.692308"></polygon>
                        </g>
                    </g>
                    <g id="box2" transform="translate(1280.000000, 0.000000)">
                        <g id="box-copy">
                            <path d="M127.956808,-5.68434189e-14 L255.862098,73.8461538 C236.985999,102.956592 220.099365,121.812253 205.202197,130.413137 C190.305028,139.014021 164.556565,144.773745 127.956808,147.692308 C89.3345628,144.806493 62.5464956,139.046769 47.5926065,130.413137 C32.6387174,121.779505 16.7916877,102.923844 0.0515175777,73.8461538 L127.956808,-5.68434189e-14 Z" id="Polygon-Copy" fill="#D7FC70"></path>
                            <path d="M127.956808,147.692308 C155.228587,176.244367 168.864476,199.294902 168.864476,216.843914 C168.864476,234.392925 155.228587,260.573159 127.956808,295.384615 L0.0515175777,221.538462 L0.0515175777,73.8461538 L127.956808,147.692308 Z" id="Polygon-Copy-3" fill="#FFFFFF"></path>
                            <polygon id="Polygon-Copy-2" fill="#8B8685" points="255.862098 73.8461538 255.862098 221.538462 127.956808 295.384615 127.956808 147.692308"></polygon>
                        </g>
                    </g>
                    <g id="box2" transform="translate(1792.000000, 0.000000)">
                        <g id="box-copy">
                            <path d="M127.956808,-5.68434189e-14 L255.862098,73.8461538 C236.985999,102.956592 220.099365,121.812253 205.202197,130.413137 C190.305028,139.014021 164.556565,144.773745 127.956808,147.692308 C89.3345628,144.806493 62.5464956,139.046769 47.5926065,130.413137 C32.6387174,121.779505 16.7916877,102.923844 0.0515175777,73.8461538 L127.956808,-5.68434189e-14 Z" id="Polygon-Copy" fill="#D7FC70"></path>
                            <path d="M127.956808,147.692308 C155.228587,176.244367 168.864476,199.294902 168.864476,216.843914 C168.864476,234.392925 155.228587,260.573159 127.956808,295.384615 L0.0515175777,221.538462 L0.0515175777,73.8461538 L127.956808,147.692308 Z" id="Polygon-Copy-3" fill="#FFFFFF"></path>
                            <polygon id="Polygon-Copy-2" fill="#8B8685" points="255.862098 73.8461538 255.862098 221.538462 127.956808 295.384615 127.956808 147.692308"></polygon>
                        </g>
                    </g>
                    <g id="box2" transform="translate(2304.000000, 0.000000)">
                        <g id="box-copy">
                            <path d="M127.956808,-5.68434189e-14 L255.862098,73.8461538 C236.985999,102.956592 220.099365,121.812253 205.202197,130.413137 C190.305028,139.014021 164.556565,144.773745 127.956808,147.692308 C89.3345628,144.806493 62.5464956,139.046769 47.5926065,130.413137 C32.6387174,121.779505 16.7916877,102.923844 0.0515175777,73.8461538 L127.956808,-5.68434189e-14 Z" id="Polygon-Copy" fill="#D7FC70"></path>
                            <path d="M127.956808,147.692308 C155.228587,176.244367 168.864476,199.294902 168.864476,216.843914 C168.864476,234.392925 155.228587,260.573159 127.956808,295.384615 L0.0515175777,221.538462 L0.0515175777,73.8461538 L127.956808,147.692308 Z" id="Polygon-Copy-3" fill="#FFFFFF"></path>
                            <polygon id="Polygon-Copy-2" fill="#8B8685" points="255.862098 73.8461538 255.862098 221.538462 127.956808 295.384615 127.956808 147.692308"></polygon>
                        </g>
                    </g>
                    <g id="box2" transform="translate(1152.000000, 220.000000)">
                        <g id="box-copy">
                            <path d="M127.956808,-5.68434189e-14 L255.862098,73.8461538 C236.985999,102.956592 220.099365,121.812253 205.202197,130.413137 C190.305028,139.014021 164.556565,144.773745 127.956808,147.692308 C89.3345628,144.806493 62.5464956,139.046769 47.5926065,130.413137 C32.6387174,121.779505 16.7916877,102.923844 0.0515175777,73.8461538 L127.956808,-5.68434189e-14 Z" id="Polygon-Copy" fill="#D7FC70"></path>
                            <path d="M127.956808,147.692308 C155.228587,176.244367 168.864476,199.294902 168.864476,216.843914 C168.864476,234.392925 155.228587,260.573159 127.956808,295.384615 L0.0515175777,221.538462 L0.0515175777,73.8461538 L127.956808,147.692308 Z" id="Polygon-Copy-3" fill="#FFFFFF"></path>
                            <polygon id="Polygon-Copy-2" fill="#8B8685" points="255.862098 73.8461538 255.862098 221.538462 127.956808 295.384615 127.956808 147.692308"></polygon>
                        </g>
                    </g>
                    <g id="box2" transform="translate(1664.000000, 220.000000)">
                        <g id="box-copy">
                            <path d="M127.956808,-5.68434189e-14 L255.862098,73.8461538 C236.985999,102.956592 220.099365,121.812253 205.202197,130.413137 C190.305028,139.014021 164.556565,144.773745 127.956808,147.692308 C89.3345628,144.806493 62.5464956,139.046769 47.5926065,130.413137 C32.6387174,121.779505 16.7916877,102.923844 0.0515175777,73.8461538 L127.956808,-5.68434189e-14 Z" id="Polygon-Copy" fill="#D7FC70"></path>
                            <path d="M127.956808,147.692308 C155.228587,176.244367 168.864476,199.294902 168.864476,216.843914 C168.864476,234.392925 155.228587,260.573159 127.956808,295.384615 L0.0515175777,221.538462 L0.0515175777,73.8461538 L127.956808,147.692308 Z" id="Polygon-Copy-3" fill="#FFFFFF"></path>
                            <polygon id="Polygon-Copy-2" fill="#8B8685" points="255.862098 73.8461538 255.862098 221.538462 127.956808 295.384615 127.956808 147.692308"></polygon>
                        </g>
                    </g>
                    <g id="box2" transform="translate(2176.000000, 220.000000)">
                        <g id="box-copy">
                            <path d="M127.956808,-5.68434189e-14 L255.862098,73.8461538 C236.985999,102.956592 220.099365,121.812253 205.202197,130.413137 C190.305028,139.014021 164.556565,144.773745 127.956808,147.692308 C89.3345628,144.806493 62.5464956,139.046769 47.5926065,130.413137 C32.6387174,121.779505 16.7916877,102.923844 0.0515175777,73.8461538 L127.956808,-5.68434189e-14 Z" id="Polygon-Copy" fill="#D7FC70"></path>
                            <path d="M127.956808,147.692308 C155.228587,176.244367 168.864476,199.294902 168.864476,216.843914 C168.864476,234.392925 155.228587,260.573159 127.956808,295.384615 L0.0515175777,221.538462 L0.0515175777,73.8461538 L127.956808,147.692308 Z" id="Polygon-Copy-3" fill="#FFFFFF"></path>
                            <polygon id="Polygon-Copy-2" fill="#8B8685" points="255.862098 73.8461538 255.862098 221.538462 127.956808 295.384615 127.956808 147.692308"></polygon>
                        </g>
                    </g>
                    <g id="box2" transform="translate(2688.000000, 220.000000)">
                        <g id="box-copy">
                            <path d="M127.956808,-5.68434189e-14 L255.862098,73.8461538 C236.985999,102.956592 220.099365,121.812253 205.202197,130.413137 C190.305028,139.014021 164.556565,144.773745 127.956808,147.692308 C89.3345628,144.806493 62.5464956,139.046769 47.5926065,130.413137 C32.6387174,121.779505 16.7916877,102.923844 0.0515175777,73.8461538 L127.956808,-5.68434189e-14 Z" id="Polygon-Copy" fill="#D7FC70"></path>
                            <path d="M127.956808,147.692308 C155.228587,176.244367 168.864476,199.294902 168.864476,216.843914 C168.864476,234.392925 155.228587,260.573159 127.956808,295.384615 L0.0515175777,221.538462 L0.0515175777,73.8461538 L127.956808,147.692308 Z" id="Polygon-Copy-3" fill="#FFFFFF"></path>
                            <polygon id="Polygon-Copy-2" fill="#8B8685" points="255.862098 73.8461538 255.862098 221.538462 127.956808 295.384615 127.956808 147.692308"></polygon>
                        </g>
                    </g>
                </g>
            </g>
            <g id="row" transform="translate(256.000000, 880.000000)">
                <g transform="translate(0.422712, 0.000000)">
                    <g id="box">
                        <g>
                            <path d="M127.956808,-5.68434189e-14 L255.862098,73.8461538 C236.985999,102.956592 220.099365,121.812253 205.202197,130.413137 C190.305028,139.014021 164.556565,144.773745 127.956808,147.692308 C89.3345628,144.806493 62.5464956,139.046769 47.5926065,130.413137 C32.6387174,121.779505 16.7916877,102.923844 0.0515175777,73.8461538 L127.956808,-5.68434189e-14 Z" id="Polygon-Copy" fill="#FFFFFF"></path>
                            <path d="M127.956808,147.692308 C155.228587,176.244367 168.864476,199.294902 168.864476,216.843914 C168.864476,234.392925 155.228587,260.573159 127.956808,295.384615 L0.0515175777,221.538462 L0.0515175777,73.8461538 L127.956808,147.692308 Z" id="Polygon-Copy-3" fill="#D7FC70"></path>
                            <polygon id="Polygon-Copy-2" fill="#8B8685" points="255.862098 73.8461538 255.862098 221.538462 127.956808 295.384615 127.956808 147.692308"></polygon>
                        </g>
                    </g>
                    <g id="box" transform="translate(362.000000, 220.000000)">
                        <g>
                            <path d="M127.956808,-5.68434189e-14 L255.862098,73.8461538 C236.985999,102.956592 220.099365,121.812253 205.202197,130.413137 C190.305028,139.014021 164.556565,144.773745 127.956808,147.692308 C89.3345628,144.806493 62.5464956,139.046769 47.5926065,130.413137 C32.6387174,121.779505 16.7916877,102.923844 0.0515175777,73.8461538 L127.956808,-5.68434189e-14 Z" id="Polygon-Copy" fill="#FFFFFF"></path>
                            <path d="M127.956808,147.692308 C155.228587,176.244367 168.864476,199.294902 168.864476,216.843914 C168.864476,234.392925 155.228587,260.573159 127.956808,295.384615 L0.0515175777,221.538462 L0.0515175777,73.8461538 L127.956808,147.692308 Z" id="Polygon-Copy-3" fill="#D7FC70"></path>
                            <polygon id="Polygon-Copy-2" fill="#8B8685" points="255.862098 73.8461538 255.862098 221.538462 127.956808 295.384615 127.956808 147.692308"></polygon>
                        </g>
                    </g>
                    <g id="box" transform="translate(512.000000, 0.000000)">
                        <g>
                            <path d="M127.956808,-5.68434189e-14 L255.862098,73.8461538 C236.985999,102.956592 220.099365,121.812253 205.202197,130.413137 C190.305028,139.014021 164.556565,144.773745 127.956808,147.692308 C89.3345628,144.806493 62.5464956,139.046769 47.5926065,130.413137 C32.6387174,121.779505 16.7916877,102.923844 0.0515175777,73.8461538 L127.956808,-5.68434189e-14 Z" id="Polygon-Copy" fill="#FFFFFF"></path>
                            <path d="M127.956808,147.692308 C155.228587,176.244367 168.864476,199.294902 168.864476,216.843914 C168.864476,234.392925 155.228587,260.573159 127.956808,295.384615 L0.0515175777,221.538462 L0.0515175777,73.8461538 L127.956808,147.692308 Z" id="Polygon-Copy-3" fill="#D7FC70"></path>
                            <polygon id="Polygon-Copy-2" fill="#8B8685" points="255.862098 73.8461538 255.862098 221.538462 127.956808 295.384615 127.956808 147.692308"></polygon>
                        </g>
                    </g>
                    <g id="box" transform="translate(384.000000, 220.000000)">
                        <g>
                            <path d="M127.956808,-5.68434189e-14 L255.862098,73.8461538 C236.985999,102.956592 220.099365,121.812253 205.202197,130.413137 C190.305028,139.014021 164.556565,144.773745 127.956808,147.692308 C89.3345628,144.806493 62.5464956,139.046769 47.5926065,130.413137 C32.6387174,121.779505 16.7916877,102.923844 0.0515175777,73.8461538 L127.956808,-5.68434189e-14 Z" id="Polygon-Copy" fill="#FFFFFF"></path>
                            <path d="M127.956808,147.692308 C155.228587,176.244367 168.864476,199.294902 168.864476,216.843914 C168.864476,234.392925 155.228587,260.573159 127.956808,295.384615 L0.0515175777,221.538462 L0.0515175777,73.8461538 L127.956808,147.692308 Z" id="Polygon-Copy-3" fill="#D7FC70"></path>
                            <polygon id="Polygon-Copy-2" fill="#8B8685" points="255.862098 73.8461538 255.862098 221.538462 127.956808 295.384615 127.956808 147.692308"></polygon>
                        </g>
                    </g>
                    <g id="box" transform="translate(1024.000000, 0.000000)">
                        <g>
                            <path d="M127.956808,-5.68434189e-14 L255.862098,73.8461538 C236.985999,102.956592 220.099365,121.812253 205.202197,130.413137 C190.305028,139.014021 164.556565,144.773745 127.956808,147.692308 C89.3345628,144.806493 62.5464956,139.046769 47.5926065,130.413137 C32.6387174,121.779505 16.7916877,102.923844 0.0515175777,73.8461538 L127.956808,-5.68434189e-14 Z" id="Polygon-Copy" fill="#FFFFFF"></path>
                            <path d="M127.956808,147.692308 C155.228587,176.244367 168.864476,199.294902 168.864476,216.843914 C168.864476,234.392925 155.228587,260.573159 127.956808,295.384615 L0.0515175777,221.538462 L0.0515175777,73.8461538 L127.956808,147.692308 Z" id="Polygon-Copy-3" fill="#D7FC70"></path>
                            <polygon id="Polygon-Copy-2" fill="#8B8685" points="255.862098 73.8461538 255.862098 221.538462 127.956808 295.384615 127.956808 147.692308"></polygon>
                        </g>
                    </g>
                    <g id="box" transform="translate(896.000000, 220.000000)">
                        <g>
                            <path d="M127.956808,-5.68434189e-14 L255.862098,73.8461538 C236.985999,102.956592 220.099365,121.812253 205.202197,130.413137 C190.305028,139.014021 164.556565,144.773745 127.956808,147.692308 C89.3345628,144.806493 62.5464956,139.046769 47.5926065,130.413137 C32.6387174,121.779505 16.7916877,102.923844 0.0515175777,73.8461538 L127.956808,-5.68434189e-14 Z" id="Polygon-Copy" fill="#FFFFFF"></path>
                            <path d="M127.956808,147.692308 C155.228587,176.244367 168.864476,199.294902 168.864476,216.843914 C168.864476,234.392925 155.228587,260.573159 127.956808,295.384615 L0.0515175777,221.538462 L0.0515175777,73.8461538 L127.956808,147.692308 Z" id="Polygon-Copy-3" fill="#D7FC70"></path>
                            <polygon id="Polygon-Copy-2" fill="#8B8685" points="255.862098 73.8461538 255.862098 221.538462 127.956808 295.384615 127.956808 147.692308"></polygon>
                        </g>
                    </g>
                    <g id="box" transform="translate(1536.000000, 0.000000)">
                        <g>
                            <path d="M127.956808,-5.68434189e-14 L255.862098,73.8461538 C236.985999,102.956592 220.099365,121.812253 205.202197,130.413137 C190.305028,139.014021 164.556565,144.773745 127.956808,147.692308 C89.3345628,144.806493 62.5464956,139.046769 47.5926065,130.413137 C32.6387174,121.779505 16.7916877,102.923844 0.0515175777,73.8461538 L127.956808,-5.68434189e-14 Z" id="Polygon-Copy" fill="#FFFFFF"></path>
                            <path d="M127.956808,147.692308 C155.228587,176.244367 168.864476,199.294902 168.864476,216.843914 C168.864476,234.392925 155.228587,260.573159 127.956808,295.384615 L0.0515175777,221.538462 L0.0515175777,73.8461538 L127.956808,147.692308 Z" id="Polygon-Copy-3" fill="#D7FC70"></path>
                            <polygon id="Polygon-Copy-2" fill="#8B8685" points="255.862098 73.8461538 255.862098 221.538462 127.956808 295.384615 127.956808 147.692308"></polygon>
                        </g>
                    </g>
                    <g id="box" transform="translate(2048.000000, 0.000000)">
                        <g>
                            <path d="M127.956808,-5.68434189e-14 L255.862098,73.8461538 C236.985999,102.956592 220.099365,121.812253 205.202197,130.413137 C190.305028,139.014021 164.556565,144.773745 127.956808,147.692308 C89.3345628,144.806493 62.5464956,139.046769 47.5926065,130.413137 C32.6387174,121.779505 16.7916877,102.923844 0.0515175777,73.8461538 L127.956808,-5.68434189e-14 Z" id="Polygon-Copy" fill="#FFFFFF"></path>
                            <path d="M127.956808,147.692308 C155.228587,176.244367 168.864476,199.294902 168.864476,216.843914 C168.864476,234.392925 155.228587,260.573159 127.956808,295.384615 L0.0515175777,221.538462 L0.0515175777,73.8461538 L127.956808,147.692308 Z" id="Polygon-Copy-3" fill="#D7FC70"></path>
                            <polygon id="Polygon-Copy-2" fill="#8B8685" points="255.862098 73.8461538 255.862098 221.538462 127.956808 295.384615 127.956808 147.692308"></polygon>
                        </g>
                    </g>
                    <g id="box" transform="translate(2560.000000, 0.000000)">
                        <g>
                            <path d="M127.956808,-5.68434189e-14 L255.862098,73.8461538 C236.985999,102.956592 220.099365,121.812253 205.202197,130.413137 C190.305028,139.014021 164.556565,144.773745 127.956808,147.692308 C89.3345628,144.806493 62.5464956,139.046769 47.5926065,130.413137 C32.6387174,121.779505 16.7916877,102.923844 0.0515175777,73.8461538 L127.956808,-5.68434189e-14 Z" id="Polygon-Copy" fill="#FFFFFF"></path>
                            <path d="M127.956808,147.692308 C155.228587,176.244367 168.864476,199.294902 168.864476,216.843914 C168.864476,234.392925 155.228587,260.573159 127.956808,295.384615 L0.0515175777,221.538462 L0.0515175777,73.8461538 L127.956808,147.692308 Z" id="Polygon-Copy-3" fill="#D7FC70"></path>
                            <polygon id="Polygon-Copy-2" fill="#8B8685" points="255.862098 73.8461538 255.862098 221.538462 127.956808 295.384615 127.956808 147.692308"></polygon>
                        </g>
                    </g>
                    <g id="box" transform="translate(1408.000000, 220.000000)">
                        <g>
                            <path d="M127.956808,-5.68434189e-14 L255.862098,73.8461538 C236.985999,102.956592 220.099365,121.812253 205.202197,130.413137 C190.305028,139.014021 164.556565,144.773745 127.956808,147.692308 C89.3345628,144.806493 62.5464956,139.046769 47.5926065,130.413137 C32.6387174,121.779505 16.7916877,102.923844 0.0515175777,73.8461538 L127.956808,-5.68434189e-14 Z" id="Polygon-Copy" fill="#FFFFFF"></path>
                            <path d="M127.956808,147.692308 C155.228587,176.244367 168.864476,199.294902 168.864476,216.843914 C168.864476,234.392925 155.228587,260.573159 127.956808,295.384615 L0.0515175777,221.538462 L0.0515175777,73.8461538 L127.956808,147.692308 Z" id="Polygon-Copy-3" fill="#D7FC70"></path>
                            <polygon id="Polygon-Copy-2" fill="#8B8685" points="255.862098 73.8461538 255.862098 221.538462 127.956808 295.384615 127.956808 147.692308"></polygon>
                        </g>
                    </g>
                    <g id="box" transform="translate(1920.000000, 220.000000)">
                        <g>
                            <path d="M127.956808,-5.68434189e-14 L255.862098,73.8461538 C236.985999,102.956592 220.099365,121.812253 205.202197,130.413137 C190.305028,139.014021 164.556565,144.773745 127.956808,147.692308 C89.3345628,144.806493 62.5464956,139.046769 47.5926065,130.413137 C32.6387174,121.779505 16.7916877,102.923844 0.0515175777,73.8461538 L127.956808,-5.68434189e-14 Z" id="Polygon-Copy" fill="#FFFFFF"></path>
                            <path d="M127.956808,147.692308 C155.228587,176.244367 168.864476,199.294902 168.864476,216.843914 C168.864476,234.392925 155.228587,260.573159 127.956808,295.384615 L0.0515175777,221.538462 L0.0515175777,73.8461538 L127.956808,147.692308 Z" id="Polygon-Copy-3" fill="#D7FC70"></path>
                            <polygon id="Polygon-Copy-2" fill="#8B8685" points="255.862098 73.8461538 255.862098 221.538462 127.956808 295.384615 127.956808 147.692308"></polygon>
                        </g>
                    </g>
                    <g id="box" transform="translate(2432.000000, 220.000000)">
                        <g>
                            <path d="M127.956808,-5.68434189e-14 L255.862098,73.8461538 C236.985999,102.956592 220.099365,121.812253 205.202197,130.413137 C190.305028,139.014021 164.556565,144.773745 127.956808,147.692308 C89.3345628,144.806493 62.5464956,139.046769 47.5926065,130.413137 C32.6387174,121.779505 16.7916877,102.923844 0.0515175777,73.8461538 L127.956808,-5.68434189e-14 Z" id="Polygon-Copy" fill="#FFFFFF"></path>
                            <path d="M127.956808,147.692308 C155.228587,176.244367 168.864476,199.294902 168.864476,216.843914 C168.864476,234.392925 155.228587,260.573159 127.956808,295.384615 L0.0515175777,221.538462 L0.0515175777,73.8461538 L127.956808,147.692308 Z" id="Polygon-Copy-3" fill="#D7FC70"></path>
                            <polygon id="Polygon-Copy-2" fill="#8B8685" points="255.862098 73.8461538 255.862098 221.538462 127.956808 295.384615 127.956808 147.692308"></polygon>
                        </g>
                    </g>
                    <g id="box2" transform="translate(256.000000, 0.000000)">
                        <g id="box-copy">
                            <path d="M127.956808,-5.68434189e-14 L255.862098,73.8461538 C236.985999,102.956592 220.099365,121.812253 205.202197,130.413137 C190.305028,139.014021 164.556565,144.773745 127.956808,147.692308 C89.3345628,144.806493 62.5464956,139.046769 47.5926065,130.413137 C32.6387174,121.779505 16.7916877,102.923844 0.0515175777,73.8461538 L127.956808,-5.68434189e-14 Z" id="Polygon-Copy" fill="#D7FC70"></path>
                            <path d="M127.956808,147.692308 C155.228587,176.244367 168.864476,199.294902 168.864476,216.843914 C168.864476,234.392925 155.228587,260.573159 127.956808,295.384615 L0.0515175777,221.538462 L0.0515175777,73.8461538 L127.956808,147.692308 Z" id="Polygon-Copy-3" fill="#FFFFFF"></path>
                            <polygon id="Polygon-Copy-2" fill="#8B8685" points="255.862098 73.8461538 255.862098 221.538462 127.956808 295.384615 127.956808 147.692308"></polygon>
                        </g>
                    </g>
                    <g id="box2" transform="translate(128.000000, 220.000000)">
                        <g id="box-copy">
                            <path d="M127.956808,-5.68434189e-14 L255.862098,73.8461538 C236.985999,102.956592 220.099365,121.812253 205.202197,130.413137 C190.305028,139.014021 164.556565,144.773745 127.956808,147.692308 C89.3345628,144.806493 62.5464956,139.046769 47.5926065,130.413137 C32.6387174,121.779505 16.7916877,102.923844 0.0515175777,73.8461538 L127.956808,-5.68434189e-14 Z" id="Polygon-Copy" fill="#D7FC70"></path>
                            <path d="M127.956808,147.692308 C155.228587,176.244367 168.864476,199.294902 168.864476,216.843914 C168.864476,234.392925 155.228587,260.573159 127.956808,295.384615 L0.0515175777,221.538462 L0.0515175777,73.8461538 L127.956808,147.692308 Z" id="Polygon-Copy-3" fill="#FFFFFF"></path>
                            <polygon id="Polygon-Copy-2" fill="#8B8685" points="255.862098 73.8461538 255.862098 221.538462 127.956808 295.384615 127.956808 147.692308"></polygon>
                        </g>
                    </g>
                    <g id="box2" transform="translate(768.000000, 0.000000)">
                        <g id="box-copy">
                            <path d="M127.956808,-5.68434189e-14 L255.862098,73.8461538 C236.985999,102.956592 220.099365,121.812253 205.202197,130.413137 C190.305028,139.014021 164.556565,144.773745 127.956808,147.692308 C89.3345628,144.806493 62.5464956,139.046769 47.5926065,130.413137 C32.6387174,121.779505 16.7916877,102.923844 0.0515175777,73.8461538 L127.956808,-5.68434189e-14 Z" id="Polygon-Copy" fill="#D7FC70"></path>
                            <path d="M127.956808,147.692308 C155.228587,176.244367 168.864476,199.294902 168.864476,216.843914 C168.864476,234.392925 155.228587,260.573159 127.956808,295.384615 L0.0515175777,221.538462 L0.0515175777,73.8461538 L127.956808,147.692308 Z" id="Polygon-Copy-3" fill="#FFFFFF"></path>
                            <polygon id="Polygon-Copy-2" fill="#8B8685" points="255.862098 73.8461538 255.862098 221.538462 127.956808 295.384615 127.956808 147.692308"></polygon>
                        </g>
                    </g>
                    <g id="box2" transform="translate(640.000000, 220.000000)">
                        <g id="box-copy">
                            <path d="M127.956808,-5.68434189e-14 L255.862098,73.8461538 C236.985999,102.956592 220.099365,121.812253 205.202197,130.413137 C190.305028,139.014021 164.556565,144.773745 127.956808,147.692308 C89.3345628,144.806493 62.5464956,139.046769 47.5926065,130.413137 C32.6387174,121.779505 16.7916877,102.923844 0.0515175777,73.8461538 L127.956808,-5.68434189e-14 Z" id="Polygon-Copy" fill="#D7FC70"></path>
                            <path d="M127.956808,147.692308 C155.228587,176.244367 168.864476,199.294902 168.864476,216.843914 C168.864476,234.392925 155.228587,260.573159 127.956808,295.384615 L0.0515175777,221.538462 L0.0515175777,73.8461538 L127.956808,147.692308 Z" id="Polygon-Copy-3" fill="#FFFFFF"></path>
                            <polygon id="Polygon-Copy-2" fill="#8B8685" points="255.862098 73.8461538 255.862098 221.538462 127.956808 295.384615 127.956808 147.692308"></polygon>
                        </g>
                    </g>
                    <g id="box2" transform="translate(1280.000000, 0.000000)">
                        <g id="box-copy">
                            <path d="M127.956808,-5.68434189e-14 L255.862098,73.8461538 C236.985999,102.956592 220.099365,121.812253 205.202197,130.413137 C190.305028,139.014021 164.556565,144.773745 127.956808,147.692308 C89.3345628,144.806493 62.5464956,139.046769 47.5926065,130.413137 C32.6387174,121.779505 16.7916877,102.923844 0.0515175777,73.8461538 L127.956808,-5.68434189e-14 Z" id="Polygon-Copy" fill="#D7FC70"></path>
                            <path d="M127.956808,147.692308 C155.228587,176.244367 168.864476,199.294902 168.864476,216.843914 C168.864476,234.392925 155.228587,260.573159 127.956808,295.384615 L0.0515175777,221.538462 L0.0515175777,73.8461538 L127.956808,147.692308 Z" id="Polygon-Copy-3" fill="#FFFFFF"></path>
                            <polygon id="Polygon-Copy-2" fill="#8B8685" points="255.862098 73.8461538 255.862098 221.538462 127.956808 295.384615 127.956808 147.692308"></polygon>
                        </g>
                    </g>
                    <g id="box2" transform="translate(1792.000000, 0.000000)">
                        <g id="box-copy">
                            <path d="M127.956808,-5.68434189e-14 L255.862098,73.8461538 C236.985999,102.956592 220.099365,121.812253 205.202197,130.413137 C190.305028,139.014021 164.556565,144.773745 127.956808,147.692308 C89.3345628,144.806493 62.5464956,139.046769 47.5926065,130.413137 C32.6387174,121.779505 16.7916877,102.923844 0.0515175777,73.8461538 L127.956808,-5.68434189e-14 Z" id="Polygon-Copy" fill="#D7FC70"></path>
                            <path d="M127.956808,147.692308 C155.228587,176.244367 168.864476,199.294902 168.864476,216.843914 C168.864476,234.392925 155.228587,260.573159 127.956808,295.384615 L0.0515175777,221.538462 L0.0515175777,73.8461538 L127.956808,147.692308 Z" id="Polygon-Copy-3" fill="#FFFFFF"></path>
                            <polygon id="Polygon-Copy-2" fill="#8B8685" points="255.862098 73.8461538 255.862098 221.538462 127.956808 295.384615 127.956808 147.692308"></polygon>
                        </g>
                    </g>
                    <g id="box2" transform="translate(2304.000000, 0.000000)">
                        <g id="box-copy">
                            <path d="M127.956808,-5.68434189e-14 L255.862098,73.8461538 C236.985999,102.956592 220.099365,121.812253 205.202197,130.413137 C190.305028,139.014021 164.556565,144.773745 127.956808,147.692308 C89.3345628,144.806493 62.5464956,139.046769 47.5926065,130.413137 C32.6387174,121.779505 16.7916877,102.923844 0.0515175777,73.8461538 L127.956808,-5.68434189e-14 Z" id="Polygon-Copy" fill="#D7FC70"></path>
                            <path d="M127.956808,147.692308 C155.228587,176.244367 168.864476,199.294902 168.864476,216.843914 C168.864476,234.392925 155.228587,260.573159 127.956808,295.384615 L0.0515175777,221.538462 L0.0515175777,73.8461538 L127.956808,147.692308 Z" id="Polygon-Copy-3" fill="#FFFFFF"></path>
                            <polygon id="Polygon-Copy-2" fill="#8B8685" points="255.862098 73.8461538 255.862098 221.538462 127.956808 295.384615 127.956808 147.692308"></polygon>
                        </g>
                    </g>
                    <g id="box2" transform="translate(1152.000000, 220.000000)">
                        <g id="box-copy">
                            <path d="M127.956808,-5.68434189e-14 L255.862098,73.8461538 C236.985999,102.956592 220.099365,121.812253 205.202197,130.413137 C190.305028,139.014021 164.556565,144.773745 127.956808,147.692308 C89.3345628,144.806493 62.5464956,139.046769 47.5926065,130.413137 C32.6387174,121.779505 16.7916877,102.923844 0.0515175777,73.8461538 L127.956808,-5.68434189e-14 Z" id="Polygon-Copy" fill="#D7FC70"></path>
                            <path d="M127.956808,147.692308 C155.228587,176.244367 168.864476,199.294902 168.864476,216.843914 C168.864476,234.392925 155.228587,260.573159 127.956808,295.384615 L0.0515175777,221.538462 L0.0515175777,73.8461538 L127.956808,147.692308 Z" id="Polygon-Copy-3" fill="#FFFFFF"></path>
                            <polygon id="Polygon-Copy-2" fill="#8B8685" points="255.862098 73.8461538 255.862098 221.538462 127.956808 295.384615 127.956808 147.692308"></polygon>
                        </g>
                    </g>
                    <g id="box2" transform="translate(1664.000000, 220.000000)">
                        <g id="box-copy">
                            <path d="M127.956808,-5.68434189e-14 L255.862098,73.8461538 C236.985999,102.956592 220.099365,121.812253 205.202197,130.413137 C190.305028,139.014021 164.556565,144.773745 127.956808,147.692308 C89.3345628,144.806493 62.5464956,139.046769 47.5926065,130.413137 C32.6387174,121.779505 16.7916877,102.923844 0.0515175777,73.8461538 L127.956808,-5.68434189e-14 Z" id="Polygon-Copy" fill="#D7FC70"></path>
                            <path d="M127.956808,147.692308 C155.228587,176.244367 168.864476,199.294902 168.864476,216.843914 C168.864476,234.392925 155.228587,260.573159 127.956808,295.384615 L0.0515175777,221.538462 L0.0515175777,73.8461538 L127.956808,147.692308 Z" id="Polygon-Copy-3" fill="#FFFFFF"></path>
                            <polygon id="Polygon-Copy-2" fill="#8B8685" points="255.862098 73.8461538 255.862098 221.538462 127.956808 295.384615 127.956808 147.692308"></polygon>
                        </g>
                    </g>
                    <g id="box2" transform="translate(2176.000000, 220.000000)">
                        <g id="box-copy">
                            <path d="M127.956808,-5.68434189e-14 L255.862098,73.8461538 C236.985999,102.956592 220.099365,121.812253 205.202197,130.413137 C190.305028,139.014021 164.556565,144.773745 127.956808,147.692308 C89.3345628,144.806493 62.5464956,139.046769 47.5926065,130.413137 C32.6387174,121.779505 16.7916877,102.923844 0.0515175777,73.8461538 L127.956808,-5.68434189e-14 Z" id="Polygon-Copy" fill="#D7FC70"></path>
                            <path d="M127.956808,147.692308 C155.228587,176.244367 168.864476,199.294902 168.864476,216.843914 C168.864476,234.392925 155.228587,260.573159 127.956808,295.384615 L0.0515175777,221.538462 L0.0515175777,73.8461538 L127.956808,147.692308 Z" id="Polygon-Copy-3" fill="#FFFFFF"></path>
                            <polygon id="Polygon-Copy-2" fill="#8B8685" points="255.862098 73.8461538 255.862098 221.538462 127.956808 295.384615 127.956808 147.692308"></polygon>
                        </g>
                    </g>
                    <g id="box2" transform="translate(2688.000000, 220.000000)">
                        <g id="box-copy">
                            <path d="M127.956808,-5.68434189e-14 L255.862098,73.8461538 C236.985999,102.956592 220.099365,121.812253 205.202197,130.413137 C190.305028,139.014021 164.556565,144.773745 127.956808,147.692308 C89.3345628,144.806493 62.5464956,139.046769 47.5926065,130.413137 C32.6387174,121.779505 16.7916877,102.923844 0.0515175777,73.8461538 L127.956808,-5.68434189e-14 Z" id="Polygon-Copy" fill="#D7FC70"></path>
                            <path d="M127.956808,147.692308 C155.228587,176.244367 168.864476,199.294902 168.864476,216.843914 C168.864476,234.392925 155.228587,260.573159 127.956808,295.384615 L0.0515175777,221.538462 L0.0515175777,73.8461538 L127.956808,147.692308 Z" id="Polygon-Copy-3" fill="#FFFFFF"></path>
                            <polygon id="Polygon-Copy-2" fill="#8B8685" points="255.862098 73.8461538 255.862098 221.538462 127.956808 295.384615 127.956808 147.692308"></polygon>
                        </g>
                    </g>
                </g>
            </g>
            <g id="row" transform="translate(0.000000, 440.000000)">
                <g transform="translate(0.422712, 0.000000)">
                    <g id="box">
                        <g>
                            <path d="M127.956808,-5.68434189e-14 L255.862098,73.8461538 C236.985999,102.956592 220.099365,121.812253 205.202197,130.413137 C190.305028,139.014021 164.556565,144.773745 127.956808,147.692308 C89.3345628,144.806493 62.5464956,139.046769 47.5926065,130.413137 C32.6387174,121.779505 16.7916877,102.923844 0.0515175777,73.8461538 L127.956808,-5.68434189e-14 Z" id="Polygon-Copy" fill="#FFFFFF"></path>
                            <path d="M127.956808,147.692308 C155.228587,176.244367 168.864476,199.294902 168.864476,216.843914 C168.864476,234.392925 155.228587,260.573159 127.956808,295.384615 L0.0515175777,221.538462 L0.0515175777,73.8461538 L127.956808,147.692308 Z" id="Polygon-Copy-3" fill="#D7FC70"></path>
                            <polygon id="Polygon-Copy-2" fill="#8B8685" points="255.862098 73.8461538 255.862098 221.538462 127.956808 295.384615 127.956808 147.692308"></polygon>
                        </g>
                    </g>
                    <g id="box" transform="translate(362.000000, 220.000000)">
                        <g>
                            <path d="M127.956808,-5.68434189e-14 L255.862098,73.8461538 C236.985999,102.956592 220.099365,121.812253 205.202197,130.413137 C190.305028,139.014021 164.556565,144.773745 127.956808,147.692308 C89.3345628,144.806493 62.5464956,139.046769 47.5926065,130.413137 C32.6387174,121.779505 16.7916877,102.923844 0.0515175777,73.8461538 L127.956808,-5.68434189e-14 Z" id="Polygon-Copy" fill="#FFFFFF"></path>
                            <path d="M127.956808,147.692308 C155.228587,176.244367 168.864476,199.294902 168.864476,216.843914 C168.864476,234.392925 155.228587,260.573159 127.956808,295.384615 L0.0515175777,221.538462 L0.0515175777,73.8461538 L127.956808,147.692308 Z" id="Polygon-Copy-3" fill="#D7FC70"></path>
                            <polygon id="Polygon-Copy-2" fill="#8B8685" points="255.862098 73.8461538 255.862098 221.538462 127.956808 295.384615 127.956808 147.692308"></polygon>
                        </g>
                    </g>
                    <g id="box" transform="translate(512.000000, 0.000000)">
                        <g>
                            <path d="M127.956808,-5.68434189e-14 L255.862098,73.8461538 C236.985999,102.956592 220.099365,121.812253 205.202197,130.413137 C190.305028,139.014021 164.556565,144.773745 127.956808,147.692308 C89.3345628,144.806493 62.5464956,139.046769 47.5926065,130.413137 C32.6387174,121.779505 16.7916877,102.923844 0.0515175777,73.8461538 L127.956808,-5.68434189e-14 Z" id="Polygon-Copy" fill="#FFFFFF"></path>
                            <path d="M127.956808,147.692308 C155.228587,176.244367 168.864476,199.294902 168.864476,216.843914 C168.864476,234.392925 155.228587,260.573159 127.956808,295.384615 L0.0515175777,221.538462 L0.0515175777,73.8461538 L127.956808,147.692308 Z" id="Polygon-Copy-3" fill="#D7FC70"></path>
                            <polygon id="Polygon-Copy-2" fill="#8B8685" points="255.862098 73.8461538 255.862098 221.538462 127.956808 295.384615 127.956808 147.692308"></polygon>
                        </g>
                    </g>
                    <g id="box" transform="translate(384.000000, 220.000000)">
                        <g>
                            <path d="M127.956808,-5.68434189e-14 L255.862098,73.8461538 C236.985999,102.956592 220.099365,121.812253 205.202197,130.413137 C190.305028,139.014021 164.556565,144.773745 127.956808,147.692308 C89.3345628,144.806493 62.5464956,139.046769 47.5926065,130.413137 C32.6387174,121.779505 16.7916877,102.923844 0.0515175777,73.8461538 L127.956808,-5.68434189e-14 Z" id="Polygon-Copy" fill="#FFFFFF"></path>
                            <path d="M127.956808,147.692308 C155.228587,176.244367 168.864476,199.294902 168.864476,216.843914 C168.864476,234.392925 155.228587,260.573159 127.956808,295.384615 L0.0515175777,221.538462 L0.0515175777,73.8461538 L127.956808,147.692308 Z" id="Polygon-Copy-3" fill="#D7FC70"></path>
                            <polygon id="Polygon-Copy-2" fill="#8B8685" points="255.862098 73.8461538 255.862098 221.538462 127.956808 295.384615 127.956808 147.692308"></polygon>
                        </g>
                    </g>
                    <g id="box" transform="translate(1024.000000, 0.000000)">
                        <g>
                            <path d="M127.956808,-5.68434189e-14 L255.862098,73.8461538 C236.985999,102.956592 220.099365,121.812253 205.202197,130.413137 C190.305028,139.014021 164.556565,144.773745 127.956808,147.692308 C89.3345628,144.806493 62.5464956,139.046769 47.5926065,130.413137 C32.6387174,121.779505 16.7916877,102.923844 0.0515175777,73.8461538 L127.956808,-5.68434189e-14 Z" id="Polygon-Copy" fill="#FFFFFF"></path>
                            <path d="M127.956808,147.692308 C155.228587,176.244367 168.864476,199.294902 168.864476,216.843914 C168.864476,234.392925 155.228587,260.573159 127.956808,295.384615 L0.0515175777,221.538462 L0.0515175777,73.8461538 L127.956808,147.692308 Z" id="Polygon-Copy-3" fill="#D7FC70"></path>
                            <polygon id="Polygon-Copy-2" fill="#8B8685" points="255.862098 73.8461538 255.862098 221.538462 127.956808 295.384615 127.956808 147.692308"></polygon>
                        </g>
                    </g>
                    <g id="box" transform="translate(896.000000, 220.000000)">
                        <g>
                            <path d="M127.956808,-5.68434189e-14 L255.862098,73.8461538 C236.985999,102.956592 220.099365,121.812253 205.202197,130.413137 C190.305028,139.014021 164.556565,144.773745 127.956808,147.692308 C89.3345628,144.806493 62.5464956,139.046769 47.5926065,130.413137 C32.6387174,121.779505 16.7916877,102.923844 0.0515175777,73.8461538 L127.956808,-5.68434189e-14 Z" id="Polygon-Copy" fill="#FFFFFF"></path>
                            <path d="M127.956808,147.692308 C155.228587,176.244367 168.864476,199.294902 168.864476,216.843914 C168.864476,234.392925 155.228587,260.573159 127.956808,295.384615 L0.0515175777,221.538462 L0.0515175777,73.8461538 L127.956808,147.692308 Z" id="Polygon-Copy-3" fill="#D7FC70"></path>
                            <polygon id="Polygon-Copy-2" fill="#8B8685" points="255.862098 73.8461538 255.862098 221.538462 127.956808 295.384615 127.956808 147.692308"></polygon>
                        </g>
                    </g>
                    <g id="box" transform="translate(1536.000000, 0.000000)">
                        <g>
                            <path d="M127.956808,-5.68434189e-14 L255.862098,73.8461538 C236.985999,102.956592 220.099365,121.812253 205.202197,130.413137 C190.305028,139.014021 164.556565,144.773745 127.956808,147.692308 C89.3345628,144.806493 62.5464956,139.046769 47.5926065,130.413137 C32.6387174,121.779505 16.7916877,102.923844 0.0515175777,73.8461538 L127.956808,-5.68434189e-14 Z" id="Polygon-Copy" fill="#FFFFFF"></path>
                            <path d="M127.956808,147.692308 C155.228587,176.244367 168.864476,199.294902 168.864476,216.843914 C168.864476,234.392925 155.228587,260.573159 127.956808,295.384615 L0.0515175777,221.538462 L0.0515175777,73.8461538 L127.956808,147.692308 Z" id="Polygon-Copy-3" fill="#D7FC70"></path>
                            <polygon id="Polygon-Copy-2" fill="#8B8685" points="255.862098 73.8461538 255.862098 221.538462 127.956808 295.384615 127.956808 147.692308"></polygon>
                        </g>
                    </g>
                    <g id="box" transform="translate(2048.000000, 0.000000)">
                        <g>
                            <path d="M127.956808,-5.68434189e-14 L255.862098,73.8461538 C236.985999,102.956592 220.099365,121.812253 205.202197,130.413137 C190.305028,139.014021 164.556565,144.773745 127.956808,147.692308 C89.3345628,144.806493 62.5464956,139.046769 47.5926065,130.413137 C32.6387174,121.779505 16.7916877,102.923844 0.0515175777,73.8461538 L127.956808,-5.68434189e-14 Z" id="Polygon-Copy" fill="#FFFFFF"></path>
                            <path d="M127.956808,147.692308 C155.228587,176.244367 168.864476,199.294902 168.864476,216.843914 C168.864476,234.392925 155.228587,260.573159 127.956808,295.384615 L0.0515175777,221.538462 L0.0515175777,73.8461538 L127.956808,147.692308 Z" id="Polygon-Copy-3" fill="#D7FC70"></path>
                            <polygon id="Polygon-Copy-2" fill="#8B8685" points="255.862098 73.8461538 255.862098 221.538462 127.956808 295.384615 127.956808 147.692308"></polygon>
                        </g>
                    </g>
                    <g id="box" transform="translate(2560.000000, 0.000000)">
                        <g>
                            <path d="M127.956808,-5.68434189e-14 L255.862098,73.8461538 C236.985999,102.956592 220.099365,121.812253 205.202197,130.413137 C190.305028,139.014021 164.556565,144.773745 127.956808,147.692308 C89.3345628,144.806493 62.5464956,139.046769 47.5926065,130.413137 C32.6387174,121.779505 16.7916877,102.923844 0.0515175777,73.8461538 L127.956808,-5.68434189e-14 Z" id="Polygon-Copy" fill="#FFFFFF"></path>
                            <path d="M127.956808,147.692308 C155.228587,176.244367 168.864476,199.294902 168.864476,216.843914 C168.864476,234.392925 155.228587,260.573159 127.956808,295.384615 L0.0515175777,221.538462 L0.0515175777,73.8461538 L127.956808,147.692308 Z" id="Polygon-Copy-3" fill="#D7FC70"></path>
                            <polygon id="Polygon-Copy-2" fill="#8B8685" points="255.862098 73.8461538 255.862098 221.538462 127.956808 295.384615 127.956808 147.692308"></polygon>
                        </g>
                    </g>
                    <g id="box" transform="translate(1408.000000, 220.000000)">
                        <g>
                            <path d="M127.956808,-5.68434189e-14 L255.862098,73.8461538 C236.985999,102.956592 220.099365,121.812253 205.202197,130.413137 C190.305028,139.014021 164.556565,144.773745 127.956808,147.692308 C89.3345628,144.806493 62.5464956,139.046769 47.5926065,130.413137 C32.6387174,121.779505 16.7916877,102.923844 0.0515175777,73.8461538 L127.956808,-5.68434189e-14 Z" id="Polygon-Copy" fill="#FFFFFF"></path>
                            <path d="M127.956808,147.692308 C155.228587,176.244367 168.864476,199.294902 168.864476,216.843914 C168.864476,234.392925 155.228587,260.573159 127.956808,295.384615 L0.0515175777,221.538462 L0.0515175777,73.8461538 L127.956808,147.692308 Z" id="Polygon-Copy-3" fill="#D7FC70"></path>
                            <polygon id="Polygon-Copy-2" fill="#8B8685" points="255.862098 73.8461538 255.862098 221.538462 127.956808 295.384615 127.956808 147.692308"></polygon>
                        </g>
                    </g>
                    <g id="box" transform="translate(1920.000000, 220.000000)">
                        <g>
                            <path d="M127.956808,-5.68434189e-14 L255.862098,73.8461538 C236.985999,102.956592 220.099365,121.812253 205.202197,130.413137 C190.305028,139.014021 164.556565,144.773745 127.956808,147.692308 C89.3345628,144.806493 62.5464956,139.046769 47.5926065,130.413137 C32.6387174,121.779505 16.7916877,102.923844 0.0515175777,73.8461538 L127.956808,-5.68434189e-14 Z" id="Polygon-Copy" fill="#FFFFFF"></path>
                            <path d="M127.956808,147.692308 C155.228587,176.244367 168.864476,199.294902 168.864476,216.843914 C168.864476,234.392925 155.228587,260.573159 127.956808,295.384615 L0.0515175777,221.538462 L0.0515175777,73.8461538 L127.956808,147.692308 Z" id="Polygon-Copy-3" fill="#D7FC70"></path>
                            <polygon id="Polygon-Copy-2" fill="#8B8685" points="255.862098 73.8461538 255.862098 221.538462 127.956808 295.384615 127.956808 147.692308"></polygon>
                        </g>
                    </g>
                    <g id="box" transform="translate(2432.000000, 220.000000)">
                        <g>
                            <path d="M127.956808,-5.68434189e-14 L255.862098,73.8461538 C236.985999,102.956592 220.099365,121.812253 205.202197,130.413137 C190.305028,139.014021 164.556565,144.773745 127.956808,147.692308 C89.3345628,144.806493 62.5464956,139.046769 47.5926065,130.413137 C32.6387174,121.779505 16.7916877,102.923844 0.0515175777,73.8461538 L127.956808,-5.68434189e-14 Z" id="Polygon-Copy" fill="#FFFFFF"></path>
                            <path d="M127.956808,147.692308 C155.228587,176.244367 168.864476,199.294902 168.864476,216.843914 C168.864476,234.392925 155.228587,260.573159 127.956808,295.384615 L0.0515175777,221.538462 L0.0515175777,73.8461538 L127.956808,147.692308 Z" id="Polygon-Copy-3" fill="#D7FC70"></path>
                            <polygon id="Polygon-Copy-2" fill="#8B8685" points="255.862098 73.8461538 255.862098 221.538462 127.956808 295.384615 127.956808 147.692308"></polygon>
                        </g>
                    </g>
                    <g id="box2" transform="translate(256.000000, 0.000000)">
                        <g id="box-copy">
                            <path d="M127.956808,-5.68434189e-14 L255.862098,73.8461538 C236.985999,102.956592 220.099365,121.812253 205.202197,130.413137 C190.305028,139.014021 164.556565,144.773745 127.956808,147.692308 C89.3345628,144.806493 62.5464956,139.046769 47.5926065,130.413137 C32.6387174,121.779505 16.7916877,102.923844 0.0515175777,73.8461538 L127.956808,-5.68434189e-14 Z" id="Polygon-Copy" fill="#D7FC70"></path>
                            <path d="M127.956808,147.692308 C155.228587,176.244367 168.864476,199.294902 168.864476,216.843914 C168.864476,234.392925 155.228587,260.573159 127.956808,295.384615 L0.0515175777,221.538462 L0.0515175777,73.8461538 L127.956808,147.692308 Z" id="Polygon-Copy-3" fill="#FFFFFF"></path>
                            <polygon id="Polygon-Copy-2" fill="#8B8685" points="255.862098 73.8461538 255.862098 221.538462 127.956808 295.384615 127.956808 147.692308"></polygon>
                        </g>
                    </g>
                    <g id="box2" transform="translate(128.000000, 220.000000)">
                        <g id="box-copy">
                            <path d="M127.956808,-5.68434189e-14 L255.862098,73.8461538 C236.985999,102.956592 220.099365,121.812253 205.202197,130.413137 C190.305028,139.014021 164.556565,144.773745 127.956808,147.692308 C89.3345628,144.806493 62.5464956,139.046769 47.5926065,130.413137 C32.6387174,121.779505 16.7916877,102.923844 0.0515175777,73.8461538 L127.956808,-5.68434189e-14 Z" id="Polygon-Copy" fill="#D7FC70"></path>
                            <path d="M127.956808,147.692308 C155.228587,176.244367 168.864476,199.294902 168.864476,216.843914 C168.864476,234.392925 155.228587,260.573159 127.956808,295.384615 L0.0515175777,221.538462 L0.0515175777,73.8461538 L127.956808,147.692308 Z" id="Polygon-Copy-3" fill="#FFFFFF"></path>
                            <polygon id="Polygon-Copy-2" fill="#8B8685" points="255.862098 73.8461538 255.862098 221.538462 127.956808 295.384615 127.956808 147.692308"></polygon>
                        </g>
                    </g>
                    <g id="box2" transform="translate(768.000000, 0.000000)">
                        <g id="box-copy">
                            <path d="M127.956808,-5.68434189e-14 L255.862098,73.8461538 C236.985999,102.956592 220.099365,121.812253 205.202197,130.413137 C190.305028,139.014021 164.556565,144.773745 127.956808,147.692308 C89.3345628,144.806493 62.5464956,139.046769 47.5926065,130.413137 C32.6387174,121.779505 16.7916877,102.923844 0.0515175777,73.8461538 L127.956808,-5.68434189e-14 Z" id="Polygon-Copy" fill="#D7FC70"></path>
                            <path d="M127.956808,147.692308 C155.228587,176.244367 168.864476,199.294902 168.864476,216.843914 C168.864476,234.392925 155.228587,260.573159 127.956808,295.384615 L0.0515175777,221.538462 L0.0515175777,73.8461538 L127.956808,147.692308 Z" id="Polygon-Copy-3" fill="#FFFFFF"></path>
                            <polygon id="Polygon-Copy-2" fill="#8B8685" points="255.862098 73.8461538 255.862098 221.538462 127.956808 295.384615 127.956808 147.692308"></polygon>
                        </g>
                    </g>
                    <g id="box2" transform="translate(640.000000, 220.000000)">
                        <g id="box-copy">
                            <path d="M127.956808,-5.68434189e-14 L255.862098,73.8461538 C236.985999,102.956592 220.099365,121.812253 205.202197,130.413137 C190.305028,139.014021 164.556565,144.773745 127.956808,147.692308 C89.3345628,144.806493 62.5464956,139.046769 47.5926065,130.413137 C32.6387174,121.779505 16.7916877,102.923844 0.0515175777,73.8461538 L127.956808,-5.68434189e-14 Z" id="Polygon-Copy" fill="#D7FC70"></path>
                            <path d="M127.956808,147.692308 C155.228587,176.244367 168.864476,199.294902 168.864476,216.843914 C168.864476,234.392925 155.228587,260.573159 127.956808,295.384615 L0.0515175777,221.538462 L0.0515175777,73.8461538 L127.956808,147.692308 Z" id="Polygon-Copy-3" fill="#FFFFFF"></path>
                            <polygon id="Polygon-Copy-2" fill="#8B8685" points="255.862098 73.8461538 255.862098 221.538462 127.956808 295.384615 127.956808 147.692308"></polygon>
                        </g>
                    </g>
                    <g id="box2" transform="translate(1280.000000, 0.000000)">
                        <g id="box-copy">
                            <path d="M127.956808,-5.68434189e-14 L255.862098,73.8461538 C236.985999,102.956592 220.099365,121.812253 205.202197,130.413137 C190.305028,139.014021 164.556565,144.773745 127.956808,147.692308 C89.3345628,144.806493 62.5464956,139.046769 47.5926065,130.413137 C32.6387174,121.779505 16.7916877,102.923844 0.0515175777,73.8461538 L127.956808,-5.68434189e-14 Z" id="Polygon-Copy" fill="#D7FC70"></path>
                            <path d="M127.956808,147.692308 C155.228587,176.244367 168.864476,199.294902 168.864476,216.843914 C168.864476,234.392925 155.228587,260.573159 127.956808,295.384615 L0.0515175777,221.538462 L0.0515175777,73.8461538 L127.956808,147.692308 Z" id="Polygon-Copy-3" fill="#FFFFFF"></path>
                            <polygon id="Polygon-Copy-2" fill="#8B8685" points="255.862098 73.8461538 255.862098 221.538462 127.956808 295.384615 127.956808 147.692308"></polygon>
                        </g>
                    </g>
                    <g id="box2" transform="translate(1792.000000, 0.000000)">
                        <g id="box-copy">
                            <path d="M127.956808,-5.68434189e-14 L255.862098,73.8461538 C236.985999,102.956592 220.099365,121.812253 205.202197,130.413137 C190.305028,139.014021 164.556565,144.773745 127.956808,147.692308 C89.3345628,144.806493 62.5464956,139.046769 47.5926065,130.413137 C32.6387174,121.779505 16.7916877,102.923844 0.0515175777,73.8461538 L127.956808,-5.68434189e-14 Z" id="Polygon-Copy" fill="#D7FC70"></path>
                            <path d="M127.956808,147.692308 C155.228587,176.244367 168.864476,199.294902 168.864476,216.843914 C168.864476,234.392925 155.228587,260.573159 127.956808,295.384615 L0.0515175777,221.538462 L0.0515175777,73.8461538 L127.956808,147.692308 Z" id="Polygon-Copy-3" fill="#FFFFFF"></path>
                            <polygon id="Polygon-Copy-2" fill="#8B8685" points="255.862098 73.8461538 255.862098 221.538462 127.956808 295.384615 127.956808 147.692308"></polygon>
                        </g>
                    </g>
                    <g id="box2" transform="translate(2304.000000, 0.000000)">
                        <g id="box-copy">
                            <path d="M127.956808,-5.68434189e-14 L255.862098,73.8461538 C236.985999,102.956592 220.099365,121.812253 205.202197,130.413137 C190.305028,139.014021 164.556565,144.773745 127.956808,147.692308 C89.3345628,144.806493 62.5464956,139.046769 47.5926065,130.413137 C32.6387174,121.779505 16.7916877,102.923844 0.0515175777,73.8461538 L127.956808,-5.68434189e-14 Z" id="Polygon-Copy" fill="#D7FC70"></path>
                            <path d="M127.956808,147.692308 C155.228587,176.244367 168.864476,199.294902 168.864476,216.843914 C168.864476,234.392925 155.228587,260.573159 127.956808,295.384615 L0.0515175777,221.538462 L0.0515175777,73.8461538 L127.956808,147.692308 Z" id="Polygon-Copy-3" fill="#FFFFFF"></path>
                            <polygon id="Polygon-Copy-2" fill="#8B8685" points="255.862098 73.8461538 255.862098 221.538462 127.956808 295.384615 127.956808 147.692308"></polygon>
                        </g>
                    </g>
                    <g id="box2" transform="translate(1152.000000, 220.000000)">
                        <g id="box-copy">
                            <path d="M127.956808,-5.68434189e-14 L255.862098,73.8461538 C236.985999,102.956592 220.099365,121.812253 205.202197,130.413137 C190.305028,139.014021 164.556565,144.773745 127.956808,147.692308 C89.3345628,144.806493 62.5464956,139.046769 47.5926065,130.413137 C32.6387174,121.779505 16.7916877,102.923844 0.0515175777,73.8461538 L127.956808,-5.68434189e-14 Z" id="Polygon-Copy" fill="#D7FC70"></path>
                            <path d="M127.956808,147.692308 C155.228587,176.244367 168.864476,199.294902 168.864476,216.843914 C168.864476,234.392925 155.228587,260.573159 127.956808,295.384615 L0.0515175777,221.538462 L0.0515175777,73.8461538 L127.956808,147.692308 Z" id="Polygon-Copy-3" fill="#FFFFFF"></path>
                            <polygon id="Polygon-Copy-2" fill="#8B8685" points="255.862098 73.8461538 255.862098 221.538462 127.956808 295.384615 127.956808 147.692308"></polygon>
                        </g>
                    </g>
                    <g id="box2" transform="translate(1664.000000, 220.000000)">
                        <g id="box-copy">
                            <path d="M127.956808,-5.68434189e-14 L255.862098,73.8461538 C236.985999,102.956592 220.099365,121.812253 205.202197,130.413137 C190.305028,139.014021 164.556565,144.773745 127.956808,147.692308 C89.3345628,144.806493 62.5464956,139.046769 47.5926065,130.413137 C32.6387174,121.779505 16.7916877,102.923844 0.0515175777,73.8461538 L127.956808,-5.68434189e-14 Z" id="Polygon-Copy" fill="#D7FC70"></path>
                            <path d="M127.956808,147.692308 C155.228587,176.244367 168.864476,199.294902 168.864476,216.843914 C168.864476,234.392925 155.228587,260.573159 127.956808,295.384615 L0.0515175777,221.538462 L0.0515175777,73.8461538 L127.956808,147.692308 Z" id="Polygon-Copy-3" fill="#FFFFFF"></path>
                            <polygon id="Polygon-Copy-2" fill="#8B8685" points="255.862098 73.8461538 255.862098 221.538462 127.956808 295.384615 127.956808 147.692308"></polygon>
                        </g>
                    </g>
                    <g id="box2" transform="translate(2176.000000, 220.000000)">
                        <g id="box-copy">
                            <path d="M127.956808,-5.68434189e-14 L255.862098,73.8461538 C236.985999,102.956592 220.099365,121.812253 205.202197,130.413137 C190.305028,139.014021 164.556565,144.773745 127.956808,147.692308 C89.3345628,144.806493 62.5464956,139.046769 47.5926065,130.413137 C32.6387174,121.779505 16.7916877,102.923844 0.0515175777,73.8461538 L127.956808,-5.68434189e-14 Z" id="Polygon-Copy" fill="#D7FC70"></path>
                            <path d="M127.956808,147.692308 C155.228587,176.244367 168.864476,199.294902 168.864476,216.843914 C168.864476,234.392925 155.228587,260.573159 127.956808,295.384615 L0.0515175777,221.538462 L0.0515175777,73.8461538 L127.956808,147.692308 Z" id="Polygon-Copy-3" fill="#FFFFFF"></path>
                            <polygon id="Polygon-Copy-2" fill="#8B8685" points="255.862098 73.8461538 255.862098 221.538462 127.956808 295.384615 127.956808 147.692308"></polygon>
                        </g>
                    </g>
                    <g id="box2" transform="translate(2688.000000, 220.000000)">
                        <g id="box-copy">
                            <path d="M127.956808,-5.68434189e-14 L255.862098,73.8461538 C236.985999,102.956592 220.099365,121.812253 205.202197,130.413137 C190.305028,139.014021 164.556565,144.773745 127.956808,147.692308 C89.3345628,144.806493 62.5464956,139.046769 47.5926065,130.413137 C32.6387174,121.779505 16.7916877,102.923844 0.0515175777,73.8461538 L127.956808,-5.68434189e-14 Z" id="Polygon-Copy" fill="#D7FC70"></path>
                            <path d="M127.956808,147.692308 C155.228587,176.244367 168.864476,199.294902 168.864476,216.843914 C168.864476,234.392925 155.228587,260.573159 127.956808,295.384615 L0.0515175777,221.538462 L0.0515175777,73.8461538 L127.956808,147.692308 Z" id="Polygon-Copy-3" fill="#FFFFFF"></path>
                            <polygon id="Polygon-Copy-2" fill="#8B8685" points="255.862098 73.8461538 255.862098 221.538462 127.956808 295.384615 127.956808 147.692308"></polygon>
                        </g>
                    </g>
                </g>
            </g>
        </g>
    </g>
</svg>
